<?xml version="1.0" standalone="no"?>
<!DOCTYPE svg PUBLIC "-//W3C//DTD SVG 20010904//EN"
 "http://www.w3.org/TR/2001/REC-SVG-20010904/DTD/svg10.dtd">
<svg version="1.0" xmlns="http://www.w3.org/2000/svg"
 width="700.000000pt" height="700.000000pt" viewBox="0 0 700.000000 700.000000"
 preserveAspectRatio="xMidYMid meet">
<metadata>
Created by potrace 1.14, written by Peter Selinger 2001-2017
</metadata>
<g transform="translate(0.000000,700.000000) scale(0.100000,-0.100000)"
fill="#000000" stroke="none">
<path d="M465 6840 l-60 -5 0 -199 0 -200 90 -2 c273 -7 405 -74 491 -249 43
-89 70 -189 89 -340 3 -27 8 -63 10 -80 2 -16 7 -228 10 -470 4 -242 9 -442
12 -445 2 -3 200 -5 439 -5 382 0 434 1 435 15 2 27 7 350 8 523 l1 168 38 -5
c138 -21 226 -60 287 -128 77 -85 112 -191 143 -427 l17 -134 401 -1 402 -2
17 126 c38 288 84 406 190 490 46 37 62 37 106 3 103 -80 157 -215 189 -468
15 -116 18 -133 24 -143 4 -8 793 -9 800 -1 2 2 7 33 10 69 3 36 8 79 11 95 3
17 7 48 10 70 20 142 62 247 127 320 66 73 153 112 287 131 l39 5 2 -218 c4
-409 5 -472 14 -480 4 -4 201 -8 437 -8 424 -1 430 0 434 20 2 11 7 211 10
445 3 234 7 443 10 465 2 22 7 65 10 95 10 92 56 251 92 320 91 175 213 236
491 243 63 2 83 5 87 17 6 19 3 361 -3 378 -3 9 -239 12 -1133 12 -1003 0
-1130 -2 -1135 -15 -4 -9 -7 -95 -8 -192 -1 -134 2 -180 12 -190 7 -7 34 -13
60 -14 26 0 56 -2 67 -4 11 -2 40 -7 65 -10 182 -25 302 -99 373 -232 29 -54
76 -202 77 -239 l0 -21 -1512 1 c-1141 1 -1512 4 -1511 13 1 6 5 26 8 45 15
88 65 205 116 272 82 106 244 169 450 175 81 2 81 1 79 211 0 102 -5 189 -10
194 -9 9 -2098 15 -2205 6z"/>
<path d="M400 4100 l0 -585 120 -3 c119 -3 120 -2 121 20 0 13 2 39 3 58 2 19
6 91 10 160 14 256 19 282 59 350 45 76 82 91 252 106 82 7 1451 13 1476 7 10
-3 21 -12 25 -21 11 -24 18 -822 8 -823 -40 -4 -478 -3 -483 1 -5 3 -8 163 -8
356 0 194 -3 356 -6 360 -4 7 -736 11 -859 5 -16 -1 -17 -40 -18 -588 -1
-1158 -8 -2169 -15 -2233 -24 -238 -83 -414 -169 -509 -67 -74 -206 -128 -351
-138 -79 -5 -104 -7 -150 -12 -7 -1 -10 -69 -9 -194 1 -105 2 -194 3 -197 0
-3 511 -6 1135 -6 l1133 0 1 198 c0 146 -2 198 -11 199 -7 0 -19 2 -27 3 -8 2
-51 7 -95 11 -44 4 -83 9 -87 11 -4 3 -24 7 -43 9 -41 6 -169 63 -203 91 -23
19 -1 19 1322 19 1314 0 1344 0 1328 -18 -33 -37 -154 -86 -247 -101 -55 -9
-130 -19 -165 -21 -19 -1 -38 -3 -42 -4 -5 0 -8 -90 -8 -199 l0 -198 1133 2
c622 0 1134 2 1137 3 8 2 5 380 -3 387 -3 4 -26 8 -49 10 -208 14 -260 24
-345 65 -73 35 -148 116 -187 201 -36 79 -71 207 -82 303 -3 33 -9 69 -11 80
-6 26 -12 797 -14 1933 l-2 892 -21 1 c-160 7 -849 2 -855 -6 -4 -5 -7 -169
-7 -362 1 -347 1 -353 -19 -354 -11 -1 -121 -1 -245 -2 l-225 0 0 411 c0 324
3 414 13 424 23 23 1474 16 1612 -8 111 -19 175 -117 185 -286 2 -40 7 -122
10 -183 4 -60 8 -128 10 -150 2 -22 4 -46 4 -53 1 -10 27 -12 119 -10 l117 3
0 585 0 585 -3137 0 -3138 0 0 -585z m3400 140 c11 -6 17 -26 19 -62 7 -106 6
-790 0 -800 -4 -7 -106 -10 -285 -10 l-279 0 1 427 c0 388 2 429 17 440 20 14
501 19 527 5z m-1323 -2032 c-2 -414 -7 -766 -11 -783 -58 -239 -177 -384
-360 -439 l-46 -14 -11 42 c-23 84 -38 173 -44 257 -4 47 -8 110 -11 140 -2
30 -7 384 -10 787 -5 576 -4 735 6 747 10 13 51 15 252 15 l239 0 -4 -752z
m1347 64 c-1 -837 -6 -904 -74 -1047 -35 -73 -124 -171 -179 -197 -43 -20 -64
-12 -145 63 -54 49 -120 158 -131 217 -2 13 -6 31 -9 40 -3 9 -8 37 -11 62 -4
25 -9 59 -12 75 -5 32 -12 1456 -7 1466 2 3 131 6 286 7 l283 0 -1 -686z
m1265 670 c9 -18 7 -1415 -3 -1492 -2 -19 -7 -82 -11 -140 -8 -136 -11 -155
-35 -252 -11 -44 -20 -82 -20 -83 0 -2 -21 3 -46 11 -200 60 -340 250 -368
499 -6 59 -7 169 -6 913 l0 562 240 0 c221 0 240 -1 249 -18z"/>
</g>
</svg>
