<?xml version="1.0" encoding="utf-8"?>
<!-- Generator: Adobe Illustrator 22.0.0, SVG Export Plug-In . SVG Version: 6.00 Build 0)  -->
<svg version="1.1" xmlns="http://www.w3.org/2000/svg" xmlns:xlink="http://www.w3.org/1999/xlink" x="0px" y="0px"
	 viewBox="0 0 500 500" style="enable-background:new 0 0 500 500;" xml:space="preserve">
<style type="text/css">
	.st0{display:none;}
	.st1{display:inline;}
	.st2{fill:#333435;}
	.st3{fill:#DA9629;}
</style>
<g id="Layer_1" class="st0">
	<g class="st1">
		<g>
			<g>
				<g>
					<g>
						<path class="st2" d="M477,165.4c0,28.1,0,55.7,0,83.6c-4.5,0-9,0-13.8,0c-0.2-3.5-0.5-7-0.7-10.5c-0.4-6.3-0.6-12.7-1.2-19
							c-1.3-12.3-7.5-18.5-19.9-19.5c-9.9-0.8-19.8-1.1-29.7-1.1c-26.1-0.1-52.2,0-78.2-0.1c-3.1,0-4.3,0.9-4.4,3.9
							c-0.1,4.3-0.6,8.5-0.6,12.8c0,54.7,0,109.5,0,164.2c0,8.9,0.1,17.8,3.2,26.4c5.6,15.5,16.8,23.7,32.9,25.6
							c3.1,0.4,6.3,0.6,9.4,1c0.7,0.1,1.9,1,1.9,1.6c0.2,3.8,0.1,7.7,0.1,11.7c-50,0-99.7,0-149.6,0c0-4.5,0-8.9,0-13.5
							c4.7-0.5,9.4-0.9,14.1-1.4c17.2-1.8,28.2-12.9,31-30.1c2.2-13.3,1.5-26.7,1.6-40c0.1-50.9,0-101.7,0-152.6
							c0-3.4-0.2-6.7-0.5-10.1c-0.1-0.7-1.2-1.3-1.9-1.8c-0.3-0.2-1,0-1.5,0c-61.8,0-123.6,0-185.3,0.1c-6,0-12.1,0.5-18.1,1.3
							c-11,1.4-17.6,9.3-18.3,21.1c-0.5,10-1.2,20-1.8,30.2c-3.1,0-6,0-9.1,0c0-27.9,0-55.6,0-83.5
							C183.4,165.4,330.1,165.4,477,165.4z"/>
						<path class="st2" d="M191.3,456.3c0,9.4,0,18.8,0,28.4c-54.1,0-108.1,0-162.4,0c0-9.4,0-18.9,0-28.5c4.8-0.3,9.5-0.4,14.2-0.9
							c16.9-1.7,26.3-9.7,30.9-26.2c3.5-12.5,4.2-25.4,4.2-38.3c0.2-59.7,0.4-119.4,0.5-179c0-1.3,0-2.5,0-4.2c21,0,41.8,0,62.9,0
							c0,17.1,0,34.3,0,51.9c40.2,0,80,0,120,0c0.1,1.4,0.2,2.5,0.2,3.5c0,7.3-0.1,14.7,0.1,22c0.1,2.9-0.8,3.7-3.7,3.7
							c-24.1-0.1-48.2-0.1-72.3-0.1c-13.5,0-27,0.1-40.5-0.1c-2.9,0-4,0.6-3.9,3.8c0.1,25.2-0.1,50.4,0.1,75.6
							c0.1,14.5,0.6,28.9,1.7,43.3c0.5,7.1,2.3,14.3,4.5,21.1c4.4,13.5,14.6,20.2,28.2,22.3C181,455.5,186,455.8,191.3,456.3z"/>
						<path class="st2" d="M141.4,154c-21,0-41.6,0-62.6,0c-0.1-1.1-0.1-2.2-0.2-3.2c-0.2-17.6-0.3-35.3-0.7-52.9
							c-0.3-11.7-1.4-23.3-5.2-34.5C68.3,50,59.1,42.6,45.2,41c-4.3-0.5-8.7-0.5-13-0.7c-1.1-0.1-2.1,0-3.6,0c0-3,0-5.7,0-8.3
							c0-6,0.1-12.1,0-18.1c0-1.9,0.6-2.8,2.6-2.6c0.6,0.1,1.2,0,1.8,0c51.4,0,102.7,0,154.1,0c4.4,0,4.4,0,4.4,4.3
							c0,7.1-0.1,14.3,0.1,21.4c0.1,2.6-0.7,3.3-3.3,3.5c-5.6,0.4-11.3,0.9-16.8,2.1c-13.1,2.8-20.8,11.5-24.6,24
							c-4.2,13.6-4.4,27.7-4.7,41.8c-0.3,14.3-0.3,28.5-0.5,42.8C141.6,152,141.5,152.8,141.4,154z"/>
						<path class="st2" d="M271.4,153.2c-1-7.6-1.7-15-3.1-22.2c-0.8-4.3-2.4-8.6-4.3-12.6c-4.4-9-12-13.7-21.8-14.9
							c-4.4-0.5-8.9-0.6-13.3-0.7c-1.6,0-2.6-0.3-2.6-2.3c0-7.7,0-15.4,0-23.5c48.9,0,97.6,0,146.6,0c0.1,0.9,0.2,1.9,0.2,2.8
							c0,6.1,0.1,12.3,0.1,18.4c0,4.4-0.1,4-4.2,4.5c-6.3,0.8-12.9,1.5-18.8,3.6c-10.7,3.8-15.7,12.9-18,23.4
							c-1.3,5.6-1.7,11.3-2.5,17c-0.3,2-0.4,4.1-0.7,6.3C309.6,153.2,290.5,153.2,271.4,153.2z"/>
					</g>
				</g>
			</g>
			<g>
				<g>
					<g>
						<path class="st2" d="M28.6,165.4c0,28.1,0,55.7,0,83.6c4.5,0,9,0,13.8,0c0.2-3.5,0.5-7,0.7-10.5c0.4-6.3,0.6-12.7,1.2-19
							c1.3-12.3,7.5-18.5,19.9-19.5c9.9-0.8,19.8-1.1,29.7-1.1c26.1-0.1,52.2,0,78.2-0.1c3.1,0,4.3,0.9,4.4,3.9
							c0.1,4.3,0.6,8.5,0.6,12.8c0,54.7,0,109.5,0,164.2c0,8.9-0.1,17.8-3.2,26.4c-5.6,15.5-16.8,23.7-32.9,25.6
							c-3.1,0.4-6.3,0.6-9.4,1c-0.7,0.1-1.9,1-1.9,1.6c-0.2,3.8-0.1,7.7-0.1,11.7c50,0,99.7,0,149.6,0c0-4.5,0-8.9,0-13.5
							c-4.7-0.5-9.4-0.9-14.1-1.4c-17.2-1.8-28.2-12.9-31-30.1c-2.2-13.3-1.5-26.7-1.6-40c-0.1-50.9,0-101.7,0-152.6
							c0-3.4,0.2-6.7,0.5-10.1c0.1-0.7,1.2-1.3,1.9-1.8c0.3-0.2,1,0,1.5,0c61.8,0,123.6,0,185.3,0.1c6,0,12.1,0.5,18.1,1.3
							c11,1.4,17.6,9.3,18.3,21.1c0.5,10,1.2,20,1.8,30.2c3.1,0,6,0,9.1,0c0-27.9,0-55.6,0-83.5C322.2,165.4,175.5,165.4,28.6,165.4
							z"/>
						<path class="st2" d="M314.3,456.3c0,9.4,0,18.8,0,28.4c54.1,0,108.1,0,162.4,0c0-9.4,0-18.9,0-28.5c-4.8-0.3-9.5-0.4-14.2-0.9
							c-16.9-1.7-26.3-9.7-30.9-26.2c-3.5-12.5-4.2-25.4-4.2-38.3c-0.2-59.7-0.4-119.4-0.5-179c0-1.3,0-2.5,0-4.2
							c-21,0-41.8,0-62.9,0c0,17.1,0,34.3,0,51.9c-40.2,0-80,0-120,0c-0.1,1.4-0.2,2.5-0.2,3.5c0,7.3,0.1,14.7-0.1,22
							c-0.1,2.9,0.8,3.7,3.7,3.7c24.1-0.1,48.2-0.1,72.3-0.1c13.5,0,27,0.1,40.5-0.1c2.9,0,4,0.6,3.9,3.8
							c-0.1,25.2,0.1,50.4-0.1,75.6c-0.1,14.5-0.6,28.9-1.7,43.3c-0.5,7.1-2.3,14.3-4.5,21.1c-4.4,13.5-14.6,20.2-28.2,22.3
							C324.6,455.5,319.7,455.8,314.3,456.3z"/>
						<path class="st2" d="M364.2,154c21,0,41.6,0,62.6,0c0.1-1.1,0.1-2.2,0.2-3.2c0.2-17.6,0.3-35.3,0.7-52.9
							c0.3-11.7,1.4-23.3,5.2-34.5c4.5-13.3,13.7-20.8,27.5-22.3c4.3-0.5,8.7-0.5,13-0.7c1.1-0.1,2.1,0,3.6,0c0-3,0-5.7,0-8.3
							c0-6-0.1-12.1,0-18.1c0-1.9-0.6-2.8-2.6-2.6c-0.6,0.1-1.2,0-1.8,0c-51.4,0-102.7,0-154.1,0c-4.4,0-4.4,0-4.4,4.3
							c0,7.1,0.1,14.3-0.1,21.4c-0.1,2.6,0.7,3.3,3.3,3.5c5.6,0.4,11.3,0.9,16.8,2.1c13.1,2.8,20.8,11.5,24.6,24
							c4.2,13.6,4.4,27.7,4.7,41.8c0.3,14.3,0.3,28.5,0.5,42.8C364,152,364.1,152.8,364.2,154z"/>
						<path class="st2" d="M234.2,153.2c1-7.6,1.7-15,3.1-22.2c0.8-4.3,2.4-8.6,4.3-12.6c4.4-9,12-13.7,21.8-14.9
							c4.4-0.5,8.9-0.6,13.3-0.7c1.6,0,2.6-0.3,2.6-2.3c0-7.7,0-15.4,0-23.5c-48.9,0-97.6,0-146.6,0c-0.1,0.9-0.2,1.9-0.2,2.8
							c0,6.1-0.1,12.3-0.1,18.4c0,4.4,0.1,4,4.2,4.5c6.3,0.8,12.9,1.5,18.8,3.6c10.7,3.8,15.7,12.9,18,23.4c1.3,5.6,1.7,11.3,2.5,17
							c0.3,2,0.4,4.1,0.7,6.3C196,153.2,215.1,153.2,234.2,153.2z"/>
					</g>
				</g>
			</g>
		</g>
	</g>
</g>
<g id="Layer_3">
	<g>
		<path class="st3" d="M409,314.7c-4.7-20.8-9.7-41.7-14.2-62.8c-5.8-27.3-5.5-25.4-31.3-25.4c-79.4,0-158.7,0-238.1,0
			c-16.5,0-18.1,1.3-21.6,17c-4.8,21.6-9.9,43.2-14.5,64.9c-1.1,5.2-2.9,7.1-8.5,7.2c-28,0.1-42.7-14.2-42.8-42.2
			c0-35.9,0-71.7,0-107.6c0-25.5,14.8-40.6,40.1-40.6c113.3-0.1,226.6-0.1,339.9,0c25.9,0,40.5,15,40.5,41c0,35-1,70.1,0.3,105.1
			C460,299.5,441.6,319.5,409,314.7z M304.6,210c0,0,0,0.1,0,0.1c2.7,0,5.5,0.2,8.2,0c7.2-0.5,12.2-5.2,12.4-11.7
			c0.3-6.7-4.9-12.1-12.4-12.5c-5.7-0.3-11.5-0.5-17.1,0.2c-6.8,0.8-10.9,5.3-10.7,12.3c0.2,6.5,4.2,10.5,10.6,11.5
			C298.5,210.4,301.6,210,304.6,210z M361.7,210C361.7,210,361.7,210,361.7,210c3,0.1,6,0.4,9,0c6.7-1,10.9-5,10.9-12.1
			c0-6.7-4-10.9-10.3-11.7c-6.4-0.7-13.1-0.7-19.5,0.1c-6.4,0.8-10.1,5.2-10.1,11.9c0.1,6.7,4,10.6,10.3,11.7
			C355.1,210.4,358.5,210,361.7,210z"/>
		<path class="st3" d="M112.6,314.9c4.7-20.7,9.1-40.9,14.1-61c0.4-1.6,4.6-3.1,7-3.1c17.5-0.3,35-0.1,52.5-0.1
			c58.3,0,116.6,0.1,174.9-0.2c7,0,9.3,2.3,10.6,8.8c3.7,18.5,8.1,36.8,12.3,55.7C293.4,314.9,203.5,314.9,112.6,314.9z"/>
		<path class="st3" d="M265.5,345.6c-2,5.6-3.5,11.4-6.2,16.7c-2.9,5.7-3.3,10.6-0.1,16.2c7.4,12.6,7.1,25.3,0.1,38.2
			c-1.6,3-2.1,6.7-3,10c-1.9,6.6-6.3,10.5-13.2,9.7c-6.8-0.8-11.2-5.5-10.6-12.3c0.6-6.1,2.3-12.4,5-17.9c2.8-6,3.5-11.1,0.1-16.9
			c-7.2-12.3-6.9-24.9-0.2-37.4c1.5-2.8,2.3-6.1,3-9.2c1.7-7.6,6.9-11.8,13.9-10.8C260.7,332.6,264.7,337.9,265.5,345.6z"/>
		<path class="st3" d="M330,346.3c-2,5.3-3.5,10.9-6.1,15.9c-2.9,5.6-3.4,10.6-0.1,16.2c7.3,12.7,7.1,25.4,0.1,38.3
			c-1.6,3-2.2,6.7-3.1,10.1c-1.7,6.5-6,10.1-12.4,9.6c-6.8-0.5-11.6-4.7-11.1-11.8c0.4-6.1,1.9-12.5,4.5-18c3-6.3,3.6-11.6,0.1-17.8
			c-6.9-12.1-6.6-24.5-0.1-36.8c1.5-2.8,2.4-6.1,3.1-9.2c1.9-7.9,6.8-12,13.6-11.1C325.5,332.5,329.3,337.8,330,346.3z"/>
		<path class="st3" d="M200.7,345.5c-2,5.6-3.5,11.4-6.1,16.7c-2.8,5.7-3.2,10.7-0.1,16.3c7.2,12.7,7,25.5,0,38.3
			c-1.5,2.8-2.1,6.1-2.9,9.3c-1.8,7.1-7.2,11.3-13.5,10.4c-6.5-1-11-6.3-10.1-13.6c0.6-5.6,2.1-11.3,4.6-16.3
			c3.1-6.2,3.6-11.6,0.1-17.7c-6.9-12.1-6.6-24.4-0.1-36.8c1.5-2.8,2.5-6.1,3.2-9.2c1.8-7.9,6.7-12,13.6-11.1
			C195.9,332.5,199.8,337.6,200.7,345.5z"/>
	</g>
</g>
<g id="Layer_2" class="st0">
	<g class="st1">
		<defs>
			<rect id="SVGID_1_" x="-771" y="-223.6" width="595" height="841.2"/>
		</defs>
		<clipPath id="SVGID_2_">
			<use xlink:href="#SVGID_1_"  style="overflow:visible;"/>
		</clipPath>
		<g style="clip-path:url(#SVGID_2_);">
			
				<image style="overflow:visible;" width="1240" height="1752" xlink:href="7CB375F3.jpg"  transform="matrix(0.4798 0 0 0.4801 -771 -223.5997)">
			</image>
		</g>
	</g>
</g>
</svg>
