<?xml version="1.0" encoding="utf-8"?>
<!-- Generator: Adobe Illustrator 22.0.0, SVG Export Plug-In . SVG Version: 6.00 Build 0)  -->
<svg version="1.1" xmlns="http://www.w3.org/2000/svg" xmlns:xlink="http://www.w3.org/1999/xlink" x="0px" y="0px"
	 viewBox="0 0 500 500" style="enable-background:new 0 0 500 500;" xml:space="preserve">
<style type="text/css">
	.st0{display:none;}
	.st1{display:inline;fill:#00FF00;}
	.st2{display:inline;}
	.st3{fill:#DA9528;}
	.st4{fill:#DA9528;stroke:#FFFFFF;stroke-width:0.5;stroke-miterlimit:10;}
</style>
<g id="Layer_4" class="st0">
	<rect x="0.9" y="0.8" class="st1" width="500" height="500"/>
</g>
<g id="Layer_1" class="st0">
	<g class="st2">
		<g>
			<g>
				<g>
					<g>
						<path class="st3" d="M477,165.4c0,28.1,0,55.7,0,83.6c-4.5,0-9,0-13.8,0c-0.2-3.5-0.5-7-0.7-10.5c-0.4-6.3-0.6-12.7-1.2-19
							c-1.3-12.3-7.5-18.5-19.9-19.5c-9.9-0.8-19.8-1.1-29.7-1.1c-26.1-0.1-52.2,0-78.2-0.1c-3.1,0-4.3,0.9-4.4,3.9
							c-0.1,4.3-0.6,8.5-0.6,12.8c0,54.7,0,109.5,0,164.2c0,8.9,0.1,17.8,3.2,26.4c5.6,15.5,16.8,23.7,32.9,25.6
							c3.1,0.4,6.3,0.6,9.4,1c0.7,0.1,1.9,1,1.9,1.6c0.2,3.8,0.1,7.7,0.1,11.7c-50,0-99.7,0-149.6,0c0-4.5,0-8.9,0-13.5
							c4.7-0.5,9.4-0.9,14.1-1.4c17.2-1.8,28.2-12.9,31-30.1c2.2-13.3,1.5-26.7,1.6-40c0.1-50.9,0-101.7,0-152.6
							c0-3.4-0.2-6.7-0.5-10.1c-0.1-0.7-1.2-1.3-1.9-1.8c-0.3-0.2-1,0-1.5,0c-61.8,0-123.6,0-185.3,0.1c-6,0-12.1,0.5-18.1,1.3
							c-11,1.4-17.6,9.3-18.3,21.1c-0.5,10-1.2,20-1.8,30.2c-3.1,0-6,0-9.1,0c0-27.9,0-55.6,0-83.5
							C183.4,165.4,330.1,165.4,477,165.4z"/>
						<path class="st3" d="M191.3,456.3c0,9.4,0,18.8,0,28.4c-54.1,0-108.1,0-162.4,0c0-9.4,0-18.9,0-28.5c4.8-0.3,9.5-0.4,14.2-0.9
							c16.9-1.7,26.3-9.7,30.9-26.2c3.5-12.5,4.2-25.4,4.2-38.3c0.2-59.7,0.4-119.4,0.5-179c0-1.3,0-2.5,0-4.2c21,0,41.8,0,62.9,0
							c0,17.1,0,34.3,0,51.9c40.2,0,80,0,120,0c0.1,1.4,0.2,2.5,0.2,3.5c0,7.3-0.1,14.7,0.1,22c0.1,2.9-0.8,3.7-3.7,3.7
							c-24.1-0.1-48.2-0.1-72.3-0.1c-13.5,0-27,0.1-40.5-0.1c-2.9,0-4,0.6-3.9,3.8c0.1,25.2-0.1,50.4,0.1,75.6
							c0.1,14.5,0.6,28.9,1.7,43.3c0.5,7.1,2.3,14.3,4.5,21.1c4.4,13.5,14.6,20.2,28.2,22.3C181,455.5,186,455.8,191.3,456.3z"/>
						<path class="st3" d="M141.4,154c-21,0-41.6,0-62.6,0c-0.1-1.1-0.1-2.2-0.2-3.2c-0.2-17.6-0.3-35.3-0.7-52.9
							c-0.3-11.7-1.4-23.3-5.2-34.5C68.3,50,59.1,42.6,45.2,41c-4.3-0.5-8.7-0.5-13-0.7c-1.1-0.1-2.1,0-3.6,0c0-3,0-5.7,0-8.3
							c0-6,0.1-12.1,0-18.1c0-1.9,0.6-2.8,2.6-2.6c0.6,0.1,1.2,0,1.8,0c51.4,0,102.7,0,154.1,0c4.4,0,4.4,0,4.4,4.3
							c0,7.1-0.1,14.3,0.1,21.4c0.1,2.6-0.7,3.3-3.3,3.5c-5.6,0.4-11.3,0.9-16.8,2.1c-13.1,2.8-20.8,11.5-24.6,24
							c-4.2,13.6-4.4,27.7-4.7,41.8c-0.3,14.3-0.3,28.5-0.5,42.8C141.6,152,141.5,152.8,141.4,154z"/>
						<path class="st3" d="M271.4,153.2c-1-7.6-1.7-15-3.1-22.2c-0.8-4.3-2.4-8.6-4.3-12.6c-4.4-9-12-13.7-21.8-14.9
							c-4.4-0.5-8.9-0.6-13.3-0.7c-1.6,0-2.6-0.3-2.6-2.3c0-7.7,0-15.4,0-23.5c48.9,0,97.6,0,146.6,0c0.1,0.9,0.2,1.9,0.2,2.8
							c0,6.1,0.1,12.3,0.1,18.4c0,4.4-0.1,4-4.2,4.5c-6.3,0.8-12.9,1.5-18.8,3.6c-10.7,3.8-15.7,12.9-18,23.4
							c-1.3,5.6-1.7,11.3-2.5,17c-0.3,2-0.4,4.1-0.7,6.3C309.6,153.2,290.5,153.2,271.4,153.2z"/>
					</g>
				</g>
			</g>
			<g>
				<g>
					<g>
						<path class="st3" d="M28.6,165.4c0,28.1,0,55.7,0,83.6c4.5,0,9,0,13.8,0c0.2-3.5,0.5-7,0.7-10.5c0.4-6.3,0.6-12.7,1.2-19
							c1.3-12.3,7.5-18.5,19.9-19.5c9.9-0.8,19.8-1.1,29.7-1.1c26.1-0.1,52.2,0,78.2-0.1c3.1,0,4.3,0.9,4.4,3.9
							c0.1,4.3,0.6,8.5,0.6,12.8c0,54.7,0,109.5,0,164.2c0,8.9-0.1,17.8-3.2,26.4c-5.6,15.5-16.8,23.7-32.9,25.6
							c-3.1,0.4-6.3,0.6-9.4,1c-0.7,0.1-1.9,1-1.9,1.6c-0.2,3.8-0.1,7.7-0.1,11.7c50,0,99.7,0,149.6,0c0-4.5,0-8.9,0-13.5
							c-4.7-0.5-9.4-0.9-14.1-1.4c-17.2-1.8-28.2-12.9-31-30.1c-2.2-13.3-1.5-26.7-1.6-40c-0.1-50.9,0-101.7,0-152.6
							c0-3.4,0.2-6.7,0.5-10.1c0.1-0.7,1.2-1.3,1.9-1.8c0.3-0.2,1,0,1.5,0c61.8,0,123.6,0,185.3,0.1c6,0,12.1,0.5,18.1,1.3
							c11,1.4,17.6,9.3,18.3,21.1c0.5,10,1.2,20,1.8,30.2c3.1,0,6,0,9.1,0c0-27.9,0-55.6,0-83.5C322.2,165.4,175.5,165.4,28.6,165.4
							z"/>
						<path class="st3" d="M314.3,456.3c0,9.4,0,18.8,0,28.4c54.1,0,108.1,0,162.4,0c0-9.4,0-18.9,0-28.5c-4.8-0.3-9.5-0.4-14.2-0.9
							c-16.9-1.7-26.3-9.7-30.9-26.2c-3.5-12.5-4.2-25.4-4.2-38.3c-0.2-59.7-0.4-119.4-0.5-179c0-1.3,0-2.5,0-4.2
							c-21,0-41.8,0-62.9,0c0,17.1,0,34.3,0,51.9c-40.2,0-80,0-120,0c-0.1,1.4-0.2,2.5-0.2,3.5c0,7.3,0.1,14.7-0.1,22
							c-0.1,2.9,0.8,3.7,3.7,3.7c24.1-0.1,48.2-0.1,72.3-0.1c13.5,0,27,0.1,40.5-0.1c2.9,0,4,0.6,3.9,3.8
							c-0.1,25.2,0.1,50.4-0.1,75.6c-0.1,14.5-0.6,28.9-1.7,43.3c-0.5,7.1-2.3,14.3-4.5,21.1c-4.4,13.5-14.6,20.2-28.2,22.3
							C324.6,455.5,319.7,455.8,314.3,456.3z"/>
						<path class="st3" d="M364.2,154c21,0,41.6,0,62.6,0c0.1-1.1,0.1-2.2,0.2-3.2c0.2-17.6,0.3-35.3,0.7-52.9
							c0.3-11.7,1.4-23.3,5.2-34.5c4.5-13.3,13.7-20.8,27.5-22.3c4.3-0.5,8.7-0.5,13-0.7c1.1-0.1,2.1,0,3.6,0c0-3,0-5.7,0-8.3
							c0-6-0.1-12.1,0-18.1c0-1.9-0.6-2.8-2.6-2.6c-0.6,0.1-1.2,0-1.8,0c-51.4,0-102.7,0-154.1,0c-4.4,0-4.4,0-4.4,4.3
							c0,7.1,0.1,14.3-0.1,21.4c-0.1,2.6,0.7,3.3,3.3,3.5c5.6,0.4,11.3,0.9,16.8,2.1c13.1,2.8,20.8,11.5,24.6,24
							c4.2,13.6,4.4,27.7,4.7,41.8c0.3,14.3,0.3,28.5,0.5,42.8C364,152,364.1,152.8,364.2,154z"/>
						<path class="st3" d="M234.2,153.2c1-7.6,1.7-15,3.1-22.2c0.8-4.3,2.4-8.6,4.3-12.6c4.4-9,12-13.7,21.8-14.9
							c4.4-0.5,8.9-0.6,13.3-0.7c1.6,0,2.6-0.3,2.6-2.3c0-7.7,0-15.4,0-23.5c-48.9,0-97.6,0-146.6,0c-0.1,0.9-0.2,1.9-0.2,2.8
							c0,6.1-0.1,12.3-0.1,18.4c0,4.4,0.1,4,4.2,4.5c6.3,0.8,12.9,1.5,18.8,3.6c10.7,3.8,15.7,12.9,18,23.4c1.3,5.6,1.7,11.3,2.5,17
							c0.3,2,0.4,4.1,0.7,6.3C196,153.2,215.1,153.2,234.2,153.2z"/>
					</g>
				</g>
			</g>
		</g>
	</g>
</g>
<g id="Layer_2">
	<g>
		<path class="st4" d="M352.1,217.6c3,1.8,5.6,3.4,8.2,4.8c23.9,12.2,38.4,32,44.3,57.7c8.4,36.3,2.5,69.9-22.8,98.5
			c-15.2,17.2-34.9,27.2-56.8,33.4c-22.9,6.4-46.4,6.1-69.9,6c-35-0.1-70-0.1-104.9,0.1c-4,0-5.2-1.1-5.2-5.2
			c0.1-71.1,0.1-142.2,0.1-213.4c0-37.5-0.1-74.9,0.1-112.4c0-7.5,0.2-15.4,2.5-22.4c5.4-16.5,17.9-26.1,34.9-26.4
			c36.7-0.6,73.5-0.4,110.1,0.9c21.9,0.8,42.7,7.6,61,20.3c30,20.9,41.5,50.3,39.1,85.9c-1.9,27.9-14.2,50.4-35.9,67.8
			C355.5,214.4,354,215.8,352.1,217.6z M218.2,312.6c-0.1,0-0.3,0-0.4,0c0,12.2,0.2,24.5-0.1,36.7c-0.1,4.4,1.4,5.3,5.5,5.3
			c20.4-0.1,40.8,0.3,61.2,0c17.1-0.2,31.6-5.9,41.4-20.9c7.4-11.4,8.7-24.3,8.2-37.4c-0.9-23.6-19-43.3-42.5-45.1
			c-16.4-1.2-32.9-0.4-49.3-0.4c-14.6,0-23,7.1-23.7,21.6C217.7,285.7,218.2,299.2,218.2,312.6z M218.3,157.4c-0.1,0-0.1,0-0.2,0
			c0,10.3,0.1,20.7-0.1,31c0,2.8,0.8,3.9,3.7,3.9c20-0.2,39.9,0,59.9-0.5c8.9-0.2,17.1-3.5,23.7-9.8c13.1-12.4,16.2-28.2,14.1-45.3
			c-2.4-19.3-15.1-33.2-34.4-35.2c-15.3-1.6-30.8-1.5-46.2-0.8c-12.7,0.6-19.7,8-20.4,20.8C217.7,133.5,218.3,145.4,218.3,157.4z"/>
	</g>
</g>
<g id="Layer_6" class="st0">
	<g class="st2">
		<g>
			<path class="st3" d="M362.3,487.4c-35.1-4.7-66-15.2-94.8-31.1C157.9,395.7,76,309.7,29.6,192.2c-6.9-17.4-9.9-36.5-13.6-55
				c-1.1-5.6,0.1-12.8,3-17.7C41,81.4,69,48.3,103.2,20.7c18.4-14.8,35-8.8,44.7,6.4c20,31.3,39.3,63.3,56.5,96.2
				c12.4,23.8,9,32.6-11.2,50.3c-5.9,5.2-11.7,10.5-18.2,15c-5.5,3.8-5.5,7.7-3.3,13.3c23.1,60,64.3,102.2,123.6,127
				c5.7,2.4,9.3,1.8,13.3-3.2c7-8.6,14.7-16.7,22.4-24.7c9.3-9.6,20.5-13,33-7.1c14.7,6.9,29.7,13.7,43.6,22.1
				c19.8,12,38.9,25.3,58,38.5c16,11,25.9,28.7,7.3,49.7c-28.5,32.2-61.5,58.7-99.1,79.4C369.9,485.9,364.9,486.6,362.3,487.4z
				 M122.4,44.7c-28.8,25-52.8,52.6-73.1,83.3c-1.7,2.6-2.3,7-1.4,10c5.4,19.8,9.4,40.2,17.4,59c32,75.6,83.8,136.1,147.6,186.7
				c42.1,33.4,87.8,60.3,141.6,70.5c4.3,0.8,10.2,0.2,13.4-2.3c24.8-19.2,49.1-39,73.4-58.8c3.6-2.9,6.3-6.8,11.6-12.5
				c-32.4-19-62.9-36.7-93.2-54.7c-5-3-8-1.8-11.6,2.3c-8.8,10.1-18,19.9-27.1,29.8c-5.9,6.5-12.8,8.2-21.3,5.3
				c-82.2-27.6-136-82.7-161.9-165.4c-3-9.8-1-17.2,6.6-23.6c10-8.5,20-16.9,29.5-25.8c2.2-2,3.9-7.2,2.8-9.5
				C162.3,105.8,144.3,74.8,122.4,44.7z"/>
			<path class="st3" d="M268.4,61c0.2-10.7,0.3-20.4,0.4-30c106.1-2.8,204.8,93.3,200.2,205.6c-9.7-0.1-19.3-0.3-30.1-0.4
				c-0.9-46.6-16.2-88-49-121.9C356.9,80.3,316.2,63.2,268.4,61z"/>
			<path class="st3" d="M390.6,235.5c-10.5-0.1-20.2-0.3-29.8-0.4c-8.7-59.9-38-90.1-93.3-95.6c0.1-9.9,0.3-19.8,0.4-29.8
				C327.5,106,393.4,162.6,390.6,235.5z"/>
		</g>
	</g>
</g>
<g id="Layer_5" class="st0">
	<g class="st2">
		<g>
			<path class="st3" d="M249,419.6c-64.9-0.2-129.8-0.4-194.8-0.6c-28.7-0.1-46-17.6-45.9-46.5c0.3-82.2,0.5-164.3,0.8-246.5
				c0.1-28.2,17.7-45.8,45.8-45.7c130.2,0.4,260.3,0.8,390.5,1.3c28.1,0.1,45.6,17.8,45.5,46c-0.3,82.5-0.5,165-0.8,247.4
				c-0.1,27.6-17.9,45.3-45.3,45.2C379.4,420,314.2,419.8,249,419.6z M58.9,108.9c2.7,2.9,4.4,5,6.4,6.9
				c56.3,56.8,112.5,113.7,168.8,170.5c11.5,11.6,19.1,11.6,30.9-0.2c56.7-56.4,113.3-112.9,169.9-169.4c1.9-1.9,3.5-3.9,5.9-6.6
				C313.1,109.8,186.7,109.4,58.9,108.9z M57.9,389.9c128,0.4,254.5,0.8,380.6,1.2c-39.9-39.7-79.6-79.3-119.4-119
				c-11.2,11.1-23.2,23-35.2,34.9c-21.9,21.7-47.5,21.7-69.2-0.2c-12.1-12.2-24.1-24.3-35.6-36C138.5,310.7,98.7,349.8,57.9,389.9z
				 M38,130.5c-0.3,79.4-0.5,159-0.8,236c39.2-38.6,79.3-78.1,119.4-117.7C117.5,209.8,77.8,170.2,38,130.5z M462.1,134.1
				c-39.2,38.6-79.3,78.2-118.1,116.4c39,39,78.7,78.7,117.3,117.3C461.6,290.5,461.8,211.1,462.1,134.1z"/>
		</g>
	</g>
</g>
<g id="Layer_3" class="st0">
	<g class="st2">
		<g>
			<path class="st3" d="M11.3,489.8C21.9,451,32.4,413.6,42.1,376c1.3-5.1,0.6-11.9-1.8-16.6c-73.2-140.3,8-312.1,162.8-344.1
				c132.1-27.3,262.1,62.9,282.2,195.7c19.4,127.8-63.5,246.4-189.9,271c-52.3,10.1-102.5,2.5-150.5-20.4c-4.8-2.3-11.6-3-16.8-1.7
				c-36.1,9-71.9,18.7-107.9,28.2C17.8,488.8,15.3,489.1,11.3,489.8z M68.3,433.9c22.4-5.9,42.6-10.9,62.6-16.7
				c8.3-2.4,14.8-1.4,22.3,2.9c38.8,22.2,80.7,30.3,124.9,24.2C388,429.4,464.5,325.7,445,215.5c-14.6-82.4-64.4-137-145.1-157.8
				c-81.7-21.1-151.8,3.9-204.6,69.7c-52.4,65.3-56.2,153.5-12.3,225c3.8,6.3,4.6,11.6,2.6,18.6C79.6,391,74.4,411.2,68.3,433.9z"/>
			<path class="st3" d="M313.1,363c-29.6-2.9-56.7-13.7-81.6-29.4c-37.6-23.7-66.4-56.3-88.5-94.5c-15.7-27.3-19.6-55.6-0.4-83.5
				c8.1-11.8,18.1-18.5,33.4-17c7.7,0.8,12.4,3.3,15.2,10.2c6,14.8,12.6,29.3,18,44.3c1.4,4,0.5,9.7-1.4,13.7
				c-2.7,5.6-6.7,10.8-11.2,15.2c-6.6,6.5-5.5,12.2-0.9,19.3c19,29.8,44.5,51.7,77.2,65.3c6.1,2.5,10.7,2.3,14.9-3.1
				c5.3-6.8,11-13.3,16.2-20.2c3.9-5.2,8.2-7.4,14.5-4.3c15.8,7.7,31.9,15,47.5,23c2.5,1.3,4.8,5.6,4.9,8.6
				c0.4,15.7-4.1,29.5-17.8,39C341.2,357.8,328.2,363.3,313.1,363z"/>
		</g>
	</g>
</g>
</svg>
