<?xml version="1.0" encoding="utf-8"?>
<!-- Generator: Adobe Illustrator 22.0.0, SVG Export Plug-In . SVG Version: 6.00 Build 0)  -->
<svg version="1.1" id="Layer_1" xmlns="http://www.w3.org/2000/svg" xmlns:xlink="http://www.w3.org/1999/xlink" x="0px" y="0px"
	 viewBox="0 0 500 303" style="enable-background:new 0 0 500 303;" xml:space="preserve">
<style type="text/css">
	.st0{display:none;}
	.st1{display:inline;}
	.st2{fill:#333435;}
	.st3{fill:#DA9629;}
</style>
<g id="Layer_1_2_" class="st0">
	<g id="Layer_1_1_" class="st1">
		<g>
			<g>
				<g>
					<g>
						<g>
							<path class="st2" d="M477,97.4c0,28.1,0,55.7,0,83.6c-4.5,0-9,0-13.8,0c-0.2-3.5-0.5-7-0.7-10.5c-0.4-6.3-0.6-12.7-1.2-19
								c-1.3-12.3-7.5-18.5-19.9-19.5c-9.9-0.8-19.8-1.1-29.7-1.1c-26.1-0.1-52.2,0-78.2-0.1c-3.1,0-4.3,0.9-4.4,3.9
								c-0.1,4.3-0.6,8.5-0.6,12.8c0,54.7,0,109.5,0,164.2c0,8.9,0.1,17.8,3.2,26.4c5.6,15.5,16.8,23.7,32.9,25.6
								c3.1,0.4,6.3,0.6,9.4,1c0.7,0.1,1.9,1,1.9,1.6c0.2,3.8,0.1,7.7,0.1,11.7c-50,0-99.7,0-149.6,0c0-4.5,0-8.9,0-13.5
								c4.7-0.5,9.4-0.9,14.1-1.4c17.2-1.8,28.2-12.9,31-30.1c2.2-13.3,1.5-26.7,1.6-40c0.1-50.9,0-101.7,0-152.6
								c0-3.4-0.2-6.7-0.5-10.1c-0.1-0.7-1.2-1.3-1.9-1.8c-0.3-0.2-1,0-1.5,0c-61.8,0-123.6,0-185.3,0.1c-6,0-12.1,0.5-18.1,1.3
								c-11,1.4-17.6,9.3-18.3,21.1c-0.5,10-1.2,20-1.8,30.2c-3.1,0-6,0-9.1,0c0-27.9,0-55.6,0-83.5C183.4,97.4,330.1,97.4,477,97.4
								z"/>
							<path class="st2" d="M191.3,388.3c0,9.4,0,18.8,0,28.4c-54.1,0-108.1,0-162.4,0c0-9.4,0-18.9,0-28.5
								c4.8-0.3,9.5-0.4,14.2-0.9c16.9-1.7,26.3-9.7,30.9-26.2c3.5-12.5,4.2-25.4,4.2-38.3c0.2-59.7,0.4-119.4,0.5-179
								c0-1.3,0-2.5,0-4.2c21,0,41.8,0,62.9,0c0,17.1,0,34.3,0,51.9c40.2,0,80,0,120,0c0.1,1.4,0.2,2.5,0.2,3.5
								c0,7.3-0.1,14.7,0.1,22c0.1,2.9-0.8,3.7-3.7,3.7c-24.1-0.1-48.2-0.1-72.3-0.1c-13.5,0-27,0.1-40.5-0.1c-2.9,0-4,0.6-3.9,3.8
								c0.1,25.2-0.1,50.4,0.1,75.6c0.1,14.5,0.6,28.9,1.7,43.3c0.5,7.1,2.3,14.3,4.5,21.1c4.4,13.5,14.6,20.2,28.2,22.3
								C181,387.5,186,387.8,191.3,388.3z"/>
							<path class="st2" d="M141.4,86c-21,0-41.6,0-62.6,0c-0.1-1.1-0.1-2.2-0.2-3.2c-0.2-17.6-0.3-35.3-0.7-52.9
								c-0.3-11.7-1.4-23.3-5.2-34.5C68.3-18,59.1-25.4,45.2-27c-4.3-0.5-8.7-0.5-13-0.7c-1.1-0.1-2.1,0-3.6,0c0-3,0-5.7,0-8.3
								c0-6,0.1-12.1,0-18.1c0-1.9,0.6-2.8,2.6-2.6c0.6,0.1,1.2,0,1.8,0c51.4,0,102.7,0,154.1,0c4.4,0,4.4,0,4.4,4.3
								c0,7.1-0.1,14.3,0.1,21.4c0.1,2.6-0.7,3.3-3.3,3.5c-5.6,0.4-11.3,0.9-16.8,2.1c-13.1,2.8-20.8,11.5-24.6,24
								c-4.2,13.6-4.4,27.7-4.7,41.8c-0.3,14.3-0.3,28.5-0.5,42.8C141.6,84,141.5,84.8,141.4,86z"/>
							<path class="st2" d="M271.4,85.2c-1-7.6-1.7-15-3.1-22.2c-0.8-4.3-2.4-8.6-4.3-12.6c-4.4-9-12-13.7-21.8-14.9
								c-4.4-0.5-8.9-0.6-13.3-0.7c-1.6,0-2.6-0.3-2.6-2.3c0-7.7,0-15.4,0-23.5c48.9,0,97.6,0,146.6,0c0.1,0.9,0.2,1.9,0.2,2.8
								c0,6.1,0.1,12.3,0.1,18.4c0,4.4-0.1,4-4.2,4.5c-6.3,0.8-12.9,1.5-18.8,3.6c-10.7,3.8-15.7,12.9-18,23.4
								c-1.3,5.6-1.7,11.3-2.5,17c-0.3,2-0.4,4.1-0.7,6.3C309.6,85.2,290.5,85.2,271.4,85.2z"/>
						</g>
					</g>
				</g>
				<g>
					<g>
						<g>
							<path class="st2" d="M28.6,97.4c0,28.1,0,55.7,0,83.6c4.5,0,9,0,13.8,0c0.2-3.5,0.5-7,0.7-10.5c0.4-6.3,0.6-12.7,1.2-19
								c1.3-12.3,7.5-18.5,19.9-19.5c9.9-0.8,19.8-1.1,29.7-1.1c26.1-0.1,52.2,0,78.2-0.1c3.1,0,4.3,0.9,4.4,3.9
								c0.1,4.3,0.6,8.5,0.6,12.8c0,54.7,0,109.5,0,164.2c0,8.9-0.1,17.8-3.2,26.4c-5.6,15.5-16.8,23.7-32.9,25.6
								c-3.1,0.4-6.3,0.6-9.4,1c-0.7,0.1-1.9,1-1.9,1.6c-0.2,3.8-0.1,7.7-0.1,11.7c50,0,99.7,0,149.6,0c0-4.5,0-8.9,0-13.5
								c-4.7-0.5-9.4-0.9-14.1-1.4c-17.2-1.8-28.2-12.9-31-30.1c-2.2-13.3-1.5-26.7-1.6-40c-0.1-50.9,0-101.7,0-152.6
								c0-3.4,0.2-6.7,0.5-10.1c0.1-0.7,1.2-1.3,1.9-1.8c0.3-0.2,1,0,1.5,0c61.8,0,123.6,0,185.3,0.1c6,0,12.1,0.5,18.1,1.3
								c11,1.4,17.6,9.3,18.3,21.1c0.5,10,1.2,20,1.8,30.2c3.1,0,6,0,9.1,0c0-27.9,0-55.6,0-83.5C322.2,97.4,175.5,97.4,28.6,97.4z"
								/>
							<path class="st2" d="M314.3,388.3c0,9.4,0,18.8,0,28.4c54.1,0,108.1,0,162.4,0c0-9.4,0-18.9,0-28.5
								c-4.8-0.3-9.5-0.4-14.2-0.9c-16.9-1.7-26.3-9.7-30.9-26.2c-3.5-12.5-4.2-25.4-4.2-38.3c-0.2-59.7-0.4-119.4-0.5-179
								c0-1.3,0-2.5,0-4.2c-21,0-41.8,0-62.9,0c0,17.1,0,34.3,0,51.9c-40.2,0-80,0-120,0c-0.1,1.4-0.2,2.5-0.2,3.5
								c0,7.3,0.1,14.7-0.1,22c-0.1,2.9,0.8,3.7,3.7,3.7c24.1-0.1,48.2-0.1,72.3-0.1c13.5,0,27,0.1,40.5-0.1c2.9,0,4,0.6,3.9,3.8
								c-0.1,25.2,0.1,50.4-0.1,75.6c-0.1,14.5-0.6,28.9-1.7,43.3c-0.5,7.1-2.3,14.3-4.5,21.1c-4.4,13.5-14.6,20.2-28.2,22.3
								C324.6,387.5,319.7,387.8,314.3,388.3z"/>
							<path class="st2" d="M364.2,86c21,0,41.6,0,62.6,0c0.1-1.1,0.1-2.2,0.2-3.2c0.2-17.6,0.3-35.3,0.7-52.9
								c0.3-11.7,1.4-23.3,5.2-34.5c4.5-13.3,13.7-20.8,27.5-22.3c4.3-0.5,8.7-0.5,13-0.7c1.1-0.1,2.1,0,3.6,0c0-3,0-5.7,0-8.3
								c0-6-0.1-12.1,0-18.1c0-1.9-0.6-2.8-2.6-2.6c-0.6,0.1-1.2,0-1.8,0c-51.4,0-102.7,0-154.1,0c-4.4,0-4.4,0-4.4,4.3
								c0,7.1,0.1,14.3-0.1,21.4c-0.1,2.6,0.7,3.3,3.3,3.5c5.6,0.4,11.3,0.9,16.8,2.1c13.1,2.8,20.8,11.5,24.6,24
								c4.2,13.6,4.4,27.7,4.7,41.8c0.3,14.3,0.3,28.5,0.5,42.8C364,84,364.1,84.8,364.2,86z"/>
							<path class="st2" d="M234.2,85.2c1-7.6,1.7-15,3.1-22.2c0.8-4.3,2.4-8.6,4.3-12.6c4.4-9,12-13.7,21.8-14.9
								c4.4-0.5,8.9-0.6,13.3-0.7c1.6,0,2.6-0.3,2.6-2.3c0-7.7,0-15.4,0-23.5c-48.9,0-97.6,0-146.6,0c-0.1,0.9-0.2,1.9-0.2,2.8
								c0,6.1-0.1,12.3-0.1,18.4c0,4.4,0.1,4,4.2,4.5c6.3,0.8,12.9,1.5,18.8,3.6c10.7,3.8,15.7,12.9,18,23.4
								c1.3,5.6,1.7,11.3,2.5,17c0.3,2,0.4,4.1,0.7,6.3C196,85.2,215.1,85.2,234.2,85.2z"/>
						</g>
					</g>
				</g>
			</g>
		</g>
	</g>
	<g id="Layer_3" class="st1">
		<g>
			<path class="st3" d="M69.3,311.5c-9.2,0-17.2,0-25.6,0c0-88.7,0-177.1,0-265.7c8.4,0,16.5,0,25.4,0c0,45.7,0,90.9,0,136.9
				c123.5,0,246.2,0,369.4,0c0,43.2,0,85.6,0,128.5c-8.1,0-16.2,0-25.1,0c0-22.2,0-44.5,0-67.4c-115,0-229.1,0-344.1,0
				C69.3,266.1,69.3,288.3,69.3,311.5z"/>
			<path class="st3" d="M421.8,173.9c-86.4,0-171.6,0-258.9,0c1-17.7,1-35.3,3.2-52.7c1.2-9,9.3-13.9,18.4-15.3
				c3.5-0.6,7.2-0.5,10.8-0.5c64.9,0,129.7,0,194.6,0c23.1,0,31.8,8.6,31.9,31.6C421.8,149,421.8,161,421.8,173.9z"/>
			<path class="st3" d="M111.8,103.9c19.7-0.1,36,15.7,36.3,35.4c0.4,19.8-16.1,36.4-36.2,36.4C92.2,175.6,76,159.5,76,139.9
				C76,120.2,92.1,104,111.8,103.9z"/>
		</g>
	</g>
</g>
<g>
	<g id="Layer_2_2_">
		<g>
			<path class="st3" d="M219.9,276.2c0,5.7-0.1,10.8,0,15.8c0.1,5.3-1.9,8-7.6,7.8c-6.6-0.3-13.1-0.3-19.7,0
				c-5.5,0.2-7.9-1.9-7.7-7.5c0.2-5.2,0.1-10.5,0.1-16.1c-10.4,0-19.9,0-30.9,0c0,5.3-0.2,10.7,0,16.1c0.2,5.5-2.2,7.7-7.7,7.5
				c-6.6-0.3-13.1-0.3-19.7,0c-5.7,0.3-7.7-2.5-7.5-7.8c0.1-5,0-10,0-15.7c-20.9,0-41.1,0-62.6,0c0,5.4-0.2,10.8,0,16.3
				c0.2,5.2-2,7.3-7.2,7.2c-7.1-0.2-14.1-0.1-21.2,0c-4.4,0-6.5-2-6.5-6.4c0-5.5,0-11,0-17.6c-5,0-9.5,0.6-13.8-0.2
				c-2.2-0.4-5.6-3.2-5.7-5c-0.4-12.1-1.6-24.5,0.6-36.2c1.8-9.4,8.2-18,12.4-27c1.4-3,3.4-6.2,3.5-9.3c0.4-12.1,0-24.2,0.2-36.3
				c0.3-22.1,14.6-36.4,36.7-36.6c21.7-0.2,43.4-0.2,65.1,0s35.7,14.6,35.9,36.4c0.1,10.9,0.3,21.7-0.1,32.6
				c-0.2,6.1,0.7,11.2,5.6,15.5c2.9,2.6,4.7,6.4,6.9,9.5c3.7-4.5,7.5-8.9,10.8-13.6c1.3-1.9,2-4.5,2-6.9c0.2-12.6,0-25.2,0.1-37.9
				c0.2-20.8,14.4-35.3,35.2-35.5c22.5-0.3,44.9-0.3,67.4,0c20.3,0.3,34.5,14.7,35.1,35.1c0.3,12.1-0.3,24.2,0.3,36.3
				c0.2,3.8,1.8,8.2,4.2,11.2c7.8,9.8,12.6,20.6,12.6,33.3c0,8.8-0.3,17.7,0.1,26.5c0.3,6.3-2.1,8.9-8.3,8.3
				c-3.5-0.3-7-0.1-11.6-0.1c0,6-0.1,11.4,0,16.9c0.2,5.2-2.2,7.3-7.3,7.2c-7.1-0.2-14.1-0.1-21.2,0c-4.4,0.1-6.5-1.9-6.4-6.4
				c0.1-5.5,0-11,0-17.1C261.6,276.2,241.3,276.2,219.9,276.2z M175.3,244.1c50.7,0,101.5,0,152.2,0c1.9-24.5-16.2-43.5-41.8-43.9
				c-20.7-0.3-41.4-0.1-62,0c-5.5,0-11.1,0.1-16.6,1C186.8,204.7,171.6,225.3,175.3,244.1z M12,244.2c0.9,0.2,1.8,0.5,2.8,0.5
				c48.2,0,96.4,0,144.5,0.1c5,0,5.8-2.1,5.6-6.4c-1.3-21.4-18.4-37.4-41.4-38.1c-11.1-0.3-22.2-0.2-33.3-0.1
				c-14.9,0.2-29.8-0.5-44.6,1C24.6,203.4,9.2,223.9,12,244.2z M311,196.5c0-3.3,0-5.8,0-8.3c0-9.8,0.4-19.7-0.2-29.5
				c-0.8-13.6-10.5-24.1-23.4-24.4c-24.2-0.5-48.5-0.5-72.7,0c-12.4,0.3-22.5,10.7-23,23c-0.5,12.8-0.1,25.7-0.1,39.1
				c5.6-1.8,10.8-3.5,15.8-5.1c3.9-26.2,15.4-36.2,41.6-36.2c4.8,0,9.6-0.1,14.4,0.4c14.6,1.4,26.4,11.7,29.9,26
				c0.8,3.4,1.3,6.9,1.9,10C300.2,193,305,194.6,311,196.5z M44.3,191.3c3.5-25.9,15.6-36.4,41.6-36.4c3,0,6.1-0.1,9.1,0
				c20.7,0.6,33.2,11.9,36.4,32.3c0.3,1.8,1.7,4.1,3.3,4.8c4,1.8,8.4,2.8,13.1,4.2c0-13.4,0.4-26.3-0.1-39.1
				c-0.5-12.3-10.7-22.6-23.1-22.8c-24.2-0.5-48.5-0.5-72.7,0c-10.9,0.2-19.8,6.8-21.5,17.1c-2.4,14.6-1.8,29.7-2.5,45.3
				C34.3,194.6,39.1,193,44.3,191.3z M164.7,254.4c-51.6,0-102.3,0-153,0c0,4.2,0,7.9,0,11.6c51.2,0,102,0,153,0
				C164.7,262,164.7,258.5,164.7,254.4z M174.5,266.1c51.4,0,102.1,0,153,0c0-4.2,0-7.8,0-11.7c-51.2,0-101.9,0-153,0
				C174.5,258.3,174.5,261.8,174.5,266.1z M54.2,190.6c22.8,0,45.1,0,67.3,0c0.9-13-7.7-24.2-20.4-25.8c-7.4-0.9-15.1-0.9-22.6-0.4
				C64,165.2,54.9,175,54.2,190.6z M217.7,190.5c22.4,0,44.9,0,67.4,0c-0.6-15.3-9.9-25.4-24.3-26.1c-7.3-0.4-14.6-0.4-21.8,0.3
				C225.8,166,216.8,177.2,217.7,190.5z M31.5,289.9c5.8,0,10.9,0,15.6,0c0-5,0-9.4,0-13.9c-5.5,0-10.3,0-15.6,0
				C31.5,280.9,31.5,285.2,31.5,289.9z M291.9,290.2c5.7,0,10.6,0,15.7,0c0-5,0-9.5,0-14.1c-5.5,0-10.4,0-15.7,0
				C291.9,280.9,291.9,285.3,291.9,290.2z M129,290.1c5.7,0,10.6,0,15.6,0c0-4.9,0-9.2,0-14c-5.4,0-10.2,0-15.6,0
				C129,280.9,129,285.2,129,290.1z M210.3,290.4c0-5.2,0-9.5,0-14.3c-5.4,0-10.3,0-15.5,0c0,5,0,9.5,0,14.3
				C200.1,290.4,204.9,290.4,210.3,290.4z"/>
		</g>
		<g>
			<path class="st3" d="M500.1,249.8c-0.1-0.2-0.2-0.5-0.2-0.8c0.4-5.8-0.1-11.8,0.2-17.6c-0.1-0.3-0.2-0.5-0.1-0.9
				c0.1-0.6,0.1-1.2,0.2-1.8c-0.1-1.3-0.2-2.7-0.3-4c-0.1-3.1,0-6.2,0-9.4c0-0.2,0-0.3,0.1-0.4c0-0.6,0-1.3,0-1.9
				c-1.6,1.9-3.2,3.9-4.8,5.8c-2.2-3.1-4-6.9-6.9-9.5c-4.9-4.3-5.8-9.4-5.6-15.5c0.3-10.8,0.2-21.7,0.1-32.6
				c-0.2-21.8-14.2-36.2-35.9-36.4c-21.7-0.2-43.4-0.2-65.1,0c-22.1,0.2-36.4,14.5-36.7,36.6c-0.2,12.1,0.2,24.2-0.2,36.3
				c-0.1,3.1-2.1,6.3-3.5,9.3c-4.2,9-10.6,17.5-12.4,27c-2.2,11.7-1,24.1-0.6,36.2c0.1,1.8,3.5,4.6,5.7,5c4.3,0.8,8.9,0.2,13.8,0.2
				c0,6.6,0,12.1,0,17.6c0,4.4,2.1,6.5,6.5,6.4c7.1-0.1,14.1-0.2,21.2,0c5.2,0.1,7.4-2,7.2-7.2c-0.2-5.4,0-10.9,0-16.3h62.6
				c0,5.6,0.1,10.7,0,15.7c-0.1,5.3,1.8,8,7.5,7.8c6.6-0.3,13.1-0.3,19.7,0c5.5,0.2,7.9-1.9,7.7-7.5c-0.2-5.4,0-10.8,0-16.1h19.9
				C500.4,267.4,499.9,258.6,500.1,249.8z M356,151.4c1.7-10.3,10.6-16.9,21.5-17.1c24.2-0.5,48.5-0.5,72.7,0
				c12.4,0.2,22.6,10.5,23.1,22.8c0.5,12.8,0.1,25.7,0.1,39.1c-4.7-1.4-9.1-2.4-13.1-4.2c-1.5-0.7-3-3-3.3-4.8
				c-3.1-20.4-15.7-31.7-36.4-32.3c-3-0.1-6.1,0-9.1,0c-26,0.1-38.1,10.5-41.6,36.4c-5.2,1.7-9.9,3.2-16.6,5.4
				C354.2,181.1,353.6,166,356,151.4z M447.3,190.6H380c0.8-15.6,9.8-25.4,24.4-26.2c7.5-0.4,15.1-0.5,22.6,0.4
				C439.6,166.3,448.2,177.5,447.3,190.6z M372.9,289.9h-15.6V276h15.6V289.9z M470.4,290.1h-15.6v-14h15.6V290.1z M490.5,266h-153
				v-11.6h153V266z M485.1,244.8c-48.2-0.1-96.4-0.1-144.5-0.1c-1,0-1.9-0.3-2.8-0.5c-2.8-20.3,12.6-40.7,33.6-42.9
				c14.7-1.6,29.7-0.8,44.6-1c11.1-0.1,22.2-0.3,33.3,0.1c23,0.7,40.1,16.7,41.4,38.1C491,242.7,490.1,244.8,485.1,244.8z"/>
		</g>
	</g>
	<g>
		<path class="st3" d="M185.9,75.8c-3.1,18.8-7.8,25-19,25.1c-11.2,0-16.1-6.4-19-24.8c-13.4-2.2-13.3-2.2-10.7-15.7
			c2.3-11.8,4.7-23.7,6.7-35.6c1-6.1,3.9-8.9,10.4-8.6c8.6,0.5,17.3,0.3,25.9,0.1c5.1-0.1,8.2,1.5,9.1,6.8
			c2.6,14.7,5.5,29.4,8.2,44.1C199.6,78,190.3,73.9,185.9,75.8z M179.4,27.1c-8.6,0-16.5,0-25.1,0c-2.4,12.4-4.7,24.6-7,36.9
			c13.5,0,26.2,0,39.3,0C184,51.3,181.7,39.3,179.4,27.1z M157.3,75.6c2.3,5.6,3.5,10,6.1,13.6c0.9,1.2,6.6,1,7.4-0.3
			c2.3-3.6,3.2-8.1,5-13.3C169.2,75.6,164.7,75.6,157.3,75.6z"/>
	</g>
	<g>
		<path class="st3" d="M350.5,75.8c-3.1,18.8-7.8,25-19,25.1c-11.2,0-16.1-6.4-19-24.8c-13.4-2.2-13.3-2.2-10.7-15.7
			c2.3-11.8,4.7-23.7,6.7-35.6c1-6.1,3.9-8.9,10.4-8.6c8.6,0.5,17.3,0.3,25.9,0.1c5.1-0.1,8.2,1.5,9.1,6.8
			c2.6,14.7,5.5,29.4,8.2,44.1C364.2,78,355,73.9,350.5,75.8z M344,27.1c-8.6,0-16.5,0-25.1,0c-2.4,12.4-4.7,24.6-7,36.9
			c13.5,0,26.2,0,39.3,0C348.7,51.3,346.4,39.3,344,27.1z M321.9,75.6c2.3,5.6,3.5,10,6.1,13.6c0.9,1.2,6.6,1,7.4-0.3
			c2.3-3.6,3.2-8.1,5-13.3C333.8,75.6,329.4,75.6,321.9,75.6z"/>
	</g>
</g>
</svg>
