<?xml version="1.0" encoding="utf-8"?>
<!-- Generator: Adobe Illustrator 22.0.0, SVG Export Plug-In . SVG Version: 6.00 Build 0)  -->
<svg version="1.1" id="Layer_1" xmlns="http://www.w3.org/2000/svg" xmlns:xlink="http://www.w3.org/1999/xlink" x="0px" y="0px"
	 viewBox="0 0 500 409" style="enable-background:new 0 0 500 409;" xml:space="preserve">
<style type="text/css">
	.st0{display:none;}
	.st1{display:inline;}
	.st2{fill:#333435;}
	.st3{fill:#DA9629;}
</style>
<g id="Layer_1_2_" class="st0">
	<g id="Layer_1_1_" class="st1">
		<g>
			<g>
				<g>
					<g>
						<g>
							<path class="st2" d="M477,113.4c0,28.1,0,55.7,0,83.6c-4.5,0-9,0-13.8,0c-0.2-3.5-0.5-7-0.7-10.5c-0.4-6.3-0.6-12.7-1.2-19
								c-1.3-12.3-7.5-18.5-19.9-19.5c-9.9-0.8-19.8-1.1-29.7-1.1c-26.1-0.1-52.2,0-78.2-0.1c-3.1,0-4.3,0.9-4.4,3.9
								c-0.1,4.3-0.6,8.5-0.6,12.8c0,54.7,0,109.5,0,164.2c0,8.9,0.1,17.8,3.2,26.4c5.6,15.5,16.8,23.7,32.9,25.6
								c3.1,0.4,6.3,0.6,9.4,1c0.7,0.1,1.9,1,1.9,1.6c0.2,3.8,0.1,7.7,0.1,11.7c-50,0-99.7,0-149.6,0c0-4.5,0-8.9,0-13.5
								c4.7-0.5,9.4-0.9,14.1-1.4c17.2-1.8,28.2-12.9,31-30.1c2.2-13.3,1.5-26.7,1.6-40c0.1-50.9,0-101.7,0-152.6
								c0-3.4-0.2-6.7-0.5-10.1c-0.1-0.7-1.2-1.3-1.9-1.8c-0.3-0.2-1,0-1.5,0c-61.8,0-123.6,0-185.3,0.1c-6,0-12.1,0.5-18.1,1.3
								c-11,1.4-17.6,9.3-18.3,21.1c-0.5,10-1.2,20-1.8,30.2c-3.1,0-6,0-9.1,0c0-27.9,0-55.6,0-83.5
								C183.4,113.4,330.1,113.4,477,113.4z"/>
							<path class="st2" d="M191.3,404.3c0,9.4,0,18.8,0,28.4c-54.1,0-108.1,0-162.4,0c0-9.4,0-18.9,0-28.5
								c4.8-0.3,9.5-0.4,14.2-0.9c16.9-1.7,26.3-9.7,30.9-26.2c3.5-12.5,4.2-25.4,4.2-38.3c0.2-59.7,0.4-119.4,0.5-179
								c0-1.3,0-2.5,0-4.2c21,0,41.8,0,62.9,0c0,17.1,0,34.3,0,51.9c40.2,0,80,0,120,0c0.1,1.4,0.2,2.5,0.2,3.5
								c0,7.3-0.1,14.7,0.1,22c0.1,2.9-0.8,3.7-3.7,3.7c-24.1-0.1-48.2-0.1-72.3-0.1c-13.5,0-27,0.1-40.5-0.1c-2.9,0-4,0.6-3.9,3.8
								c0.1,25.2-0.1,50.4,0.1,75.6c0.1,14.5,0.6,28.9,1.7,43.3c0.5,7.1,2.3,14.3,4.5,21.1c4.4,13.5,14.6,20.2,28.2,22.3
								C181,403.5,186,403.8,191.3,404.3z"/>
							<path class="st2" d="M141.4,102c-21,0-41.6,0-62.6,0c-0.1-1.1-0.1-2.2-0.2-3.2c-0.2-17.6-0.3-35.3-0.7-52.9
								c-0.3-11.7-1.4-23.3-5.2-34.5C68.3-2,59.1-9.4,45.2-11c-4.3-0.5-8.7-0.5-13-0.7c-1.1-0.1-2.1,0-3.6,0c0-3,0-5.7,0-8.3
								c0-6,0.1-12.1,0-18.1c0-1.9,0.6-2.8,2.6-2.6c0.6,0.1,1.2,0,1.8,0c51.4,0,102.7,0,154.1,0c4.4,0,4.4,0,4.4,4.3
								c0,7.1-0.1,14.3,0.1,21.4c0.1,2.6-0.7,3.3-3.3,3.5c-5.6,0.4-11.3,0.9-16.8,2.1c-13.1,2.8-20.8,11.5-24.6,24
								c-4.2,13.6-4.4,27.7-4.7,41.8c-0.3,14.3-0.3,28.5-0.5,42.8C141.6,100,141.5,100.8,141.4,102z"/>
							<path class="st2" d="M271.4,101.2c-1-7.6-1.7-15-3.1-22.2c-0.8-4.3-2.4-8.6-4.3-12.6c-4.4-9-12-13.7-21.8-14.9
								c-4.4-0.5-8.9-0.6-13.3-0.7c-1.6,0-2.6-0.3-2.6-2.3c0-7.7,0-15.4,0-23.5c48.9,0,97.6,0,146.6,0c0.1,0.9,0.2,1.9,0.2,2.8
								c0,6.1,0.1,12.3,0.1,18.4c0,4.4-0.1,4-4.2,4.5c-6.3,0.8-12.9,1.5-18.8,3.6c-10.7,3.8-15.7,12.9-18,23.4
								c-1.3,5.6-1.7,11.3-2.5,17c-0.3,2-0.4,4.1-0.7,6.3C309.6,101.2,290.5,101.2,271.4,101.2z"/>
						</g>
					</g>
				</g>
				<g>
					<g>
						<g>
							<path class="st2" d="M28.6,113.4c0,28.1,0,55.7,0,83.6c4.5,0,9,0,13.8,0c0.2-3.5,0.5-7,0.7-10.5c0.4-6.3,0.6-12.7,1.2-19
								c1.3-12.3,7.5-18.5,19.9-19.5c9.9-0.8,19.8-1.1,29.7-1.1c26.1-0.1,52.2,0,78.2-0.1c3.1,0,4.3,0.9,4.4,3.9
								c0.1,4.3,0.6,8.5,0.6,12.8c0,54.7,0,109.5,0,164.2c0,8.9-0.1,17.8-3.2,26.4c-5.6,15.5-16.8,23.7-32.9,25.6
								c-3.1,0.4-6.3,0.6-9.4,1c-0.7,0.1-1.9,1-1.9,1.6c-0.2,3.8-0.1,7.7-0.1,11.7c50,0,99.7,0,149.6,0c0-4.5,0-8.9,0-13.5
								c-4.7-0.5-9.4-0.9-14.1-1.4c-17.2-1.8-28.2-12.9-31-30.1c-2.2-13.3-1.5-26.7-1.6-40c-0.1-50.9,0-101.7,0-152.6
								c0-3.4,0.2-6.7,0.5-10.1c0.1-0.7,1.2-1.3,1.9-1.8c0.3-0.2,1,0,1.5,0c61.8,0,123.6,0,185.3,0.1c6,0,12.1,0.5,18.1,1.3
								c11,1.4,17.6,9.3,18.3,21.1c0.5,10,1.2,20,1.8,30.2c3.1,0,6,0,9.1,0c0-27.9,0-55.6,0-83.5
								C322.2,113.4,175.5,113.4,28.6,113.4z"/>
							<path class="st2" d="M314.3,404.3c0,9.4,0,18.8,0,28.4c54.1,0,108.1,0,162.4,0c0-9.4,0-18.9,0-28.5
								c-4.8-0.3-9.5-0.4-14.2-0.9c-16.9-1.7-26.3-9.7-30.9-26.2c-3.5-12.5-4.2-25.4-4.2-38.3c-0.2-59.7-0.4-119.4-0.5-179
								c0-1.3,0-2.5,0-4.2c-21,0-41.8,0-62.9,0c0,17.1,0,34.3,0,51.9c-40.2,0-80,0-120,0c-0.1,1.4-0.2,2.5-0.2,3.5
								c0,7.3,0.1,14.7-0.1,22c-0.1,2.9,0.8,3.7,3.7,3.7c24.1-0.1,48.2-0.1,72.3-0.1c13.5,0,27,0.1,40.5-0.1c2.9,0,4,0.6,3.9,3.8
								c-0.1,25.2,0.1,50.4-0.1,75.6c-0.1,14.5-0.6,28.9-1.7,43.3c-0.5,7.1-2.3,14.3-4.5,21.1c-4.4,13.5-14.6,20.2-28.2,22.3
								C324.6,403.5,319.7,403.8,314.3,404.3z"/>
							<path class="st2" d="M364.2,102c21,0,41.6,0,62.6,0c0.1-1.1,0.1-2.2,0.2-3.2c0.2-17.6,0.3-35.3,0.7-52.9
								c0.3-11.7,1.4-23.3,5.2-34.5c4.5-13.3,13.7-20.8,27.5-22.3c4.3-0.5,8.7-0.5,13-0.7c1.1-0.1,2.1,0,3.6,0c0-3,0-5.7,0-8.3
								c0-6-0.1-12.1,0-18.1c0-1.9-0.6-2.8-2.6-2.6c-0.6,0.1-1.2,0-1.8,0c-51.4,0-102.7,0-154.1,0c-4.4,0-4.4,0-4.4,4.3
								c0,7.1,0.1,14.3-0.1,21.4c-0.1,2.6,0.7,3.3,3.3,3.5c5.6,0.4,11.3,0.9,16.8,2.1c13.1,2.8,20.8,11.5,24.6,24
								c4.2,13.6,4.4,27.7,4.7,41.8c0.3,14.3,0.3,28.5,0.5,42.8C364,100,364.1,100.8,364.2,102z"/>
							<path class="st2" d="M234.2,101.2c1-7.6,1.7-15,3.1-22.2c0.8-4.3,2.4-8.6,4.3-12.6c4.4-9,12-13.7,21.8-14.9
								c4.4-0.5,8.9-0.6,13.3-0.7c1.6,0,2.6-0.3,2.6-2.3c0-7.7,0-15.4,0-23.5c-48.9,0-97.6,0-146.6,0c-0.1,0.9-0.2,1.9-0.2,2.8
								c0,6.1-0.1,12.3-0.1,18.4c0,4.4,0.1,4,4.2,4.5c6.3,0.8,12.9,1.5,18.8,3.6c10.7,3.8,15.7,12.9,18,23.4
								c1.3,5.6,1.7,11.3,2.5,17c0.3,2,0.4,4.1,0.7,6.3C196,101.2,215.1,101.2,234.2,101.2z"/>
						</g>
					</g>
				</g>
			</g>
		</g>
	</g>
	<g id="Layer_3" class="st1">
		<g>
			<path class="st3" d="M69.3,327.5c-9.2,0-17.2,0-25.6,0c0-88.7,0-177.1,0-265.7c8.4,0,16.5,0,25.4,0c0,45.7,0,90.9,0,136.9
				c123.5,0,246.2,0,369.4,0c0,43.2,0,85.6,0,128.5c-8.1,0-16.2,0-25.1,0c0-22.2,0-44.5,0-67.4c-115,0-229.1,0-344.1,0
				C69.3,282.1,69.3,304.3,69.3,327.5z"/>
			<path class="st3" d="M421.8,189.9c-86.4,0-171.6,0-258.9,0c1-17.7,1-35.3,3.2-52.7c1.2-9,9.3-13.9,18.4-15.3
				c3.5-0.6,7.2-0.5,10.8-0.5c64.9,0,129.7,0,194.6,0c23.1,0,31.8,8.6,31.9,31.6C421.8,165,421.8,177,421.8,189.9z"/>
			<path class="st3" d="M111.8,119.9c19.7-0.1,36,15.7,36.3,35.4c0.4,19.8-16.1,36.4-36.2,36.4C92.2,191.6,76,175.5,76,155.9
				C76,136.2,92.1,120,111.8,119.9z"/>
		</g>
	</g>
</g>
<g id="Layer_2_2_">
	<g>
		<path class="st3" d="M326.1,365.3c0,8.5-0.2,15.9,0,23.4c0.2,7.8-2.8,11.9-11.2,11.5c-9.7-0.4-19.5-0.4-29.2,0
			c-8.1,0.3-11.8-2.8-11.4-11.1c0.4-7.7,0.1-15.5,0.1-23.9c-15.4,0-29.5,0-45.7,0c0,7.9-0.2,15.9,0.1,23.9
			c0.3,8.2-3.2,11.5-11.4,11.1c-9.7-0.4-19.5-0.4-29.2,0c-8.5,0.4-11.4-3.7-11.2-11.5c0.2-7.4,0-14.9,0-23.3c-30.9,0-61,0-92.7,0
			c0,7.9-0.2,16,0.1,24.1c0.3,7.7-3,10.9-10.7,10.6c-10.5-0.3-21-0.2-31.4-0.1c-6.5,0.1-9.7-3-9.6-9.5c0-8.2,0-16.4,0-26.1
			c-7.4,0-14.1,0.8-20.5-0.3c-3.3-0.6-8.3-4.8-8.4-7.5c-0.6-17.9-2.4-36.4,0.9-53.7c2.7-14,12.1-26.7,18.4-40
			c2.1-4.5,5.1-9.1,5.2-13.8c0.6-17.9,0-35.9,0.3-53.9c0.5-32.8,21.6-54,54.4-54.2c32.2-0.3,64.4-0.3,96.6,0s52.9,21.6,53.2,53.9
			c0.1,16.1,0.4,32.2-0.1,48.3c-0.3,9,1.1,16.5,8.4,22.9c4.3,3.8,7,9.5,10.3,14.1c5.4-6.7,11.1-13.2,16-20.1
			c1.9-2.8,2.9-6.7,2.9-10.2c0.3-18.7,0-37.4,0.2-56.1c0.3-30.8,21.3-52.3,52.2-52.7c33.3-0.4,66.6-0.5,99.9,0
			c30,0.4,51.2,21.7,52,52c0.5,18-0.4,35.9,0.4,53.9c0.2,5.7,2.6,12.2,6.2,16.7c11.6,14.6,18.6,30.5,18.7,49.3
			c0,13.1-0.4,26.2,0.2,39.3c0.4,9.3-3.1,13.1-12.4,12.3c-5.1-0.4-10.4-0.1-17.2-0.1c0,8.8-0.2,16.9,0.1,25
			c0.2,7.7-3.2,10.9-10.8,10.7c-10.5-0.3-21-0.2-31.4,0c-6.6,0.1-9.6-2.9-9.5-9.5c0.1-8.2,0-16.4,0-25.3
			C387.9,365.3,357.8,365.3,326.1,365.3z M260,317.7c75.2,0,150.4,0,225.6,0c2.8-36.3-24-64.4-62-65c-30.7-0.5-61.3-0.2-92,0
			c-8.2,0-16.5,0.1-24.6,1.5C277.1,259.3,254.6,289.8,260,317.7z M17.9,317.8c1.3,0.2,2.7,0.7,4.2,0.7c71.4,0.1,142.8,0,214.2,0.2
			c7.4,0,8.6-3.1,8.3-9.5c-1.9-31.7-27.3-55.4-61.4-56.5c-16.4-0.5-32.9-0.3-49.4-0.1c-22,0.2-44.2-0.8-66.1,1.5
			C36.6,257.4,13.7,287.7,17.9,317.8z M461.1,247.1c0-4.8,0-8.5,0-12.2c0-14.6,0.5-29.2-0.3-43.8c-1.1-20.2-15.5-35.7-34.7-36.1
			c-35.9-0.8-71.9-0.7-107.8,0c-18.4,0.4-33.4,15.8-34.1,34c-0.7,19-0.2,38.1-0.2,57.9c8.4-2.7,16-5.2,23.4-7.6
			c5.7-38.9,22.9-53.7,61.7-53.7c7.1,0,14.3-0.1,21.3,0.5c21.7,2.1,39.2,17.4,44.4,38.6c1.2,5,1.9,10.2,2.8,14.8
			C445.2,242,452.3,244.3,461.1,247.1z M65.8,239.4c5.3-38.3,23.2-53.9,61.7-54c4.5,0,9-0.1,13.5,0c30.7,0.9,49.3,17.6,53.9,47.8
			c0.4,2.6,2.6,6.1,4.8,7.1c6,2.6,12.5,4.1,19.4,6.3c0-19.9,0.6-39-0.2-58c-0.7-18.2-15.8-33.5-34.3-33.8
			c-35.9-0.7-71.8-0.7-107.7,0c-16.2,0.3-29.4,10-31.9,25.3c-3.6,21.6-2.7,44-3.7,67.2C51,244.2,58.1,242,65.8,239.4z M244.3,333
			c-76.5,0-151.7,0-226.8,0c0,6.3,0,11.7,0,17.1c75.9,0,151.2,0,226.8,0C244.3,344.2,244.3,339,244.3,333z M258.9,350.2
			c76.1,0,151.4,0,226.8,0c0-6.2,0-11.6,0-17.3c-75.8,0-151.1,0-226.8,0C258.9,338.8,258.9,343.9,258.9,350.2z M80.5,238.3
			c33.9,0,66.8,0,99.8,0c1.4-19.3-11.4-35.9-30.2-38.2c-11-1.4-22.3-1.3-33.5-0.7C95,200.7,81.6,215.2,80.5,238.3z M322.8,238.2
			c33.2,0,66.5,0,99.8,0c-0.9-22.7-14.7-37.6-36-38.7c-10.8-0.6-21.7-0.6-32.4,0.5C334.9,201.9,321.5,218.5,322.8,238.2z
			 M46.8,385.6c8.6,0,16.1,0,23.2,0c0-7.4,0-13.9,0-20.5c-8.1,0-15.3,0-23.2,0C46.8,372.2,46.8,378.6,46.8,385.6z M432.8,386
			c8.5,0,15.8,0,23.2,0c0-7.3,0-14.1,0-20.8c-8.2,0-15.4,0-23.2,0C432.8,372.3,432.8,378.8,432.8,386z M191.3,385.9
			c8.4,0,15.7,0,23.1,0c0-7.2,0-13.7,0-20.8c-7.9,0-15.2,0-23.1,0C191.3,372.2,191.3,378.7,191.3,385.9z M311.8,386.2
			c0-7.6,0-14.1,0-21.2c-8,0-15.2,0-22.9,0c0,7.4,0,14.1,0,21.2C296.8,386.2,303.9,386.2,311.8,386.2z"/>
		<path class="st3" d="M276.3,84.5c-4.1,24.5-10.2,32.6-24.7,32.6c-14.5,0-21-8.4-24.7-32.2c-17.4-2.8-17.3-2.8-13.9-20.4
			c3-15.4,6-30.8,8.7-46.3c1.4-8,5.1-11.6,13.6-11.1c11.2,0.6,22.4,0.4,33.7,0.1c6.6-0.2,10.6,2,11.9,8.9
			c3.4,19.1,7.1,38.2,10.7,57.3C294.1,87.3,282.1,82,276.3,84.5z M267.9,21.2c-11.2,0-21.5,0-32.6,0c-3.1,16.2-6.1,32-9.1,48
			c17.6,0,34,0,51.1,0C274,52.7,270.9,37.1,267.9,21.2z M239.2,84.2c3,7.2,4.6,13.1,7.9,17.6c1.1,1.5,8.6,1.3,9.6-0.4
			c3-4.7,4.2-10.6,6.5-17.3C254.6,84.2,248.8,84.2,239.2,84.2z"/>
	</g>
</g>
</svg>
