<?xml version="1.0" encoding="utf-8"?>
<!-- Generator: Adobe Illustrator 22.0.0, SVG Export Plug-In . SVG Version: 6.00 Build 0)  -->
<svg version="1.1" xmlns="http://www.w3.org/2000/svg" xmlns:xlink="http://www.w3.org/1999/xlink" x="0px" y="0px"
	 viewBox="0 0 500 500" style="enable-background:new 0 0 500 500;" xml:space="preserve">
<style type="text/css">
	.st0{display:none;}
	.st1{display:inline;}
	.st2{fill:#333435;}
	.st3{fill:#DA9629;}
</style>
<g id="Layer_1" class="st0">
	<g id="Layer_1_1_">
		<g class="st1">
			<g>
				<g>
					<g>
						<g>
							<path class="st2" d="M477,165.4c0,28.1,0,55.7,0,83.6c-4.5,0-9,0-13.8,0c-0.2-3.5-0.5-7-0.7-10.5c-0.4-6.3-0.6-12.7-1.2-19
								c-1.3-12.3-7.5-18.5-19.9-19.5c-9.9-0.8-19.8-1.1-29.7-1.1c-26.1-0.1-52.2,0-78.2-0.1c-3.1,0-4.3,0.9-4.4,3.9
								c-0.1,4.3-0.6,8.5-0.6,12.8c0,54.7,0,109.5,0,164.2c0,8.9,0.1,17.8,3.2,26.4c5.6,15.5,16.8,23.7,32.9,25.6
								c3.1,0.4,6.3,0.6,9.4,1c0.7,0.1,1.9,1,1.9,1.6c0.2,3.8,0.1,7.7,0.1,11.7c-50,0-99.7,0-149.6,0c0-4.5,0-8.9,0-13.5
								c4.7-0.5,9.4-0.9,14.1-1.4c17.2-1.8,28.2-12.9,31-30.1c2.2-13.3,1.5-26.7,1.6-40c0.1-50.9,0-101.7,0-152.6
								c0-3.4-0.2-6.7-0.5-10.1c-0.1-0.7-1.2-1.3-1.9-1.8c-0.3-0.2-1,0-1.5,0c-61.8,0-123.6,0-185.3,0.1c-6,0-12.1,0.5-18.1,1.3
								c-11,1.4-17.6,9.3-18.3,21.1c-0.5,10-1.2,20-1.8,30.2c-3.1,0-6,0-9.1,0c0-27.9,0-55.6,0-83.5
								C183.4,165.4,330.1,165.4,477,165.4z"/>
							<path class="st2" d="M191.3,456.3c0,9.4,0,18.8,0,28.4c-54.1,0-108.1,0-162.4,0c0-9.4,0-18.9,0-28.5
								c4.8-0.3,9.5-0.4,14.2-0.9c16.9-1.7,26.3-9.7,30.9-26.2c3.5-12.5,4.2-25.4,4.2-38.3c0.2-59.7,0.4-119.4,0.5-179
								c0-1.3,0-2.5,0-4.2c21,0,41.8,0,62.9,0c0,17.1,0,34.3,0,51.9c40.2,0,80,0,120,0c0.1,1.4,0.2,2.5,0.2,3.5
								c0,7.3-0.1,14.7,0.1,22c0.1,2.9-0.8,3.7-3.7,3.7c-24.1-0.1-48.2-0.1-72.3-0.1c-13.5,0-27,0.1-40.5-0.1c-2.9,0-4,0.6-3.9,3.8
								c0.1,25.2-0.1,50.4,0.1,75.6c0.1,14.5,0.6,28.9,1.7,43.3c0.5,7.1,2.3,14.3,4.5,21.1c4.4,13.5,14.6,20.2,28.2,22.3
								C181,455.5,186,455.8,191.3,456.3z"/>
							<path class="st2" d="M141.4,154c-21,0-41.6,0-62.6,0c-0.1-1.1-0.1-2.2-0.2-3.2c-0.2-17.6-0.3-35.3-0.7-52.9
								c-0.3-11.7-1.4-23.3-5.2-34.5C68.3,50,59.1,42.6,45.2,41c-4.3-0.5-8.7-0.5-13-0.7c-1.1-0.1-2.1,0-3.6,0c0-3,0-5.7,0-8.3
								c0-6,0.1-12.1,0-18.1c0-1.9,0.6-2.8,2.6-2.6c0.6,0.1,1.2,0,1.8,0c51.4,0,102.7,0,154.1,0c4.4,0,4.4,0,4.4,4.3
								c0,7.1-0.1,14.3,0.1,21.4c0.1,2.6-0.7,3.3-3.3,3.5c-5.6,0.4-11.3,0.9-16.8,2.1c-13.1,2.8-20.8,11.5-24.6,24
								c-4.2,13.6-4.4,27.7-4.7,41.8c-0.3,14.3-0.3,28.5-0.5,42.8C141.6,152,141.5,152.8,141.4,154z"/>
							<path class="st2" d="M271.4,153.2c-1-7.6-1.7-15-3.1-22.2c-0.8-4.3-2.4-8.6-4.3-12.6c-4.4-9-12-13.7-21.8-14.9
								c-4.4-0.5-8.9-0.6-13.3-0.7c-1.6,0-2.6-0.3-2.6-2.3c0-7.7,0-15.4,0-23.5c48.9,0,97.6,0,146.6,0c0.1,0.9,0.2,1.9,0.2,2.8
								c0,6.1,0.1,12.3,0.1,18.4c0,4.4-0.1,4-4.2,4.5c-6.3,0.8-12.9,1.5-18.8,3.6c-10.7,3.8-15.7,12.9-18,23.4
								c-1.3,5.6-1.7,11.3-2.5,17c-0.3,2-0.4,4.1-0.7,6.3C309.6,153.2,290.5,153.2,271.4,153.2z"/>
						</g>
					</g>
				</g>
				<g>
					<g>
						<g>
							<path class="st2" d="M28.6,165.4c0,28.1,0,55.7,0,83.6c4.5,0,9,0,13.8,0c0.2-3.5,0.5-7,0.7-10.5c0.4-6.3,0.6-12.7,1.2-19
								c1.3-12.3,7.5-18.5,19.9-19.5c9.9-0.8,19.8-1.1,29.7-1.1c26.1-0.1,52.2,0,78.2-0.1c3.1,0,4.3,0.9,4.4,3.9
								c0.1,4.3,0.6,8.5,0.6,12.8c0,54.7,0,109.5,0,164.2c0,8.9-0.1,17.8-3.2,26.4c-5.6,15.5-16.8,23.7-32.9,25.6
								c-3.1,0.4-6.3,0.6-9.4,1c-0.7,0.1-1.9,1-1.9,1.6c-0.2,3.8-0.1,7.7-0.1,11.7c50,0,99.7,0,149.6,0c0-4.5,0-8.9,0-13.5
								c-4.7-0.5-9.4-0.9-14.1-1.4c-17.2-1.8-28.2-12.9-31-30.1c-2.2-13.3-1.5-26.7-1.6-40c-0.1-50.9,0-101.7,0-152.6
								c0-3.4,0.2-6.7,0.5-10.1c0.1-0.7,1.2-1.3,1.9-1.8c0.3-0.2,1,0,1.5,0c61.8,0,123.6,0,185.3,0.1c6,0,12.1,0.5,18.1,1.3
								c11,1.4,17.6,9.3,18.3,21.1c0.5,10,1.2,20,1.8,30.2c3.1,0,6,0,9.1,0c0-27.9,0-55.6,0-83.5
								C322.2,165.4,175.5,165.4,28.6,165.4z"/>
							<path class="st2" d="M314.3,456.3c0,9.4,0,18.8,0,28.4c54.1,0,108.1,0,162.4,0c0-9.4,0-18.9,0-28.5
								c-4.8-0.3-9.5-0.4-14.2-0.9c-16.9-1.7-26.3-9.7-30.9-26.2c-3.5-12.5-4.2-25.4-4.2-38.3c-0.2-59.7-0.4-119.4-0.5-179
								c0-1.3,0-2.5,0-4.2c-21,0-41.8,0-62.9,0c0,17.1,0,34.3,0,51.9c-40.2,0-80,0-120,0c-0.1,1.4-0.2,2.5-0.2,3.5
								c0,7.3,0.1,14.7-0.1,22c-0.1,2.9,0.8,3.7,3.7,3.7c24.1-0.1,48.2-0.1,72.3-0.1c13.5,0,27,0.1,40.5-0.1c2.9,0,4,0.6,3.9,3.8
								c-0.1,25.2,0.1,50.4-0.1,75.6c-0.1,14.5-0.6,28.9-1.7,43.3c-0.5,7.1-2.3,14.3-4.5,21.1c-4.4,13.5-14.6,20.2-28.2,22.3
								C324.6,455.5,319.7,455.8,314.3,456.3z"/>
							<path class="st2" d="M364.2,154c21,0,41.6,0,62.6,0c0.1-1.1,0.1-2.2,0.2-3.2c0.2-17.6,0.3-35.3,0.7-52.9
								c0.3-11.7,1.4-23.3,5.2-34.5c4.5-13.3,13.7-20.8,27.5-22.3c4.3-0.5,8.7-0.5,13-0.7c1.1-0.1,2.1,0,3.6,0c0-3,0-5.7,0-8.3
								c0-6-0.1-12.1,0-18.1c0-1.9-0.6-2.8-2.6-2.6c-0.6,0.1-1.2,0-1.8,0c-51.4,0-102.7,0-154.1,0c-4.4,0-4.4,0-4.4,4.3
								c0,7.1,0.1,14.3-0.1,21.4c-0.1,2.6,0.7,3.3,3.3,3.5c5.6,0.4,11.3,0.9,16.8,2.1c13.1,2.8,20.8,11.5,24.6,24
								c4.2,13.6,4.4,27.7,4.7,41.8c0.3,14.3,0.3,28.5,0.5,42.8C364,152,364.1,152.8,364.2,154z"/>
							<path class="st2" d="M234.2,153.2c1-7.6,1.7-15,3.1-22.2c0.8-4.3,2.4-8.6,4.3-12.6c4.4-9,12-13.7,21.8-14.9
								c4.4-0.5,8.9-0.6,13.3-0.7c1.6,0,2.6-0.3,2.6-2.3c0-7.7,0-15.4,0-23.5c-48.9,0-97.6,0-146.6,0c-0.1,0.9-0.2,1.9-0.2,2.8
								c0,6.1-0.1,12.3-0.1,18.4c0,4.4,0.1,4,4.2,4.5c6.3,0.8,12.9,1.5,18.8,3.6c10.7,3.8,15.7,12.9,18,23.4
								c1.3,5.6,1.7,11.3,2.5,17c0.3,2,0.4,4.1,0.7,6.3C196,153.2,215.1,153.2,234.2,153.2z"/>
						</g>
					</g>
				</g>
			</g>
		</g>
	</g>
	<g id="Layer_3" class="st1">
		<g>
			<path class="st3" d="M69.3,379.5c-9.2,0-17.2,0-25.6,0c0-88.7,0-177.1,0-265.7c8.4,0,16.5,0,25.4,0c0,45.7,0,90.9,0,136.9
				c123.5,0,246.2,0,369.4,0c0,43.2,0,85.6,0,128.5c-8.1,0-16.2,0-25.1,0c0-22.2,0-44.5,0-67.4c-115,0-229.1,0-344.1,0
				C69.3,334.1,69.3,356.3,69.3,379.5z"/>
			<path class="st3" d="M421.8,241.9c-86.4,0-171.6,0-258.9,0c1-17.7,1-35.3,3.2-52.7c1.2-9,9.3-13.9,18.4-15.3
				c3.5-0.6,7.2-0.5,10.8-0.5c64.9,0,129.7,0,194.6,0c23.1,0,31.8,8.6,31.9,31.6C421.8,217,421.8,229,421.8,241.9z"/>
			<path class="st3" d="M111.8,171.9c19.7-0.1,36,15.7,36.3,35.4c0.4,19.8-16.1,36.4-36.2,36.4C92.2,243.6,76,227.5,76,207.9
				C76,188.2,92.1,172,111.8,171.9z"/>
		</g>
	</g>
	<g id="Layer_2_1_">
		<g class="st1">
			<g>
				<g>
					<defs>
						<rect id="SVGID_1_" x="-771" y="-223.6" width="595" height="841.2"/>
					</defs>
					<clipPath id="SVGID_2_">
						<use xlink:href="#SVGID_1_"  style="overflow:visible;"/>
					</clipPath>
				</g>
			</g>
		</g>
	</g>
</g>
<g id="Layer_2">
	<g>
		<path class="st3" d="M276.3,111.5c-4.1,24.5-10.2,32.6-24.7,32.6c-14.5,0-21-8.4-24.7-32.2c-17.4-2.8-17.3-2.8-13.9-20.4
			c3-15.4,6-30.8,8.7-46.3c1.4-8,5.1-11.6,13.6-11.1c11.2,0.6,22.4,0.4,33.7,0.1c6.6-0.2,10.6,2,11.9,8.9
			c3.4,19.1,7.1,38.2,10.7,57.3C294.2,114.3,282.2,109,276.3,111.5z M267.9,48.2c-11.2,0-21.5,0-32.6,0c-3.1,16.2-6.1,32-9.1,48
			c17.6,0,34,0,51.1,0C274,79.7,271,64.1,267.9,48.2z M239.2,111.2c3,7.2,4.6,13.1,7.9,17.6c1.1,1.5,8.6,1.3,9.6-0.4
			c3-4.7,4.2-10.6,6.5-17.3C254.6,111.2,248.9,111.2,239.2,111.2z"/>
	</g>
	<g>
		<path class="st3" d="M406.7,348c-1.2-0.4-2.3-1.6-2.1-3.2c1.5-10.1-0.2-21.1,0-31.3c-2.8,3.5-5.7,6.9-8.6,10.4
			c-3.9-5.5-7.2-12.3-12.4-16.9c-8.8-7.7-10.4-16.8-10.1-27.6c0.6-19.4,0.3-38.8,0.1-58.2c-0.3-39-25.4-64.6-64.1-65
			c-38.8-0.4-77.6-0.3-116.4,0c-39.5,0.3-65,25.9-65.6,65.4c-0.3,21.7,0.4,43.3-0.4,65c-0.2,5.6-3.8,11.3-6.3,16.6
			c-7.6,16.1-18.9,31.4-22.2,48.2c-4,20.9-1.8,43.1-1.1,64.7c0.1,3.2,6.2,8.3,10.1,9c7.7,1.4,15.8,0.4,24.7,0.4
			c0,11.8,0,21.6,0,31.5c0,7.8,3.7,11.5,11.6,11.4c12.6-0.1,25.3-0.3,37.9,0.1c9.2,0.3,13.2-3.5,12.9-12.8c-0.4-9.7-0.1-19.5-0.1-29
			h111.8c0,10.1,0.2,19.1,0,28c-0.2,9.4,3.2,14.3,13.5,13.9c11.7-0.5,23.5-0.5,35.2,0c9.9,0.4,14.1-3.5,13.8-13.4
			c-0.4-9.6-0.1-19.3-0.1-28.8h35.5c1.2-18.4-0.4-37,0.7-55.3c0.2-3.1,0.4-6.1,0.6-9.2C405.5,357.2,405.8,352.6,406.7,348z
			 M147.4,203.5c3.1-18.4,18.9-30.1,38.5-30.5c43.3-0.9,86.6-0.9,129.9,0c22.2,0.4,40.4,18.8,41.3,40.8c0.9,22.9,0.2,45.9,0.2,69.9
			c-8.4-2.6-16.2-4.4-23.4-7.6c-2.7-1.2-5.3-5.4-5.8-8.6c-5.6-36.5-28-56.6-65-57.7c-5.4-0.2-10.8-0.1-16.2-0.1
			c-46.4,0.1-68,18.8-74.4,65c-9.3,3-17.8,5.8-29.6,9.7C144.1,256.5,143,229.5,147.4,203.5z M310.5,273.4H190.2
			c1.4-27.9,17.6-45.4,43.6-46.9c13.4-0.8,27.1-0.9,40.3,0.8C296.8,230.1,312.2,250.1,310.5,273.4z M177.6,451h-27.9v-24.8h27.9V451
			z M351.7,451.3h-27.9v-25.1h27.9V451.3z M387.8,408.2H114.3v-20.7h273.4V408.2z M378.1,370.3c-86.1-0.2-172.2-0.2-258.3-0.2
			c-1.7,0-3.4-0.6-5-0.9c-5-36.2,22.5-72.8,60.1-76.7c26.3-2.8,53.1-1.5,79.7-1.8c19.8-0.2,39.7-0.5,59.5,0.1
			c41.1,1.2,71.7,29.8,74,68.1C388.5,366.6,387,370.3,378.1,370.3z"/>
	</g>
</g>
</svg>
