<?xml version="1.0" encoding="utf-8"?>
<!-- Generator: Adobe Illustrator 22.0.0, SVG Export Plug-In . SVG Version: 6.00 Build 0)  -->
<svg version="1.1" id="Layer_1" xmlns="http://www.w3.org/2000/svg" xmlns:xlink="http://www.w3.org/1999/xlink" x="0px" y="0px"
	 viewBox="0 0 500 412" style="enable-background:new 0 0 500 412;" xml:space="preserve">
<style type="text/css">
	.st0{display:none;}
	.st1{display:inline;}
	.st2{fill:#333435;}
	.st3{fill:#DA9629;}
</style>
<g id="Layer_1_2_" class="st0">
	<g id="Layer_1_1_" class="st1">
		<g>
			<g>
				<g>
					<g>
						<g>
							<path class="st2" d="M477,119.4c0,28.1,0,55.7,0,83.6c-4.5,0-9,0-13.8,0c-0.2-3.5-0.5-7-0.7-10.5c-0.4-6.3-0.6-12.7-1.2-19
								c-1.3-12.3-7.5-18.5-19.9-19.5c-9.9-0.8-19.8-1.1-29.7-1.1c-26.1-0.1-52.2,0-78.2-0.1c-3.1,0-4.3,0.9-4.4,3.9
								c-0.1,4.3-0.6,8.5-0.6,12.8c0,54.7,0,109.5,0,164.2c0,8.9,0.1,17.8,3.2,26.4c5.6,15.5,16.8,23.7,32.9,25.6
								c3.1,0.4,6.3,0.6,9.4,1c0.7,0.1,1.9,1,1.9,1.6c0.2,3.8,0.1,7.7,0.1,11.7c-50,0-99.7,0-149.6,0c0-4.5,0-8.9,0-13.5
								c4.7-0.5,9.4-0.9,14.1-1.4c17.2-1.8,28.2-12.9,31-30.1c2.2-13.3,1.5-26.7,1.6-40c0.1-50.9,0-101.7,0-152.6
								c0-3.4-0.2-6.7-0.5-10.1c-0.1-0.7-1.2-1.3-1.9-1.8c-0.3-0.2-1,0-1.5,0c-61.8,0-123.6,0-185.3,0.1c-6,0-12.1,0.5-18.1,1.3
								c-11,1.4-17.6,9.3-18.3,21.1c-0.5,10-1.2,20-1.8,30.2c-3.1,0-6,0-9.1,0c0-27.9,0-55.6,0-83.5
								C183.4,119.4,330.1,119.4,477,119.4z"/>
							<path class="st2" d="M191.3,410.3c0,9.4,0,18.8,0,28.4c-54.1,0-108.1,0-162.4,0c0-9.4,0-18.9,0-28.5
								c4.8-0.3,9.5-0.4,14.2-0.9c16.9-1.7,26.3-9.7,30.9-26.2c3.5-12.5,4.2-25.4,4.2-38.3c0.2-59.7,0.4-119.4,0.5-179
								c0-1.3,0-2.5,0-4.2c21,0,41.8,0,62.9,0c0,17.1,0,34.3,0,51.9c40.2,0,80,0,120,0c0.1,1.4,0.2,2.5,0.2,3.5
								c0,7.3-0.1,14.7,0.1,22c0.1,2.9-0.8,3.7-3.7,3.7c-24.1-0.1-48.2-0.1-72.3-0.1c-13.5,0-27,0.1-40.5-0.1c-2.9,0-4,0.6-3.9,3.8
								c0.1,25.2-0.1,50.4,0.1,75.6c0.1,14.5,0.6,28.9,1.7,43.3c0.5,7.1,2.3,14.3,4.5,21.1c4.4,13.5,14.6,20.2,28.2,22.3
								C181,409.5,186,409.8,191.3,410.3z"/>
							<path class="st2" d="M141.4,108c-21,0-41.6,0-62.6,0c-0.1-1.1-0.1-2.2-0.2-3.2c-0.2-17.6-0.3-35.3-0.7-52.9
								c-0.3-11.7-1.4-23.3-5.2-34.5C68.3,4,59.1-3.4,45.2-5c-4.3-0.5-8.7-0.5-13-0.7c-1.1-0.1-2.1,0-3.6,0c0-3,0-5.7,0-8.3
								c0-6,0.1-12.1,0-18.1c0-1.9,0.6-2.8,2.6-2.6c0.6,0.1,1.2,0,1.8,0c51.4,0,102.7,0,154.1,0c4.4,0,4.4,0,4.4,4.3
								c0,7.1-0.1,14.3,0.1,21.4c0.1,2.6-0.7,3.3-3.3,3.5c-5.6,0.4-11.3,0.9-16.8,2.1c-13.1,2.8-20.8,11.5-24.6,24
								c-4.2,13.6-4.4,27.7-4.7,41.8c-0.3,14.3-0.3,28.5-0.5,42.8C141.6,106,141.5,106.8,141.4,108z"/>
							<path class="st2" d="M271.4,107.2c-1-7.6-1.7-15-3.1-22.2c-0.8-4.3-2.4-8.6-4.3-12.6c-4.4-9-12-13.7-21.8-14.9
								c-4.4-0.5-8.9-0.6-13.3-0.7c-1.6,0-2.6-0.3-2.6-2.3c0-7.7,0-15.4,0-23.5c48.9,0,97.6,0,146.6,0c0.1,0.9,0.2,1.9,0.2,2.8
								c0,6.1,0.1,12.3,0.1,18.4c0,4.4-0.1,4-4.2,4.5c-6.3,0.8-12.9,1.5-18.8,3.6c-10.7,3.8-15.7,12.9-18,23.4
								c-1.3,5.6-1.7,11.3-2.5,17c-0.3,2-0.4,4.1-0.7,6.3C309.6,107.2,290.5,107.2,271.4,107.2z"/>
						</g>
					</g>
				</g>
				<g>
					<g>
						<g>
							<path class="st2" d="M28.6,119.4c0,28.1,0,55.7,0,83.6c4.5,0,9,0,13.8,0c0.2-3.5,0.5-7,0.7-10.5c0.4-6.3,0.6-12.7,1.2-19
								c1.3-12.3,7.5-18.5,19.9-19.5c9.9-0.8,19.8-1.1,29.7-1.1c26.1-0.1,52.2,0,78.2-0.1c3.1,0,4.3,0.9,4.4,3.9
								c0.1,4.3,0.6,8.5,0.6,12.8c0,54.7,0,109.5,0,164.2c0,8.9-0.1,17.8-3.2,26.4c-5.6,15.5-16.8,23.7-32.9,25.6
								c-3.1,0.4-6.3,0.6-9.4,1c-0.7,0.1-1.9,1-1.9,1.6c-0.2,3.8-0.1,7.7-0.1,11.7c50,0,99.7,0,149.6,0c0-4.5,0-8.9,0-13.5
								c-4.7-0.5-9.4-0.9-14.1-1.4c-17.2-1.8-28.2-12.9-31-30.1c-2.2-13.3-1.5-26.7-1.6-40c-0.1-50.9,0-101.7,0-152.6
								c0-3.4,0.2-6.7,0.5-10.1c0.1-0.7,1.2-1.3,1.9-1.8c0.3-0.2,1,0,1.5,0c61.8,0,123.6,0,185.3,0.1c6,0,12.1,0.5,18.1,1.3
								c11,1.4,17.6,9.3,18.3,21.1c0.5,10,1.2,20,1.8,30.2c3.1,0,6,0,9.1,0c0-27.9,0-55.6,0-83.5
								C322.2,119.4,175.5,119.4,28.6,119.4z"/>
							<path class="st2" d="M314.3,410.3c0,9.4,0,18.8,0,28.4c54.1,0,108.1,0,162.4,0c0-9.4,0-18.9,0-28.5
								c-4.8-0.3-9.5-0.4-14.2-0.9c-16.9-1.7-26.3-9.7-30.9-26.2c-3.5-12.5-4.2-25.4-4.2-38.3c-0.2-59.7-0.4-119.4-0.5-179
								c0-1.3,0-2.5,0-4.2c-21,0-41.8,0-62.9,0c0,17.1,0,34.3,0,51.9c-40.2,0-80,0-120,0c-0.1,1.4-0.2,2.5-0.2,3.5
								c0,7.3,0.1,14.7-0.1,22c-0.1,2.9,0.8,3.7,3.7,3.7c24.1-0.1,48.2-0.1,72.3-0.1c13.5,0,27,0.1,40.5-0.1c2.9,0,4,0.6,3.9,3.8
								c-0.1,25.2,0.1,50.4-0.1,75.6c-0.1,14.5-0.6,28.9-1.7,43.3c-0.5,7.1-2.3,14.3-4.5,21.1c-4.4,13.5-14.6,20.2-28.2,22.3
								C324.6,409.5,319.7,409.8,314.3,410.3z"/>
							<path class="st2" d="M364.2,108c21,0,41.6,0,62.6,0c0.1-1.1,0.1-2.2,0.2-3.2c0.2-17.6,0.3-35.3,0.7-52.9
								c0.3-11.7,1.4-23.3,5.2-34.5c4.5-13.3,13.7-20.8,27.5-22.3c4.3-0.5,8.7-0.5,13-0.7c1.1-0.1,2.1,0,3.6,0c0-3,0-5.7,0-8.3
								c0-6-0.1-12.1,0-18.1c0-1.9-0.6-2.8-2.6-2.6c-0.6,0.1-1.2,0-1.8,0c-51.4,0-102.7,0-154.1,0c-4.4,0-4.4,0-4.4,4.3
								c0,7.1,0.1,14.3-0.1,21.4c-0.1,2.6,0.7,3.3,3.3,3.5c5.6,0.4,11.3,0.9,16.8,2.1c13.1,2.8,20.8,11.5,24.6,24
								c4.2,13.6,4.4,27.7,4.7,41.8c0.3,14.3,0.3,28.5,0.5,42.8C364,106,364.1,106.8,364.2,108z"/>
							<path class="st2" d="M234.2,107.2c1-7.6,1.7-15,3.1-22.2c0.8-4.3,2.4-8.6,4.3-12.6c4.4-9,12-13.7,21.8-14.9
								c4.4-0.5,8.9-0.6,13.3-0.7c1.6,0,2.6-0.3,2.6-2.3c0-7.7,0-15.4,0-23.5c-48.9,0-97.6,0-146.6,0c-0.1,0.9-0.2,1.9-0.2,2.8
								c0,6.1-0.1,12.3-0.1,18.4c0,4.4,0.1,4,4.2,4.5c6.3,0.8,12.9,1.5,18.8,3.6c10.7,3.8,15.7,12.9,18,23.4
								c1.3,5.6,1.7,11.3,2.5,17c0.3,2,0.4,4.1,0.7,6.3C196,107.2,215.1,107.2,234.2,107.2z"/>
						</g>
					</g>
				</g>
			</g>
		</g>
	</g>
	<g id="Layer_3" class="st1">
		<g>
			<path class="st3" d="M69.3,333.5c-9.2,0-17.2,0-25.6,0c0-88.7,0-177.1,0-265.7c8.4,0,16.5,0,25.4,0c0,45.7,0,90.9,0,136.9
				c123.5,0,246.2,0,369.4,0c0,43.2,0,85.6,0,128.5c-8.1,0-16.2,0-25.1,0c0-22.2,0-44.5,0-67.4c-115,0-229.1,0-344.1,0
				C69.3,288.1,69.3,310.3,69.3,333.5z"/>
			<path class="st3" d="M421.8,195.9c-86.4,0-171.6,0-258.9,0c1-17.7,1-35.3,3.2-52.7c1.2-9,9.3-13.9,18.4-15.3
				c3.5-0.6,7.2-0.5,10.8-0.5c64.9,0,129.7,0,194.6,0c23.1,0,31.8,8.6,31.9,31.6C421.8,171,421.8,183,421.8,195.9z"/>
			<path class="st3" d="M111.8,125.9c19.7-0.1,36,15.7,36.3,35.4c0.4,19.8-16.1,36.4-36.2,36.4C92.2,197.6,76,181.5,76,161.9
				C76,142.2,92.1,126,111.8,125.9z"/>
		</g>
	</g>
</g>
<g id="Layer_2_2_">
	<g>
		<path class="st3" d="M275.6,77.8c-3.7,22.2-9.2,29.6-22.4,29.6c-13.1,0-19-7.6-22.4-29.2c-15.8-2.5-15.7-2.5-12.6-18.5
			c2.7-14,5.4-27.9,7.9-42c1.3-7.3,4.6-10.5,12.3-10.1C248.6,8.2,258.7,8,269,7.7c6-0.2,9.6,1.8,10.8,8.1c3.1,17.3,6.4,34.6,9.7,52
			C291.8,80.4,281,75.6,275.6,77.8z M268,20.4c-10.2,0-19.5,0-29.6,0c-2.8,14.7-5.5,29-8.3,43.5c16,0,30.8,0,46.3,0
			C273.5,49,270.8,34.9,268,20.4z M242,77.6c2.7,6.5,4.2,11.9,7.2,16c1,1.4,7.8,1.2,8.7-0.4c2.7-4.3,3.8-9.6,5.9-15.7
			C255.9,77.6,250.8,77.6,242,77.6z"/>
	</g>
	<g>
		<path class="st3" d="M393.8,292.3c-1.1-0.4-2.1-1.5-1.9-2.9c1.4-9.2-0.2-19.1,0-28.4c-2.5,3.2-5.2,6.3-7.8,9.4
			c-3.5-5-6.5-11.2-11.2-15.3c-8-7-9.4-15.2-9.2-25c0.5-17.6,0.3-35.2,0.1-52.8c-0.3-35.4-23-58.6-58.1-58.9
			c-35.2-0.4-70.4-0.3-105.5,0c-35.8,0.3-58.9,23.5-59.5,59.3c-0.3,19.7,0.4,39.3-0.4,58.9c-0.2,5.1-3.4,10.2-5.7,15.1
			c-6.9,14.6-17.1,28.5-20.1,43.7c-3.6,18.9-1.6,39.1-1,58.7c0.1,2.9,5.6,7.5,9.2,8.2c7,1.3,14.3,0.4,22.4,0.4c0,10.7,0,19.6,0,28.6
			c0,7.1,3.4,10.4,10.5,10.3c11.4-0.1,22.9-0.3,34.4,0.1c8.3,0.3,12-3.2,11.7-11.6c-0.4-8.8-0.1-17.7-0.1-26.3h101.4
			c0,9.2,0.2,17.3,0,25.4c-0.2,8.5,2.9,13,12.2,12.6c10.6-0.5,21.3-0.5,31.9,0c9,0.4,12.8-3.2,12.5-12.1c-0.4-8.7-0.1-17.5-0.1-26.1
			h32.2c1.1-16.7-0.4-33.5,0.6-50.1c0.2-2.8,0.4-5.5,0.5-8.3C392.7,300.6,393,296.4,393.8,292.3z M158.7,161.2
			c2.8-16.7,17.1-27.3,34.9-27.7c39.3-0.8,78.5-0.8,117.8,0c20.1,0.4,36.6,17,37.4,37c0.8,20.8,0.2,41.6,0.2,63.4
			c-7.6-2.4-14.7-4-21.2-6.9c-2.4-1.1-4.8-4.9-5.3-7.8c-5.1-33.1-25.4-51.3-58.9-52.3c-4.9-0.2-9.8-0.1-14.7-0.1
			c-42.1,0.1-61.7,17-67.5,58.9c-8.4,2.7-16.1,5.3-26.8,8.8C155.8,209.3,154.8,184.8,158.7,161.2z M306.6,224.6H197.5
			c1.3-25.3,16-41.2,39.5-42.5c12.1-0.7,24.6-0.8,36.5,0.7C294.2,185.4,308.2,203.5,306.6,224.6z M186.1,385.6h-25.3v-22.5h25.3
			V385.6z M344,385.9h-25.3v-22.8H344V385.9z M376.7,346.8h-248v-18.8h247.9L376.7,346.8L376.7,346.8z M367.9,312.5
			c-78.1-0.2-156.1-0.2-234.2-0.2c-1.5,0-3.1-0.5-4.5-0.8c-4.5-32.8,20.4-66,54.5-69.5c23.8-2.5,48.1-1.4,72.3-1.6
			c18-0.2,36-0.5,53.9,0.1c37.3,1.1,65,27,67.1,61.7C377.3,309.1,376,312.5,367.9,312.5z"/>
	</g>
</g>
</svg>
