<?xml version="1.0" encoding="utf-8"?>
<!-- Generator: Adobe Illustrator 22.0.0, SVG Export Plug-In . SVG Version: 6.00 Build 0)  -->
<svg version="1.1" id="Layer_1" xmlns="http://www.w3.org/2000/svg" xmlns:xlink="http://www.w3.org/1999/xlink" x="0px" y="0px"
	 viewBox="0 0 500 500" style="enable-background:new 0 0 500 500;" xml:space="preserve">
<style type="text/css">
	.st0{display:none;}
	.st1{display:inline;}
	.st2{fill:#333435;}
	.st3{clip-path:url(#SVGID_2_);}
	.st4{fill:#DA9629;}
</style>
<g id="Layer_1_1_" class="st0">
	<g class="st1">
		<g>
			<g>
				<g>
					<g>
						<path class="st2" d="M477,165.4c0,28.1,0,55.7,0,83.6c-4.5,0-9,0-13.8,0c-0.2-3.5-0.5-7-0.7-10.5c-0.4-6.3-0.6-12.7-1.2-19
							c-1.3-12.3-7.5-18.5-19.9-19.5c-9.9-0.8-19.8-1.1-29.7-1.1c-26.1-0.1-52.2,0-78.2-0.1c-3.1,0-4.3,0.9-4.4,3.9
							c-0.1,4.3-0.6,8.5-0.6,12.8c0,54.7,0,109.5,0,164.2c0,8.9,0.1,17.8,3.2,26.4c5.6,15.5,16.8,23.7,32.9,25.6
							c3.1,0.4,6.3,0.6,9.4,1c0.7,0.1,1.9,1,1.9,1.6c0.2,3.8,0.1,7.7,0.1,11.7c-50,0-99.7,0-149.6,0c0-4.5,0-8.9,0-13.5
							c4.7-0.5,9.4-0.9,14.1-1.4c17.2-1.8,28.2-12.9,31-30.1c2.2-13.3,1.5-26.7,1.6-40c0.1-50.9,0-101.7,0-152.6
							c0-3.4-0.2-6.7-0.5-10.1c-0.1-0.7-1.2-1.3-1.9-1.8c-0.3-0.2-1,0-1.5,0c-61.8,0-123.6,0-185.3,0.1c-6,0-12.1,0.5-18.1,1.3
							c-11,1.4-17.6,9.3-18.3,21.1c-0.5,10-1.2,20-1.8,30.2c-3.1,0-6,0-9.1,0c0-27.9,0-55.6,0-83.5
							C183.4,165.4,330.1,165.4,477,165.4z"/>
						<path class="st2" d="M191.3,456.3c0,9.4,0,18.8,0,28.4c-54.1,0-108.1,0-162.4,0c0-9.4,0-18.9,0-28.5c4.8-0.3,9.5-0.4,14.2-0.9
							c16.9-1.7,26.3-9.7,30.9-26.2c3.5-12.5,4.2-25.4,4.2-38.3c0.2-59.7,0.4-119.4,0.5-179c0-1.3,0-2.5,0-4.2c21,0,41.8,0,62.9,0
							c0,17.1,0,34.3,0,51.9c40.2,0,80,0,120,0c0.1,1.4,0.2,2.5,0.2,3.5c0,7.3-0.1,14.7,0.1,22c0.1,2.9-0.8,3.7-3.7,3.7
							c-24.1-0.1-48.2-0.1-72.3-0.1c-13.5,0-27,0.1-40.5-0.1c-2.9,0-4,0.6-3.9,3.8c0.1,25.2-0.1,50.4,0.1,75.6
							c0.1,14.5,0.6,28.9,1.7,43.3c0.5,7.1,2.3,14.3,4.5,21.1c4.4,13.5,14.6,20.2,28.2,22.3C181,455.5,186,455.8,191.3,456.3z"/>
						<path class="st2" d="M141.4,154c-21,0-41.6,0-62.6,0c-0.1-1.1-0.1-2.2-0.2-3.2c-0.2-17.6-0.3-35.3-0.7-52.9
							c-0.3-11.7-1.4-23.3-5.2-34.5C68.3,50,59.1,42.6,45.2,41c-4.3-0.5-8.7-0.5-13-0.7c-1.1-0.1-2.1,0-3.6,0c0-3,0-5.7,0-8.3
							c0-6,0.1-12.1,0-18.1c0-1.9,0.6-2.8,2.6-2.6c0.6,0.1,1.2,0,1.8,0c51.4,0,102.7,0,154.1,0c4.4,0,4.4,0,4.4,4.3
							c0,7.1-0.1,14.3,0.1,21.4c0.1,2.6-0.7,3.3-3.3,3.5c-5.6,0.4-11.3,0.9-16.8,2.1c-13.1,2.8-20.8,11.5-24.6,24
							c-4.2,13.6-4.4,27.7-4.7,41.8c-0.3,14.3-0.3,28.5-0.5,42.8C141.6,152,141.5,152.8,141.4,154z"/>
						<path class="st2" d="M271.4,153.2c-1-7.6-1.7-15-3.1-22.2c-0.8-4.3-2.4-8.6-4.3-12.6c-4.4-9-12-13.7-21.8-14.9
							c-4.4-0.5-8.9-0.6-13.3-0.7c-1.6,0-2.6-0.3-2.6-2.3c0-7.7,0-15.4,0-23.5c48.9,0,97.6,0,146.6,0c0.1,0.9,0.2,1.9,0.2,2.8
							c0,6.1,0.1,12.3,0.1,18.4c0,4.4-0.1,4-4.2,4.5c-6.3,0.8-12.9,1.5-18.8,3.6c-10.7,3.8-15.7,12.9-18,23.4
							c-1.3,5.6-1.7,11.3-2.5,17c-0.3,2-0.4,4.1-0.7,6.3C309.6,153.2,290.5,153.2,271.4,153.2z"/>
					</g>
				</g>
			</g>
			<g>
				<g>
					<g>
						<path class="st2" d="M28.6,165.4c0,28.1,0,55.7,0,83.6c4.5,0,9,0,13.8,0c0.2-3.5,0.5-7,0.7-10.5c0.4-6.3,0.6-12.7,1.2-19
							c1.3-12.3,7.5-18.5,19.9-19.5c9.9-0.8,19.8-1.1,29.7-1.1c26.1-0.1,52.2,0,78.2-0.1c3.1,0,4.3,0.9,4.4,3.9
							c0.1,4.3,0.6,8.5,0.6,12.8c0,54.7,0,109.5,0,164.2c0,8.9-0.1,17.8-3.2,26.4c-5.6,15.5-16.8,23.7-32.9,25.6
							c-3.1,0.4-6.3,0.6-9.4,1c-0.7,0.1-1.9,1-1.9,1.6c-0.2,3.8-0.1,7.7-0.1,11.7c50,0,99.7,0,149.6,0c0-4.5,0-8.9,0-13.5
							c-4.7-0.5-9.4-0.9-14.1-1.4c-17.2-1.8-28.2-12.9-31-30.1c-2.2-13.3-1.5-26.7-1.6-40c-0.1-50.9,0-101.7,0-152.6
							c0-3.4,0.2-6.7,0.5-10.1c0.1-0.7,1.2-1.3,1.9-1.8c0.3-0.2,1,0,1.5,0c61.8,0,123.6,0,185.3,0.1c6,0,12.1,0.5,18.1,1.3
							c11,1.4,17.6,9.3,18.3,21.1c0.5,10,1.2,20,1.8,30.2c3.1,0,6,0,9.1,0c0-27.9,0-55.6,0-83.5C322.2,165.4,175.5,165.4,28.6,165.4
							z"/>
						<path class="st2" d="M314.3,456.3c0,9.4,0,18.8,0,28.4c54.1,0,108.1,0,162.4,0c0-9.4,0-18.9,0-28.5c-4.8-0.3-9.5-0.4-14.2-0.9
							c-16.9-1.7-26.3-9.7-30.9-26.2c-3.5-12.5-4.2-25.4-4.2-38.3c-0.2-59.7-0.4-119.4-0.5-179c0-1.3,0-2.5,0-4.2
							c-21,0-41.8,0-62.9,0c0,17.1,0,34.3,0,51.9c-40.2,0-80,0-120,0c-0.1,1.4-0.2,2.5-0.2,3.5c0,7.3,0.1,14.7-0.1,22
							c-0.1,2.9,0.8,3.7,3.7,3.7c24.1-0.1,48.2-0.1,72.3-0.1c13.5,0,27,0.1,40.5-0.1c2.9,0,4,0.6,3.9,3.8
							c-0.1,25.2,0.1,50.4-0.1,75.6c-0.1,14.5-0.6,28.9-1.7,43.3c-0.5,7.1-2.3,14.3-4.5,21.1c-4.4,13.5-14.6,20.2-28.2,22.3
							C324.6,455.5,319.7,455.8,314.3,456.3z"/>
						<path class="st2" d="M364.2,154c21,0,41.6,0,62.6,0c0.1-1.1,0.1-2.2,0.2-3.2c0.2-17.6,0.3-35.3,0.7-52.9
							c0.3-11.7,1.4-23.3,5.2-34.5c4.5-13.3,13.7-20.8,27.5-22.3c4.3-0.5,8.7-0.5,13-0.7c1.1-0.1,2.1,0,3.6,0c0-3,0-5.7,0-8.3
							c0-6-0.1-12.1,0-18.1c0-1.9-0.6-2.8-2.6-2.6c-0.6,0.1-1.2,0-1.8,0c-51.4,0-102.7,0-154.1,0c-4.4,0-4.4,0-4.4,4.3
							c0,7.1,0.1,14.3-0.1,21.4c-0.1,2.6,0.7,3.3,3.3,3.5c5.6,0.4,11.3,0.9,16.8,2.1c13.1,2.8,20.8,11.5,24.6,24
							c4.2,13.6,4.4,27.7,4.7,41.8c0.3,14.3,0.3,28.5,0.5,42.8C364,152,364.1,152.8,364.2,154z"/>
						<path class="st2" d="M234.2,153.2c1-7.6,1.7-15,3.1-22.2c0.8-4.3,2.4-8.6,4.3-12.6c4.4-9,12-13.7,21.8-14.9
							c4.4-0.5,8.9-0.6,13.3-0.7c1.6,0,2.6-0.3,2.6-2.3c0-7.7,0-15.4,0-23.5c-48.9,0-97.6,0-146.6,0c-0.1,0.9-0.2,1.9-0.2,2.8
							c0,6.1-0.1,12.3-0.1,18.4c0,4.4,0.1,4,4.2,4.5c6.3,0.8,12.9,1.5,18.8,3.6c10.7,3.8,15.7,12.9,18,23.4c1.3,5.6,1.7,11.3,2.5,17
							c0.3,2,0.4,4.1,0.7,6.3C196,153.2,215.1,153.2,234.2,153.2z"/>
					</g>
				</g>
			</g>
		</g>
	</g>
</g>
<g id="Layer_2_1_" class="st0">
	<g class="st1">
		<g>
			<defs>
				<rect id="SVGID_1_" x="-771" y="-223.6" width="595" height="841.2"/>
			</defs>
			<clipPath id="SVGID_2_">
				<use xlink:href="#SVGID_1_"  style="overflow:visible;"/>
			</clipPath>
			<g class="st3">
			</g>
		</g>
	</g>
</g>
<g>
	<path class="st4" d="M93.1,14.5c29.8,0,58.3,0,87.8,0c0,3.9,0,7.4,0,10.9c0,41.2-0.1,82.3,0.2,123.5c0,3.7,2.1,9,5,10.9
		c28.3,18.9,43,45.4,43.3,78.9c0.6,67.4,0.3,134.8,0.1,202.2c0,19.3-12.3,31.2-31.5,31.2c-39.1,0.1-78.1,0-117.2,0
		c-26.2,0-36.6-10.5-36.6-37.1c0-63.2-0.1-126.5,0.1-189.7c0-8.9,0.8-17.9,2.5-26.6c5-24.9,18.7-44.3,40-58c5-3.2,6.5-6.7,6.5-12.3
		C93,107.7,93.1,66.8,93.1,26C93.1,22.4,93.1,18.9,93.1,14.5z M161.3,82.9c-16.8,0-32.4,0-48.8,0c0,3.9,0,7.1,0,10.3
		c0,23-0.1,45.9,0.1,68.9c0,4.7-1,7.4-5.7,9.6c-38.6,19-47.6,53.1-41.7,95.9c31.6,0,63.4,0,95.7,0c0,36,0,71,0,107.3
		c-32.5,0-64.5,0-97.2,0c0,22.1-0.1,42.9,0,63.7c0.1,10.8,3.1,13.9,13.8,13.9c39.7,0.1,79.3,0.1,119,0c10.2,0,13.4-3.2,13.4-13.4
		c0.1-66.5,0.3-133-0.1-199.5c-0.2-30.4-14.1-53.1-41.4-66.9c-5.8-2.9-7.4-6.3-7.3-12.3C161.5,134.9,161.3,109.3,161.3,82.9z
		 M141.4,287.7c-25.8,0-51.2,0-77.1,0c0,22.5,0,44.6,0,67c26,0,51.4,0,77.1,0C141.4,332.1,141.4,310.2,141.4,287.7z M160.8,34.1
		c-16.1,0-31.7,0-47.8,0c0,9.6,0,18.6,0,28c16.1,0,31.7,0,47.8,0C160.8,52.6,160.8,43.5,160.8,34.1z"/>
	<path class="st4" d="M385.8,325.9c0,42.2,0,83.9,0,126.6c19.2,0,38.1,0,57.6,0c0,6.8,0,12.6,0,19.1c-44.9,0-89.8,0-135.4,0
		c0-5.8,0-11.9,0-18.6c19,0,37.7,0,57.1,0c0-42.6,0-84.4,0-127.1c-2.4-0.5-5.2-1.3-8-1.8c-59.3-11.7-93.6-72.6-72.5-129.3
		c6.1-16.4,13.4-32.5,20.7-48.4c1.1-2.5,5.1-5.1,7.7-5.1c41.7-0.3,83.5-0.3,125.2,0c2.6,0,6.5,2.7,7.7,5.2
		c6.8,14.5,13.5,29.2,19.4,44.2c23.7,59.8-9.7,120.9-72.8,133.9C390.5,324.8,388.5,325.3,385.8,325.9z M299.1,219.3
		c-5.5,26.6,8.9,57.7,33.7,74.1c26.5,17.5,61.4,17.1,87.5-1.1c24-16.7,37.7-48,31.8-73C401.1,219.3,350.1,219.3,299.1,219.3z
		 M303.7,198.5c48.6,0,95.7,0,144,0c-5.3-12.2-10.1-23.4-15.3-34.3c-0.9-1.8-4-3.5-6.1-3.5c-33.7-0.2-67.4-0.2-101,0
		c-2.1,0-5.4,1.6-6.2,3.4C313.8,174.9,309.1,186.1,303.7,198.5z"/>
</g>
</svg>
