<?xml version="1.0" encoding="utf-8"?>
<!-- Generator: Adobe Illustrator 22.0.0, SVG Export Plug-In . SVG Version: 6.00 Build 0)  -->
<svg version="1.1" xmlns="http://www.w3.org/2000/svg" xmlns:xlink="http://www.w3.org/1999/xlink" x="0px" y="0px"
	 viewBox="0 0 500 500" style="enable-background:new 0 0 500 500;" xml:space="preserve">
<style type="text/css">
	.st0{display:none;}
	.st1{display:inline;}
	.st2{fill:#333435;}
	.st3{fill:#0756A0;}
	.st4{font-family:'CelticGaramondthe2nd';}
	.st5{font-size:170.4382px;}
	.st6{font-family:'DRAGONFIRE';}
	.st7{font-size:32.1949px;}
</style>
<g id="Layer_1" class="st0">
	<g class="st1">
		<g>
			<g>
				<g>
					<g>
						<path class="st2" d="M477,165.4c0,28.1,0,55.7,0,83.6c-4.5,0-9,0-13.8,0c-0.2-3.5-0.5-7-0.7-10.5c-0.4-6.3-0.6-12.7-1.2-19
							c-1.3-12.3-7.5-18.5-19.9-19.5c-9.9-0.8-19.8-1.1-29.7-1.1c-26.1-0.1-52.2,0-78.2-0.1c-3.1,0-4.3,0.9-4.4,3.9
							c-0.1,4.3-0.6,8.5-0.6,12.8c0,54.7,0,109.5,0,164.2c0,8.9,0.1,17.8,3.2,26.4c5.6,15.5,16.8,23.7,32.9,25.6
							c3.1,0.4,6.3,0.6,9.4,1c0.7,0.1,1.9,1,1.9,1.6c0.2,3.8,0.1,7.7,0.1,11.7c-50,0-99.7,0-149.6,0c0-4.5,0-8.9,0-13.5
							c4.7-0.5,9.4-0.9,14.1-1.4c17.2-1.8,28.2-12.9,31-30.1c2.2-13.3,1.5-26.7,1.6-40c0.1-50.9,0-101.7,0-152.6
							c0-3.4-0.2-6.7-0.5-10.1c-0.1-0.7-1.2-1.3-1.9-1.8c-0.3-0.2-1,0-1.5,0c-61.8,0-123.6,0-185.3,0.1c-6,0-12.1,0.5-18.1,1.3
							c-11,1.4-17.6,9.3-18.3,21.1c-0.5,10-1.2,20-1.8,30.2c-3.1,0-6,0-9.1,0c0-27.9,0-55.6,0-83.5
							C183.4,165.4,330.1,165.4,477,165.4z"/>
						<path class="st2" d="M191.3,456.3c0,9.4,0,18.8,0,28.4c-54.1,0-108.1,0-162.4,0c0-9.4,0-18.9,0-28.5c4.8-0.3,9.5-0.4,14.2-0.9
							c16.9-1.7,26.3-9.7,30.9-26.2c3.5-12.5,4.2-25.4,4.2-38.3c0.2-59.7,0.4-119.4,0.5-179c0-1.3,0-2.5,0-4.2c21,0,41.8,0,62.9,0
							c0,17.1,0,34.3,0,51.9c40.2,0,80,0,120,0c0.1,1.4,0.2,2.5,0.2,3.5c0,7.3-0.1,14.7,0.1,22c0.1,2.9-0.8,3.7-3.7,3.7
							c-24.1-0.1-48.2-0.1-72.3-0.1c-13.5,0-27,0.1-40.5-0.1c-2.9,0-4,0.6-3.9,3.8c0.1,25.2-0.1,50.4,0.1,75.6
							c0.1,14.5,0.6,28.9,1.7,43.3c0.5,7.1,2.3,14.3,4.5,21.1c4.4,13.5,14.6,20.2,28.2,22.3C181,455.5,186,455.8,191.3,456.3z"/>
						<path class="st2" d="M141.4,154c-21,0-41.6,0-62.6,0c-0.1-1.1-0.1-2.2-0.2-3.2c-0.2-17.6-0.3-35.3-0.7-52.9
							c-0.3-11.7-1.4-23.3-5.2-34.5C68.3,50,59.1,42.6,45.2,41c-4.3-0.5-8.7-0.5-13-0.7c-1.1-0.1-2.1,0-3.6,0c0-3,0-5.7,0-8.3
							c0-6,0.1-12.1,0-18.1c0-1.9,0.6-2.8,2.6-2.6c0.6,0.1,1.2,0,1.8,0c51.4,0,102.7,0,154.1,0c4.4,0,4.4,0,4.4,4.3
							c0,7.1-0.1,14.3,0.1,21.4c0.1,2.6-0.7,3.3-3.3,3.5c-5.6,0.4-11.3,0.9-16.8,2.1c-13.1,2.8-20.8,11.5-24.6,24
							c-4.2,13.6-4.4,27.7-4.7,41.8c-0.3,14.3-0.3,28.5-0.5,42.8C141.6,152,141.5,152.8,141.4,154z"/>
						<path class="st2" d="M271.4,153.2c-1-7.6-1.7-15-3.1-22.2c-0.8-4.3-2.4-8.6-4.3-12.6c-4.4-9-12-13.7-21.8-14.9
							c-4.4-0.5-8.9-0.6-13.3-0.7c-1.6,0-2.6-0.3-2.6-2.3c0-7.7,0-15.4,0-23.5c48.9,0,97.6,0,146.6,0c0.1,0.9,0.2,1.9,0.2,2.8
							c0,6.1,0.1,12.3,0.1,18.4c0,4.4-0.1,4-4.2,4.5c-6.3,0.8-12.9,1.5-18.8,3.6c-10.7,3.8-15.7,12.9-18,23.4
							c-1.3,5.6-1.7,11.3-2.5,17c-0.3,2-0.4,4.1-0.7,6.3C309.6,153.2,290.5,153.2,271.4,153.2z"/>
					</g>
				</g>
			</g>
			<g>
				<g>
					<g>
						<path class="st2" d="M28.6,165.4c0,28.1,0,55.7,0,83.6c4.5,0,9,0,13.8,0c0.2-3.5,0.5-7,0.7-10.5c0.4-6.3,0.6-12.7,1.2-19
							c1.3-12.3,7.5-18.5,19.9-19.5c9.9-0.8,19.8-1.1,29.7-1.1c26.1-0.1,52.2,0,78.2-0.1c3.1,0,4.3,0.9,4.4,3.9
							c0.1,4.3,0.6,8.5,0.6,12.8c0,54.7,0,109.5,0,164.2c0,8.9-0.1,17.8-3.2,26.4c-5.6,15.5-16.8,23.7-32.9,25.6
							c-3.1,0.4-6.3,0.6-9.4,1c-0.7,0.1-1.9,1-1.9,1.6c-0.2,3.8-0.1,7.7-0.1,11.7c50,0,99.7,0,149.6,0c0-4.5,0-8.9,0-13.5
							c-4.7-0.5-9.4-0.9-14.1-1.4c-17.2-1.8-28.2-12.9-31-30.1c-2.2-13.3-1.5-26.7-1.6-40c-0.1-50.9,0-101.7,0-152.6
							c0-3.4,0.2-6.7,0.5-10.1c0.1-0.7,1.2-1.3,1.9-1.8c0.3-0.2,1,0,1.5,0c61.8,0,123.6,0,185.3,0.1c6,0,12.1,0.5,18.1,1.3
							c11,1.4,17.6,9.3,18.3,21.1c0.5,10,1.2,20,1.8,30.2c3.1,0,6,0,9.1,0c0-27.9,0-55.6,0-83.5C322.2,165.4,175.5,165.4,28.6,165.4
							z"/>
						<path class="st2" d="M314.3,456.3c0,9.4,0,18.8,0,28.4c54.1,0,108.1,0,162.4,0c0-9.4,0-18.9,0-28.5c-4.8-0.3-9.5-0.4-14.2-0.9
							c-16.9-1.7-26.3-9.7-30.9-26.2c-3.5-12.5-4.2-25.4-4.2-38.3c-0.2-59.7-0.4-119.4-0.5-179c0-1.3,0-2.5,0-4.2
							c-21,0-41.8,0-62.9,0c0,17.1,0,34.3,0,51.9c-40.2,0-80,0-120,0c-0.1,1.4-0.2,2.5-0.2,3.5c0,7.3,0.1,14.7-0.1,22
							c-0.1,2.9,0.8,3.7,3.7,3.7c24.1-0.1,48.2-0.1,72.3-0.1c13.5,0,27,0.1,40.5-0.1c2.9,0,4,0.6,3.9,3.8
							c-0.1,25.2,0.1,50.4-0.1,75.6c-0.1,14.5-0.6,28.9-1.7,43.3c-0.5,7.1-2.3,14.3-4.5,21.1c-4.4,13.5-14.6,20.2-28.2,22.3
							C324.6,455.5,319.7,455.8,314.3,456.3z"/>
						<path class="st2" d="M364.2,154c21,0,41.6,0,62.6,0c0.1-1.1,0.1-2.2,0.2-3.2c0.2-17.6,0.3-35.3,0.7-52.9
							c0.3-11.7,1.4-23.3,5.2-34.5c4.5-13.3,13.7-20.8,27.5-22.3c4.3-0.5,8.7-0.5,13-0.7c1.1-0.1,2.1,0,3.6,0c0-3,0-5.7,0-8.3
							c0-6-0.1-12.1,0-18.1c0-1.9-0.6-2.8-2.6-2.6c-0.6,0.1-1.2,0-1.8,0c-51.4,0-102.7,0-154.1,0c-4.4,0-4.4,0-4.4,4.3
							c0,7.1,0.1,14.3-0.1,21.4c-0.1,2.6,0.7,3.3,3.3,3.5c5.6,0.4,11.3,0.9,16.8,2.1c13.1,2.8,20.8,11.5,24.6,24
							c4.2,13.6,4.4,27.7,4.7,41.8c0.3,14.3,0.3,28.5,0.5,42.8C364,152,364.1,152.8,364.2,154z"/>
						<path class="st2" d="M234.2,153.2c1-7.6,1.7-15,3.1-22.2c0.8-4.3,2.4-8.6,4.3-12.6c4.4-9,12-13.7,21.8-14.9
							c4.4-0.5,8.9-0.6,13.3-0.7c1.6,0,2.6-0.3,2.6-2.3c0-7.7,0-15.4,0-23.5c-48.9,0-97.6,0-146.6,0c-0.1,0.9-0.2,1.9-0.2,2.8
							c0,6.1-0.1,12.3-0.1,18.4c0,4.4,0.1,4,4.2,4.5c6.3,0.8,12.9,1.5,18.8,3.6c10.7,3.8,15.7,12.9,18,23.4c1.3,5.6,1.7,11.3,2.5,17
							c0.3,2,0.4,4.1,0.7,6.3C196,153.2,215.1,153.2,234.2,153.2z"/>
					</g>
				</g>
			</g>
		</g>
	</g>
</g>
<g id="Layer_3">
	<text transform="matrix(1 0 0 1 419.343 315.4193)" class="st3 st4 st5">1</text>
	<text transform="matrix(1 0 0 1 29.5618 220.9247)" class="st3 st6 st7">VUT</text>
	<g>
		<g>
			<g>
				<path class="st3" d="M145.1,291.5c-8.7,0-17.2,0-25.8,0c0-1.3,0-2.5,0-3.7c1.2-0.2,2.3-0.3,3.4-0.5c2.1-0.4,3.5-1.7,3.8-3.7
					c0.4-2.7,0.4-5.5,0.6-8.3c0.1-1.3-0.3-1.9-1.6-2.5c-9.5-4.3-19-8.8-28.5-13.1c-0.1,0-0.2-0.1-0.2-0.1c0,0.1-0.1,0.1-0.1,0.2
					c0,6.8,0,13.5,0.1,20.3c0,1.1,0.2,2.2,0.4,3.2c0.6,2.6,2.1,3.8,4.7,4.1c0.9,0.1,1.6,0.2,2.5,0.2c0,1.3,0,2.5,0,3.8
					c-8.5,0-17.1,0-25.8,0c0-1.3,0-2.5,0-3.8c1-0.1,1.9-0.1,2.9-0.2c2.5-0.3,4-1.5,4.3-3.9c0.4-2.9,0.6-6,0.6-9c0.1-8.7,0-17.3,0-26
					c0-5.2,1.3-10.1,4.7-14.3c3.2-4,7.6-6.3,12.4-7.4c7.1-1.5,14.2-1.3,21,1.5c7.5,3.1,11.4,9.2,12.2,17.1c0.3,3.4,0.2,6.8,0.2,10.2
					c0,7.6,0,15,0.1,22.6c0,1.4,0.1,2.7,0.3,4.1c0.5,3.6,2.1,4.9,5.6,5.2c1.9,0.1,1.9,0.1,1.9,2.1
					C145.1,290.2,145.1,290.7,145.1,291.5z M127.1,260.4c0-5.5,0.2-10.9,0-16.2c-0.2-4.3-2.1-8-5.7-10.5c-3.7-2.4-7.8-2.7-12-2.3
					c-2.3,0.2-4.4,0.8-6.4,2.1c-4.4,2.8-6,7.1-6.3,12.1c0,0.8,0.2,1.1,0.9,1.4c7.2,3.4,14.5,6.7,21.9,10.1
					C121.9,258,124.3,259.1,127.1,260.4z M127.1,269.4c0-1.3-0.1-2.5,0-3.6c0.1-1.2-0.3-1.7-1.4-2.2c-8.3-3.8-16.7-7.7-25-11.5
					c-1.3-0.6-2.7-1.2-4.1-1.8c0,1.2,0.1,2.3,0,3.4c-0.2,1.3,0.4,1.9,1.6,2.5c7,3.1,14,6.4,21,9.6
					C121.7,266.9,124.3,268.1,127.1,269.4z"/>
				<path class="st3" d="M389,259.4c0,0.1-0.1,0.2-0.1,0.3c0,6.7,0,13.5,0.1,20.2c0,1.1,0.2,2.2,0.4,3.1c0.6,2.6,2.1,3.9,4.8,4.2
					c0.8,0.1,1.6,0.1,2.5,0.2c0,1.2,0,2.5,0,3.8c-8.5,0-17.1,0-25.6,0c0-1.2,0-2.5,0-3.8c1-0.1,1.9-0.1,2.9-0.2
					c2.4-0.3,3.9-1.5,4.2-3.9c0.4-3,0.6-6.1,0.6-9.1c0.1-8.7,0-17.3,0-26c0-5.3,1.3-10.3,4.8-14.4c2.6-3.1,5.8-5.2,9.6-6.4
					c7.7-2.4,15.5-2.4,22.9,0.5c7.9,3,12.1,9.1,12.8,17.3c0.5,5.8,0.2,11.7,0.3,17.5c0.1,6,0.1,11.9,0.2,17.9c0,0.6,0.1,1.3,0.2,1.9
					c0.6,2.9,1.9,4.2,4.9,4.5c0.5,0.1,1,0.1,1.5,0.1c0.8,0,1.2,0.2,1.1,1.2c-0.1,0.9,0,1.7,0,2.7c-8.7,0-17.2,0-25.8,0
					c0-1.2,0-2.5,0-3.7c1.1-0.2,2.3-0.3,3.5-0.5c2.1-0.4,3.5-1.6,3.7-3.7c0.4-3.2,0.4-6.5,0.6-9.7c0-0.2-0.4-0.5-0.6-0.8
					c-4.1-1.9-8.1-3.8-12.2-5.6c-5.6-2.6-11.3-5.2-16.9-7.8C389.3,259.5,389.2,259.5,389,259.4z M419.3,260.4c0-0.4,0-0.8,0-1.1
					c0-4.3,0-8.7,0-13c0-1.1,0-2.3-0.2-3.4c-0.9-5.5-3.9-9.4-9.3-11.1c-2.8-0.9-5.6-0.9-8.4-0.5c-2.2,0.2-4.3,0.8-6.2,1.9
					c-4.3,2.7-6,6.9-6.3,11.8c-0.1,1.1,0.2,1.5,1.2,1.9c7.8,3.6,15.5,7.1,23.2,10.7C415.3,258.6,417.2,259.4,419.3,260.4z
					 M388.9,250.2c0,1.1,0.1,2.2,0,3.1c-0.2,1.5,0.4,2.2,1.7,2.8c7.8,3.5,15.5,7.1,23.2,10.7c1.7,0.9,3.6,1.6,5.5,2.5
					c0-1.2-0.1-2.3,0-3.2c0.2-1.5-0.4-2.2-1.7-2.7c-7.1-3.2-14.3-6.5-21.4-9.7C393.9,252.5,391.4,251.4,388.9,250.2z"/>
				<path class="st3" d="M327.2,287.8c0,1.3,0,2.5,0,3.8c-8.5,0-17.1,0-25.8,0c0-1.1,0-2.2,0-3.2c0-0.2,0.3-0.4,0.6-0.5
					c0.6-0.1,1.4-0.1,2.1-0.2c2.6-0.2,4.3-1.5,4.7-4.1c0.4-2.7,0.5-5.5,0.6-8.2c0.1-8.9,0-17.7,0-26.6c0-4.4,0.9-8.8,3.2-12.6
					c3-4.9,7.5-7.7,13-9c6.8-1.6,13.6-1.7,20.2,0.6c8.3,3,13,9.1,13.6,17.7c0.4,5.7,0.2,11.6,0.2,17.4c0.1,6,0.1,11.9,0.2,17.9
					c0,0.6,0.1,1.3,0.2,1.9c0.6,3.1,2.3,4.5,5.6,4.8c0.6,0,1.3,0,2.1,0c0,0.8,0,1.4,0,2.1s0,1.3,0,1.9c-8.4,0-16.9,0-25.3,0
					c0-1.3,0-2.5,0-3.8c1-0.1,1.9-0.2,2.9-0.4c2.2-0.4,3.7-1.7,4-3.9c0.4-2.6,0.5-5.3,0.6-7.9c0.1-10,0-19.8,0-29.8
					c0-4.3-1.1-8.2-4.4-11.3c-2.5-2.4-5.6-3.2-8.9-3.5c-3-0.2-6.1-0.1-9,1.1c-4.9,2.1-7.4,5.7-8.1,10.8c-0.2,1.7-0.2,3.6-0.2,5.3
					c0,10,0,19.9,0,29.9c0,1.5,0.1,2.9,0.3,4.4c0.5,3.2,2.3,4.8,5.5,5C326,287.7,326.6,287.7,327.2,287.8z"/>
				<path class="st3" d="M268.4,287.6c0,1.3,0,2.5,0,3.8c-6.5,0-13,0-19.5,0c0-1.2,0-2.4,0-3.7c0.4,0,0.9,0,1.2,0
					c0.8-0.1,1.5-0.2,2.3-0.4c1.3-0.4,1.8-1.3,1.8-2.8c0-17,0-34,0-51c0-2.5-0.9-3.5-3.5-3.7c-0.6,0-1.2,0-1.8,0c0-1.3,0-2.5,0-3.7
					c0.2,0,0.3-0.1,0.5-0.1c8.4,0,16.9-0.1,25.3,0c5.5,0.1,10.7,1.3,15.3,4.7c4.5,3.2,6.8,7.8,7.1,13.3c0.2,3.8-0.3,7.5-2.5,10.8
					c-2.1,3.2-5.2,5.3-8.8,6.6c-1.6,0.5-3.2,1-4.9,1.4c-0.2,0.1-0.4,0.1-0.8,0.2c1.5,2.7,2.9,5.4,4.4,8.1c2.2,3.9,4.2,7.8,6.4,11.7
					c0.2,0.3,0.4,0.6,0.6,1.1c1.3,2.6,3.5,3.8,6.2,3.9c0.2,0,0.5,0,0.9,0.1c0,1.2,0,2.3,0,3.5c-6.4,0-12.8,0-19.2,0
					c0-1.2,0-2.4,0-3.6c0.8,0,1.4-0.1,2.2-0.1c0.8-0.1,1.1-0.5,0.9-1.3c-0.3-0.8-0.6-1.5-1.1-2.2c-3.6-6.6-7.2-13.1-10.8-19.7
					c-0.4-0.6-0.9-0.9-1.6-0.9c-1.9,0-3.8,0-5.8,0c0,0.4,0,0.9,0,1.3c0,6.5,0,12.9,0,19.4c0,2.1,1.1,3.2,3.2,3.4
					C267.1,287.7,267.7,287.6,268.4,287.6z M263.4,259.9c0.1,0,0.2,0.1,0.3,0.1c3.5,0,6.8,0.1,10.3-0.1c5-0.3,9.3-2.3,12.1-6.5
					c2.3-3.5,2.5-7.4,1.9-11.4c-1-6.2-5.7-11.3-12-12.1c-3.4-0.4-6.7-0.2-10.1-0.1c-0.5,0-1.4,0.6-1.6,1.2c-0.5,1.2-1,2.4-1,3.7
					c-0.1,8.3-0.1,16.6-0.1,24.9C263.3,259.6,263.3,259.8,263.4,259.9z"/>
				<path class="st3" d="M147.9,291.2c0-1.1,0-2.1,0-3.2c0.3,0,0.8,0.1,1.1,0c1.1-0.3,2.2-0.5,3.2-1c0.8-0.3,1.1-1.1,1.1-1.9
					c0-17.5,0-35.1,0-52.6c0-1.2-0.5-1.9-1.5-2.3c-1.2-0.4-2.5-0.6-3.9-1c0-0.9,0-1.8,0-3.1c1.3,0,2.6,0,3.9,0c8.2,0,16.4,0,24.6,0
					c4.1,0,8.1,0.6,12,2.4c4.1,1.7,7.5,4.4,9.3,8.5c2.4,5.4,1,11.8-3.6,15.8c-2.5,2.3-5.4,3.9-8.8,5.1c1.1,0.3,1.8,0.6,2.7,1
					c3.9,1.5,7.4,3.6,10.1,6.9c5.6,6.8,3.7,17.1-4,21.5c-4.2,2.4-8.9,3.7-13.6,3.8c-10.7,0.2-21.4,0.2-32.1,0.2
					C148.2,291.3,148,291.3,147.9,291.2z M161.9,259.8c0,0.6,0,0.9,0,1.2c0,8.1,0,16.2,0,24.2c0,1.7,0.5,2.5,2.3,2.5
					c4.8,0.1,9.4,0.1,14.2-0.2c3.2-0.2,6.3-1.4,9-3.2c5.6-3.8,7-11.8,3.2-17.3c-2.9-4.1-7.1-6.2-11.9-6.7
					C173.1,260,167.6,260,161.9,259.8z M161.9,256.6c0.3,0,0.4,0.1,0.6,0.1c3.9,0,7.7,0,11.6,0c2.5,0,5-0.4,7.2-1.3
					c7.8-2.9,10.2-10.3,7.8-16.9c-1.9-5.3-6.2-8.1-11.6-8.7c-4.1-0.4-8.3-0.2-12.6-0.3c-1.3,0-2.2,0.9-2.4,2.1
					c-0.3,1.5-0.6,3-0.6,4.5c-0.1,5.2,0,10.4,0,15.5C161.9,253.3,161.9,254.9,161.9,256.6z"/>
				<path class="st3" d="M50.7,232.4c-4,0-8,0-11.9,0c-5.2,0-10.4,0-15.5,0c-1,0-1.8,0.1-2.8,0.2c-1.3,0.1-2.1,0.9-2.2,2.2
					c-0.1,1.1-0.1,2.3-0.2,3.5c0,0.8-0.1,1.5-0.1,2.2c-1.1,0-2.1,0-3,0c0-4.8,0-9.5,0-14.4c22.8,0,45.6,0,68.4,0c0,4.8,0,9.5,0,14.4
					c-1.2,0-2.5,0-3.8,0c-0.1-1.4-0.1-2.8-0.2-4.1c-0.1-2.6-0.6-3.2-3.2-3.4c-2.4-0.1-4.9,0-7.2-0.1c-2.6,0-5.2,0-7.9,0
					c0,0.3-0.1,0.5-0.1,0.8c0,14.8,0,29.6,0,44.6c0,1.4,0.1,2.9,0.3,4.3c0.5,3.4,2.3,5,5.6,5.2c0.6,0,1.3,0.1,1.9,0.1
					c0,1.3,0,2.6,0,3.9c-8.7,0-17.3,0-26.1,0c0-1.3,0-2.6,0-3.9c1-0.1,2.1-0.1,3-0.2c2.4-0.3,3.9-1.7,4.3-4c0.4-2.6,0.6-5.3,0.6-7.9
					c0.1-14.2,0-28.2,0-42.4C50.7,232.9,50.7,232.7,50.7,232.4z"/>
				<path class="st3" d="M216.5,233.6v19.8c0,0.5,0.4,0.9,0.9,0.9h17.2c0.5,0,0.9,0.4,0.9,0.9v2.1c0,0.5-0.4,0.9-0.9,0.9h-17.1
					c-0.5,0-0.9,0.4-0.9,0.9v24.6c0,0.5,0.4,0.9,0.9,0.9l0,0c6.7,0,13.4,0,20,0c0.8,0,1.6-0.1,2.4-0.1c1-0.1,1.6-0.6,1.7-1.6
					c0.2-1.7,0.2-3.5,0.3-5.1l0,0c0-0.4,0.4-0.9,0.9-0.9h1.3c0.5,0,0.9,0.4,0.9,0.9v12.3c0,0.5-0.4,0.9-0.9,0.9h-41.2
					c-0.5,0-0.9-0.4-0.9-0.9v-4.5c0-0.5,0.4-0.9,0.9-0.9h4.4c0.5,0,0.9-0.4,0.9-0.9c0-0.1,0-0.2,0-0.2c0-13.5,0-27.1,0-40.5
					c0-2.6-0.1-5.2-0.3-7.8c-0.3-3.4-1.9-4.8-5.3-4.9c-0.2,0-0.4,0-0.8-0.1c0-0.6,0-1.3,0-1.9v-1c0-0.5,0.4-0.9,0.9-0.9h41.2
					c0.5,0,0.9,0.4,0.9,0.9v12.2c0,0.5-0.4,0.9-0.9,0.9h-1.4c-0.5,0-0.9-0.4-0.9-0.9c0-0.9,0-1.8,0-2.7c-0.1-3.6-0.5-4.1-4.1-4.1
					c-6.7,0-13.5,0-20.2,0c-0.1,0-0.1,0-0.2,0C216.9,232.7,216.5,233.1,216.5,233.6z"/>
				<path class="st3" d="M315.8,288.1h-2.8c-1,0-1.8-0.9-1.8-1.8v-49.3c0-1,0.9-1.8,1.8-1.8h2.8c1,0,1.8,0.9,1.8,1.8v49.3
					C317.5,287.2,316.7,288.1,315.8,288.1z"/>
				<path class="st3" d="M315.2,283.2h-3.6c-1.3,0-2.3-1-2.3-2.3v-52.3c0-1.3,1-2.3,2.3-2.3h3.6c1.3,0,2.3,1,2.3,2.3v52.2
					C317.5,282.1,316.5,283.2,315.2,283.2z"/>
				<path class="st3" d="M283.4,396"/>
			</g>
			<g>
				<path class="st3" d="M29.7,272.3c0.4,0,0.9,0,1.1-0.1c0.2,0,0.4-0.2,0.5-0.3c0.1-0.2,0.2-0.5,0.2-1s0-1.1,0.1-1.8h1.3v5.8H15
					v-2.7h2.6v-16.6c0-1.1,0-1.9,0-2.7c0-0.8-0.1-1.3-0.3-1.7s-0.4-0.8-0.8-1c-0.3-0.2-0.9-0.3-1.5-0.3v-1.6h8.7v1.6h-0.3
					c-0.5,0-1.1,0.1-1.3,0.3c-0.3,0.2-0.5,0.5-0.6,1c-0.1,0.4-0.2,1-0.3,1.7c0,0.8,0,1.6,0,2.7v16.7C21,272.3,29.7,272.3,29.7,272.3
					z"/>
			</g>
			<g>
				<path class="st3" d="M34.4,246.9l5.7,13.5c0.5,1.3,1,2.4,1.5,3.2c0.4,0.9,0.9,1.6,1.3,2.3c0.4,0.5,1,1,1.4,1.3
					c0.5,0.3,1.1,0.4,1.7,0.5v1.2H35.2v-1.2h1c0.8,0,1.3-0.1,1.6-0.3c0.3-0.2,0.5-0.5,0.5-1.1c0-0.5-0.1-1.2-0.4-2.1
					c-0.2-0.9-0.6-1.8-1.2-3.1h-7.8c-0.5,1.3-1,2.4-1.2,3.1c-0.2,0.9-0.4,1.5-0.4,1.9s0.2,0.9,0.5,1.1c0.3,0.2,0.9,0.3,1.6,0.3h1.1
					v1.2h-9.2v-1.2c0.6-0.1,1.2-0.2,1.6-0.4s1-0.5,1.4-1.2c0.4-0.5,0.9-1.3,1.4-2.2c0.4-1,1-2.2,1.6-3.6l5.6-13.5h1.4V246.9z
					 M35.4,257.7h-5l-0.9,2.1h6.7L35.4,257.7z M31,256.4h3.9l-1.9-4.7L31,256.4z"/>
			</g>
		</g>
	</g>
</g>
<g id="Layer_2" class="st0">
</g>
</svg>
