<?xml version="1.0" encoding="utf-8"?>
<!-- Generator: Adobe Illustrator 22.0.0, SVG Export Plug-In . SVG Version: 6.00 Build 0)  -->
<svg version="1.1" id="Layer_1" xmlns="http://www.w3.org/2000/svg" xmlns:xlink="http://www.w3.org/1999/xlink" x="0px" y="0px"
	 viewBox="0 0 500 157" style="enable-background:new 0 0 500 157;" xml:space="preserve">
<style type="text/css">
	.st0{display:none;}
	.st1{display:inline;}
	.st2{fill:#333435;}
	.st3{fill:#0756A0;}
	.st4{font-family:'CelticGaramondthe2nd';}
	.st5{font-size:170.4382px;}
	.st6{font-family:'DRAGONFIRE';}
	.st7{font-size:34.0929px;}
	.st8{fill:#F1F2F2;}
	.st9{fill:#0955A0;}
	.st10{font-size:148.3454px;}
	.st11{letter-spacing:13;}
	.st12{fill:none;stroke:#0955A0;stroke-width:5;stroke-miterlimit:10;}
	.st13{display:none;fill:none;stroke:#0955A0;stroke-width:6;stroke-miterlimit:10;enable-background:new    ;}
	.st14{font-size:180.8753px;}
	.st15{font-size:120.407px;}
	.st16{enable-background:new    ;}
	.st17{fill:#F1F2F2;stroke:#0955A0;stroke-width:5;stroke-miterlimit:10;}
</style>
<g id="Layer_1_2_" class="st0">
	<g id="Layer_1_1_" class="st1">
		<g>
			<g>
				<g>
					<g>
						<g>
							<path class="st2" d="M477-5.6c0,28.1,0,55.7,0,83.6c-4.5,0-9,0-13.8,0c-0.2-3.5-0.5-7-0.7-10.5c-0.4-6.3-0.6-12.7-1.2-19
								C460,36.2,453.8,30,441.4,29c-9.9-0.8-19.8-1.1-29.7-1.1c-26.1-0.1-52.2,0-78.2-0.1c-3.1,0-4.3,0.9-4.4,3.9
								c-0.1,4.3-0.6,8.5-0.6,12.8c0,54.7,0,109.5,0,164.2c0,8.9,0.1,17.8,3.2,26.4c5.6,15.5,16.8,23.7,32.9,25.6
								c3.1,0.4,6.3,0.6,9.4,1c0.7,0.1,1.9,1,1.9,1.6c0.2,3.8,0.1,7.7,0.1,11.7c-50,0-99.7,0-149.6,0c0-4.5,0-8.9,0-13.5
								c4.7-0.5,9.4-0.9,14.1-1.4c17.2-1.8,28.2-12.9,31-30.1c2.2-13.3,1.5-26.7,1.6-40c0.1-50.9,0-101.7,0-152.6
								c0-3.4-0.2-6.7-0.5-10.1c-0.1-0.7-1.2-1.3-1.9-1.8c-0.3-0.2-1,0-1.5,0c-61.8,0-123.6,0-185.3,0.1c-6,0-12.1,0.5-18.1,1.3
								c-11,1.4-17.6,9.3-18.3,21.1c-0.5,10-1.2,20-1.8,30.2c-3.1,0-6,0-9.1,0c0-27.9,0-55.6,0-83.5C183.4-5.6,330.1-5.6,477-5.6z"
								/>
							<path class="st2" d="M191.3,285.3c0,9.4,0,18.8,0,28.4c-54.1,0-108.1,0-162.4,0c0-9.4,0-18.9,0-28.5
								c4.8-0.3,9.5-0.4,14.2-0.9c16.9-1.7,26.3-9.7,30.9-26.2c3.5-12.5,4.2-25.4,4.2-38.3c0.2-59.7,0.4-119.4,0.5-179
								c0-1.3,0-2.5,0-4.2c21,0,41.8,0,62.9,0c0,17.1,0,34.3,0,51.9c40.2,0,80,0,120,0c0.1,1.4,0.2,2.5,0.2,3.5
								c0,7.3-0.1,14.7,0.1,22c0.1,2.9-0.8,3.7-3.7,3.7c-24.1-0.1-48.2-0.1-72.3-0.1c-13.5,0-27,0.1-40.5-0.1c-2.9,0-4,0.6-3.9,3.8
								c0.1,25.2-0.1,50.4,0.1,75.6c0.1,14.5,0.6,28.9,1.7,43.3c0.5,7.1,2.3,14.3,4.5,21.1c4.4,13.5,14.6,20.2,28.2,22.3
								C181,284.5,186,284.8,191.3,285.3z"/>
							<path class="st2" d="M141.4-17c-21,0-41.6,0-62.6,0c-0.1-1.1-0.1-2.2-0.2-3.2c-0.2-17.6-0.3-35.3-0.7-52.9
								c-0.3-11.7-1.4-23.3-5.2-34.5C68.3-121,59.1-128.4,45.2-130c-4.3-0.5-8.7-0.5-13-0.7c-1.1-0.1-2.1,0-3.6,0c0-3,0-5.7,0-8.3
								c0-6,0.1-12.1,0-18.1c0-1.9,0.6-2.8,2.6-2.6c0.6,0.1,1.2,0,1.8,0c51.4,0,102.7,0,154.1,0c4.4,0,4.4,0,4.4,4.3
								c0,7.1-0.1,14.3,0.1,21.4c0.1,2.6-0.7,3.3-3.3,3.5c-5.6,0.4-11.3,0.9-16.8,2.1c-13.1,2.8-20.8,11.5-24.6,24
								c-4.2,13.6-4.4,27.7-4.7,41.8c-0.3,14.3-0.3,28.5-0.5,42.8C141.6-19,141.5-18.2,141.4-17z"/>
							<path class="st2" d="M271.4-17.8c-1-7.6-1.7-15-3.1-22.2c-0.8-4.3-2.4-8.6-4.3-12.6c-4.4-9-12-13.7-21.8-14.9
								c-4.4-0.5-8.9-0.6-13.3-0.7c-1.6,0-2.6-0.3-2.6-2.3c0-7.7,0-15.4,0-23.5c48.9,0,97.6,0,146.6,0c0.1,0.9,0.2,1.9,0.2,2.8
								c0,6.1,0.1,12.3,0.1,18.4c0,4.4-0.1,4-4.2,4.5c-6.3,0.8-12.9,1.5-18.8,3.6c-10.7,3.8-15.7,12.9-18,23.4
								c-1.3,5.6-1.7,11.3-2.5,17c-0.3,2-0.4,4.1-0.7,6.3C309.6-17.8,290.5-17.8,271.4-17.8z"/>
						</g>
					</g>
				</g>
				<g>
					<g>
						<g>
							<path class="st2" d="M28.6-5.6c0,28.1,0,55.7,0,83.6c4.5,0,9,0,13.8,0c0.2-3.5,0.5-7,0.7-10.5c0.4-6.3,0.6-12.7,1.2-19
								C45.6,36.2,51.8,30,64.2,29c9.9-0.8,19.8-1.1,29.7-1.1c26.1-0.1,52.2,0,78.2-0.1c3.1,0,4.3,0.9,4.4,3.9
								c0.1,4.3,0.6,8.5,0.6,12.8c0,54.7,0,109.5,0,164.2c0,8.9-0.1,17.8-3.2,26.4c-5.6,15.5-16.8,23.7-32.9,25.6
								c-3.1,0.4-6.3,0.6-9.4,1c-0.7,0.1-1.9,1-1.9,1.6c-0.2,3.8-0.1,7.7-0.1,11.7c50,0,99.7,0,149.6,0c0-4.5,0-8.9,0-13.5
								c-4.7-0.5-9.4-0.9-14.1-1.4c-17.2-1.8-28.2-12.9-31-30.1c-2.2-13.3-1.5-26.7-1.6-40c-0.1-50.9,0-101.7,0-152.6
								c0-3.4,0.2-6.7,0.5-10.1c0.1-0.7,1.2-1.3,1.9-1.8c0.3-0.2,1,0,1.5,0c61.8,0,123.6,0,185.3,0.1c6,0,12.1,0.5,18.1,1.3
								c11,1.4,17.6,9.3,18.3,21.1c0.5,10,1.2,20,1.8,30.2c3.1,0,6,0,9.1,0c0-27.9,0-55.6,0-83.5C322.2-5.6,175.5-5.6,28.6-5.6z"/>
							<path class="st2" d="M314.3,285.3c0,9.4,0,18.8,0,28.4c54.1,0,108.1,0,162.4,0c0-9.4,0-18.9,0-28.5
								c-4.8-0.3-9.5-0.4-14.2-0.9c-16.9-1.7-26.3-9.7-30.9-26.2c-3.5-12.5-4.2-25.4-4.2-38.3c-0.2-59.7-0.4-119.4-0.5-179
								c0-1.3,0-2.5,0-4.2c-21,0-41.8,0-62.9,0c0,17.1,0,34.3,0,51.9c-40.2,0-80,0-120,0c-0.1,1.4-0.2,2.5-0.2,3.5
								c0,7.3,0.1,14.7-0.1,22c-0.1,2.9,0.8,3.7,3.7,3.7c24.1-0.1,48.2-0.1,72.3-0.1c13.5,0,27,0.1,40.5-0.1c2.9,0,4,0.6,3.9,3.8
								c-0.1,25.2,0.1,50.4-0.1,75.6c-0.1,14.5-0.6,28.9-1.7,43.3c-0.5,7.1-2.3,14.3-4.5,21.1c-4.4,13.5-14.6,20.2-28.2,22.3
								C324.6,284.5,319.7,284.8,314.3,285.3z"/>
							<path class="st2" d="M364.2-17c21,0,41.6,0,62.6,0c0.1-1.1,0.1-2.2,0.2-3.2c0.2-17.6,0.3-35.3,0.7-52.9
								c0.3-11.7,1.4-23.3,5.2-34.5c4.5-13.3,13.7-20.8,27.5-22.3c4.3-0.5,8.7-0.5,13-0.7c1.1-0.1,2.1,0,3.6,0c0-3,0-5.7,0-8.3
								c0-6-0.1-12.1,0-18.1c0-1.9-0.6-2.8-2.6-2.6c-0.6,0.1-1.2,0-1.8,0c-51.4,0-102.7,0-154.1,0c-4.4,0-4.4,0-4.4,4.3
								c0,7.1,0.1,14.3-0.1,21.4c-0.1,2.6,0.7,3.3,3.3,3.5c5.6,0.4,11.3,0.9,16.8,2.1c13.1,2.8,20.8,11.5,24.6,24
								c4.2,13.6,4.4,27.7,4.7,41.8c0.3,14.3,0.3,28.5,0.5,42.8C364-19,364.1-18.2,364.2-17z"/>
							<path class="st2" d="M234.2-17.8c1-7.6,1.7-15,3.1-22.2c0.8-4.3,2.4-8.6,4.3-12.6c4.4-9,12-13.7,21.8-14.9
								c4.4-0.5,8.9-0.6,13.3-0.7c1.6,0,2.6-0.3,2.6-2.3c0-7.7,0-15.4,0-23.5c-48.9,0-97.6,0-146.6,0c-0.1,0.9-0.2,1.9-0.2,2.8
								c0,6.1-0.1,12.3-0.1,18.4c0,4.4,0.1,4,4.2,4.5c6.3,0.8,12.9,1.5,18.8,3.6c10.7,3.8,15.7,12.9,18,23.4
								c1.3,5.6,1.7,11.3,2.5,17c0.3,2,0.4,4.1,0.7,6.3C196-17.8,215.1-17.8,234.2-17.8z"/>
						</g>
					</g>
				</g>
			</g>
		</g>
	</g>
	<g id="Layer_3" class="st1">
		<text transform="matrix(1 0 0 1 421.343 144.4193)" class="st3 st4 st5">1</text>
		<text transform="matrix(1 0 0 1 18.4199 45.7601)" class="st3 st6 st7">VUT</text>
		<g>
			<g>
				<g>
					<path class="st3" d="M140.8,120.5c-9.2,0-18.2,0-27.3,0c0-1.4,0-2.6,0-3.9c1.3-0.2,2.4-0.3,3.6-0.5c2.2-0.4,3.7-1.8,4-3.9
						c0.4-2.9,0.4-5.8,0.6-8.8c0.1-1.4-0.3-2-1.7-2.6c-10.1-4.6-20.1-9.3-30.2-13.9c-0.1,0-0.2-0.1-0.2-0.1c0,0.1-0.1,0.1-0.1,0.2
						c0,7.2,0,14.3,0.1,21.5c0,1.2,0.2,2.3,0.4,3.4c0.6,2.8,2.2,4,5,4.3c1,0.1,1.7,0.2,2.6,0.2c0,1.4,0,2.6,0,4c-9,0-18.1,0-27.3,0
						c0-1.4,0-2.6,0-4c1.1-0.1,2-0.1,3.1-0.2c2.6-0.3,4.2-1.6,4.6-4.1c0.4-3.1,0.6-6.4,0.6-9.5c0.1-9.2,0-18.3,0-27.5
						c0-5.5,1.4-10.7,5-15.1c3.4-4.2,8-6.7,13.1-7.8c7.5-1.6,15-1.4,22.2,1.6c7.9,3.3,12.1,9.7,12.9,18.1c0.3,3.6,0.2,7.2,0.2,10.8
						c0,8,0,15.9,0.1,23.9c0,1.5,0.1,2.9,0.3,4.3c0.5,3.8,2.2,5.2,5.9,5.5c2,0.1,2,0.1,2,2.2C140.8,119.1,140.8,119.6,140.8,120.5z
						 M121.7,87.6c0-5.8,0.2-11.5,0-17.2c-0.2-4.6-2.2-8.5-6-11.1c-3.9-2.5-8.3-2.9-12.7-2.4c-2.4,0.2-4.7,0.8-6.8,2.2
						c-4.7,3-6.4,7.5-6.7,12.8c0,0.8,0.2,1.2,1,1.5c7.6,3.6,15.4,7.1,23.2,10.7C116.2,85,118.7,86.2,121.7,87.6z M121.7,97.1
						c0-1.4-0.1-2.6,0-3.8c0.1-1.3-0.3-1.8-1.5-2.3c-8.8-4-17.7-8.2-26.5-12.2c-1.4-0.6-2.9-1.3-4.3-1.9c0,1.3,0.1,2.4,0,3.6
						c-0.2,1.4,0.4,2,1.7,2.6c7.4,3.3,14.8,6.8,22.2,10.2C116,94.4,118.7,95.7,121.7,97.1z"/>
					<path class="st3" d="M399,86.5c0,0.1-0.1,0.2-0.1,0.3c0,7.1,0,14.3,0.1,21.4c0,1.2,0.2,2.3,0.4,3.3c0.6,2.8,2.2,4.1,5.1,4.4
						c0.8,0.1,1.7,0.1,2.6,0.2c0,1.3,0,2.6,0,4c-9,0-18.1,0-27.1,0c0-1.3,0-2.6,0-4c1.1-0.1,2-0.1,3.1-0.2c2.5-0.3,4.1-1.6,4.4-4.1
						c0.4-3.2,0.6-6.5,0.6-9.6c0.1-9.2,0-18.3,0-27.5c0-5.6,1.4-10.9,5.1-15.2c2.8-3.3,6.1-5.5,10.2-6.8c8.2-2.5,16.4-2.5,24.3,0.5
						c8.4,3.2,12.8,9.6,13.6,18.3c0.5,6.1,0.2,12.4,0.3,18.5c0.1,6.4,0.1,12.6,0.2,19c0,0.6,0.1,1.4,0.2,2c0.6,3.1,2,4.4,5.2,4.8
						c0.5,0.1,1.1,0.1,1.6,0.1c0.8,0,1.3,0.2,1.2,1.3c-0.1,1,0,1.8,0,2.9c-9.2,0-18.2,0-27.3,0c0-1.3,0-2.6,0-3.9
						c1.2-0.2,2.4-0.3,3.7-0.5c2.2-0.4,3.7-1.7,3.9-3.9c0.4-3.4,0.4-6.9,0.6-10.3c0-0.2-0.4-0.5-0.6-0.8c-4.3-2-8.6-4-12.9-5.9
						c-5.9-2.8-12-5.5-17.9-8.3C399.4,86.6,399.3,86.6,399,86.5z M431.1,87.6c0-0.4,0-0.8,0-1.2c0-4.6,0-9.2,0-13.8
						c0-1.2,0-2.4-0.2-3.6c-1-5.8-4.1-10-9.8-11.8c-3-1-5.9-1-8.9-0.5c-2.3,0.2-4.6,0.8-6.6,2c-4.6,2.9-6.4,7.3-6.7,12.5
						c-0.1,1.2,0.2,1.6,1.3,2c8.3,3.8,16.4,7.5,24.6,11.3C426.9,85.7,428.9,86.5,431.1,87.6z M398.9,76.8c0,1.2,0.1,2.3,0,3.3
						c-0.2,1.6,0.4,2.3,1.8,3c8.3,3.7,16.4,7.5,24.6,11.3c1.8,1,3.8,1.7,5.8,2.6c0-1.3-0.1-2.4,0-3.4c0.2-1.6-0.4-2.3-1.8-2.9
						c-7.5-3.4-15.1-6.9-22.7-10.3C404.2,79.2,401.6,78,398.9,76.8z"/>
					<path class="st3" d="M333.6,116.6c0,1.4,0,2.6,0,4c-9,0-18.1,0-27.3,0c0-1.2,0-2.3,0-3.4c0-0.2,0.3-0.4,0.6-0.5
						c0.6-0.1,1.5-0.1,2.2-0.2c2.8-0.2,4.6-1.6,5-4.3c0.4-2.9,0.5-5.8,0.6-8.7c0.1-9.4,0-18.7,0-28.2c0-4.7,1-9.3,3.4-13.3
						c3.2-5.2,7.9-8.2,13.8-9.5c7.2-1.7,14.4-1.8,21.4,0.6c8.8,3.2,13.8,9.6,14.4,18.7c0.4,6,0.2,12.3,0.2,18.4
						c0.1,6.4,0.1,12.6,0.2,19c0,0.6,0.1,1.4,0.2,2c0.6,3.3,2.4,4.8,5.9,5.1c0.6,0,1.4,0,2.2,0c0,0.8,0,1.5,0,2.2s0,1.4,0,2
						c-8.9,0-17.9,0-26.8,0c0-1.4,0-2.6,0-4c1.1-0.1,2-0.2,3.1-0.4c2.3-0.4,3.9-1.8,4.2-4.1c0.4-2.8,0.5-5.6,0.6-8.4
						c0.1-10.6,0-21,0-31.6c0-4.6-1.2-8.7-4.7-12c-2.6-2.5-5.9-3.4-9.4-3.7c-3.2-0.2-6.5-0.1-9.5,1.2c-5.2,2.2-7.8,6-8.6,11.4
						c-0.2,1.8-0.2,3.8-0.2,5.6c0,10.6,0,21.1,0,31.7c0,1.6,0.1,3.1,0.3,4.7c0.5,3.4,2.4,5.1,5.8,5.3
						C332.3,116.5,333,116.5,333.6,116.6z"/>
					<path class="st3" d="M271.3,116.4c0,1.4,0,2.6,0,4c-6.9,0-13.8,0-20.6,0c0-1.3,0-2.5,0-3.9c0.4,0,1,0,1.3,0
						c0.8-0.1,1.6-0.2,2.4-0.4c1.4-0.4,1.9-1.4,1.9-3c0-18,0-36,0-54c0-2.6-1-3.7-3.7-3.9c-0.6,0-1.3,0-1.9,0c0-1.4,0-2.6,0-3.9
						c0.2,0,0.3-0.1,0.5-0.1c8.9,0,17.9-0.1,26.8,0c5.8,0.1,11.3,1.4,16.2,5c4.8,3.4,7.2,8.3,7.5,14.1c0.2,4-0.3,7.9-2.6,11.4
						c-2.2,3.4-5.5,5.6-9.3,7c-1.7,0.5-3.4,1.1-5.2,1.5c-0.2,0.1-0.4,0.1-0.8,0.2c1.6,2.9,3.1,5.7,4.7,8.6c2.3,4.1,4.4,8.3,6.8,12.4
						c0.2,0.3,0.4,0.6,0.6,1.2c1.4,2.8,3.7,4,6.6,4.1c0.2,0,0.5,0,1,0.1c0,1.3,0,2.4,0,3.7c-6.8,0-13.6,0-20.3,0c0-1.3,0-2.5,0-3.8
						c0.8,0,1.5-0.1,2.3-0.1c0.8-0.1,1.2-0.5,1-1.4c-0.3-0.8-0.6-1.6-1.2-2.3c-3.8-7-7.6-13.9-11.4-20.9c-0.4-0.6-1-1-1.7-1
						c-2,0-4,0-6.1,0c0,0.4,0,1,0,1.4c0,6.9,0,13.7,0,20.5c0,2.2,1.2,3.4,3.4,3.6C270,116.5,270.6,116.4,271.3,116.4z M266,87
						c0.1,0,0.2,0.1,0.3,0.1c3.7,0,7.2,0.1,10.9-0.1c5.3-0.3,9.8-2.4,12.8-6.9c2.4-3.7,2.6-7.8,2-12.1c-1.1-6.6-6-12-12.7-12.8
						c-3.6-0.4-7.1-0.2-10.7-0.1c-0.5,0-1.5,0.6-1.7,1.3c-0.5,1.3-1.1,2.5-1.1,3.9c-0.1,8.8-0.1,17.6-0.1,26.4
						C265.9,86.7,265.9,86.9,266,87z"/>
					<path class="st3" d="M143.7,120.2c0-1.2,0-2.2,0-3.4c0.3,0,0.8,0.1,1.2,0c1.2-0.3,2.3-0.5,3.4-1.1c0.8-0.3,1.2-1.2,1.2-2
						c0-18.5,0-37.2,0-55.7c0-1.3-0.5-2-1.6-2.4c-1.3-0.4-2.6-0.6-4.1-1.1c0-1,0-1.9,0-3.3c1.4,0,2.8,0,4.1,0c8.7,0,17.4,0,26.1,0
						c4.3,0,8.6,0.6,12.7,2.5c4.3,1.8,7.9,4.7,9.8,9c2.5,5.7,1.1,12.5-3.8,16.7c-2.6,2.4-5.7,4.1-9.3,5.4c1.2,0.3,1.9,0.6,2.9,1.1
						c4.1,1.6,7.8,3.8,10.7,7.3c5.9,7.2,3.9,18.1-4.2,22.8c-4.4,2.5-9.4,3.9-14.4,4c-11.3,0.2-22.7,0.2-34,0.2
						C144.1,120.3,143.8,120.3,143.7,120.2z M158.6,86.9c0,0.6,0,1,0,1.3c0,8.6,0,17.2,0,25.6c0,1.8,0.5,2.6,2.4,2.6
						c5.1,0.1,10,0.1,15-0.2c3.4-0.2,6.7-1.5,9.5-3.4c5.9-4,7.4-12.5,3.4-18.3c-3.1-4.3-7.5-6.6-12.6-7.1
						C170.4,87.1,164.6,87.1,158.6,86.9z M158.6,83.5c0.3,0,0.4,0.1,0.6,0.1c4.1,0,8.2,0,12.3,0c2.6,0,5.3-0.4,7.6-1.4
						c8.3-3.1,10.8-10.9,8.3-17.9c-2-5.6-6.6-8.6-12.3-9.2c-4.3-0.4-8.8-0.2-13.3-0.3c-1.4,0-2.3,1-2.5,2.2
						c-0.3,1.6-0.6,3.2-0.6,4.8c-0.1,5.5,0,11,0,16.4C158.6,80,158.6,81.7,158.6,83.5z"/>
					<path class="st3" d="M40.8,57.9c-4.2,0-8.5,0-12.6,0c-5.5,0-11,0-16.4,0c-1.1,0-1.9,0.1-3,0.2c-1.4,0.1-2.2,1-2.3,2.3
						c-0.1,1.2-0.1,2.4-0.2,3.7c0,0.8-0.1,1.6-0.1,2.3c-1.2,0-2.2,0-3.2,0c0-5.1,0-10.1,0-15.2c24.1,0,48.3,0,72.4,0
						c0,5.1,0,10.1,0,15.2c-1.3,0-2.6,0-4,0c-0.1-1.5-0.1-3-0.2-4.3c-0.1-2.8-0.6-3.4-3.4-3.6c-2.5-0.1-5.2,0-7.6-0.1
						c-2.8,0-5.5,0-8.4,0c0,0.3-0.1,0.5-0.1,0.8c0,15.7,0,31.3,0,47.2c0,1.5,0.1,3.1,0.3,4.6c0.5,3.6,2.4,5.3,5.9,5.5
						c0.6,0,1.4,0.1,2,0.1c0,1.4,0,2.8,0,4.1c-9.2,0-18.3,0-27.6,0c0-1.4,0-2.8,0-4.1c1.1-0.1,2.2-0.1,3.2-0.2
						c2.5-0.3,4.1-1.8,4.6-4.2c0.4-2.8,0.6-5.6,0.6-8.4c0.1-15,0-29.9,0-44.9C40.8,58.4,40.8,58.2,40.8,57.9z"/>
					<path class="st3" d="M216.4,59.2v21c0,0.5,0.4,1,1,1h18.2c0.5,0,1,0.4,1,1v2.2c0,0.5-0.4,1-1,1h-18.1c-0.5,0-1,0.4-1,1v26.1
						c0,0.5,0.4,1,1,1l0,0c7.1,0,14.2,0,21.2,0c0.8,0,1.7-0.1,2.5-0.1c1.1-0.1,1.7-0.6,1.8-1.7c0.2-1.8,0.2-3.7,0.3-5.4l0,0
						c0-0.4,0.4-1,1-1h1.4c0.5,0,1,0.4,1,1v13c0,0.5-0.4,1-1,1H202c-0.5,0-1-0.4-1-1v-4.8c0-0.5,0.4-1,1-1h4.7c0.5,0,1-0.4,1-1
						c0-0.1,0-0.2,0-0.2c0-14.3,0-28.7,0-42.9c0-2.8-0.1-5.5-0.3-8.3c-0.3-3.6-2-5.1-5.6-5.2c-0.2,0-0.4,0-0.8-0.1c0-0.6,0-1.4,0-2
						v-1.1c0-0.5,0.4-1,1-1h43.6c0.5,0,1,0.4,1,1v12.9c0,0.5-0.4,1-1,1h-1.5c-0.5,0-1-0.4-1-1c0-1,0-1.9,0-2.9
						c-0.1-3.8-0.5-4.3-4.3-4.3c-7.1,0-14.3,0-21.4,0c-0.1,0-0.1,0-0.2,0C216.8,58.2,216.4,58.7,216.4,59.2z"/>
					<path class="st3" d="M321.5,116.9h-3c-1.1,0-1.9-1-1.9-1.9V62.8c0-1.1,1-1.9,1.9-1.9h3c1.1,0,1.9,1,1.9,1.9V115
						C323.3,115.9,322.5,116.9,321.5,116.9z"/>
					<path class="st3" d="M320.9,111.7h-3.8c-1.4,0-2.4-1.1-2.4-2.4V53.9c0-1.4,1.1-2.4,2.4-2.4h3.8c1.4,0,2.4,1.1,2.4,2.4v55.3
						C323.3,110.5,322.3,111.7,320.9,111.7z"/>
					<path class="st3" d="M287.2,231.2"/>
				</g>
				<g>
					<path class="st3" d="M18.6,100.2c0.4,0,1,0,1.2-0.1c0.2,0,0.4-0.2,0.5-0.3c0.1-0.2,0.2-0.5,0.2-1.1c0-0.5,0-1.2,0.1-1.9H22v6.1
						H3V100h2.8V82.5c0-1.2,0-2,0-2.9s-0.1-1.4-0.3-1.8c-0.3-0.4-0.5-0.8-0.9-1c-0.3-0.2-1-0.3-1.6-0.3v-1.7h9.2v1.7h-0.3
						c-0.5,0-1.2,0.1-1.4,0.3c-0.3,0.2-0.5,0.5-0.6,1.1c-0.1,0.4-0.2,1.1-0.3,1.8c0,0.8,0,1.7,0,2.9v17.7
						C9.4,100.2,18.6,100.2,18.6,100.2z"/>
				</g>
				<g>
					<path class="st3" d="M23.5,73.3l6,14.3c0.5,1.4,1.1,2.5,1.6,3.4c0.4,1,1,1.7,1.4,2.4c0.4,0.5,1.1,1.1,1.5,1.4
						c0.5,0.3,1.2,0.4,1.8,0.5v1.3H24.4v-1.3h1.1c0.8,0,1.4-0.1,1.7-0.3c0.3-0.2,0.5-0.5,0.5-1.2c0-0.5-0.1-1.3-0.4-2.2
						c-0.2-1-0.6-1.9-1.3-3.3h-8.3c-0.5,1.4-1.1,2.5-1.3,3.3c-0.2,1-0.4,1.6-0.4,2s0.2,1,0.5,1.2s1,0.3,1.7,0.3h1.2v1.3H9.7v-1.3
						c0.6-0.1,1.3-0.2,1.7-0.4c0.4-0.2,1.1-0.5,1.5-1.3c0.4-0.5,1-1.4,1.5-2.3c0.4-1.1,1.1-2.3,1.7-3.8L22,72.9h1.5V73.3L23.5,73.3
						L23.5,73.3z M24.6,84.7h-5.3l-1,2.2h7.1L24.6,84.7z M19.9,83.3H24l-2-5L19.9,83.3z"/>
				</g>
			</g>
		</g>
	</g>
	<g id="Layer_2_1_" class="st1">
	</g>
</g>
<g id="Layer_6">
	<g>
		<g>
			<g>
				<path class="st8" d="M156.3,115.6c-10.1,0-20.1,0-30.1,0c0-1.5,0-2.9,0-4.3c1.4-0.3,2.7-0.4,3.9-0.6c2.4-0.5,4.1-2,4.4-4.3
					c0.5-3.2,0.5-6.5,0.8-9.7c0.1-1.5-0.4-2.3-1.9-2.9c-11.1-5.1-22.3-10.3-33.3-15.3c-0.1,0-0.3-0.1-0.3-0.1c0,0.1-0.1,0.1-0.1,0.3
					c0,8,0,15.8,0.1,23.8c0,1.3,0.3,2.5,0.5,3.8c0.8,3,2.4,4.4,5.4,4.8c1,0.1,1.9,0.3,2.9,0.3c0,1.5,0,2.9,0,4.4c-10,0-20,0-30.1,0
					c0-1.5,0-2.9,0-4.4c1.1-0.1,2.3-0.1,3.4-0.3c2.9-0.4,4.7-1.8,5.1-4.6c0.5-3.4,0.8-7,0.8-10.5c0.1-10.1,0-20.3,0-30.4
					c0-6.1,1.5-11.8,5.4-16.7c3.8-4.7,8.9-7.3,14.6-8.6c8.4-1.8,16.6-1.5,24.6,1.8c8.7,3.7,13.3,10.8,14.3,20
					c0.4,3.9,0.3,8,0.3,11.9c0,8.9,0,17.6,0.1,26.5c0,1.6,0.1,3.2,0.4,4.8c0.6,4.2,2.4,5.7,6.6,6.1c2.3,0.1,2.3,0.1,2.3,2.4
					C156.3,114.1,156.3,114.7,156.3,115.6z M135.2,79.3c0-6.5,0.3-12.8,0-19c-0.3-5.1-2.4-9.4-6.7-12.3c-4.3-2.8-9.1-3.2-14-2.7
					c-2.7,0.3-5.2,0.9-7.5,2.4c-5.2,3.3-7,8.4-7.3,14.2c0,0.9,0.3,1.3,1,1.6c8.5,3.9,17,7.8,25.6,11.8
					C129.1,76.5,132,77.8,135.2,79.3z M135.2,89.8c0-1.5-0.1-2.9,0-4.2c0.1-1.4-0.4-2-1.6-2.5c-9.7-4.4-19.5-9-29.2-13.4
					c-1.5-0.8-3.2-1.4-4.8-2.2c0,1.4,0.1,2.7,0,3.9c-0.3,1.5,0.5,2.3,1.9,2.9c8.2,3.7,16.3,7.5,24.6,11.3
					C129,86.9,132,88.3,135.2,89.8z"/>
				<path class="st8" d="M441.6,78.2c0,0.1-0.1,0.3-0.1,0.4c0,7.8,0,15.8,0.1,23.7c0,1.3,0.3,2.5,0.5,3.7c0.8,3,2.4,4.6,5.6,4.9
					c0.9,0.1,1.9,0.1,2.9,0.3c0,1.4,0,2.9,0,4.4c-10,0-20,0-30,0c0-1.4,0-2.9,0-4.4c1.1-0.1,2.3-0.1,3.4-0.3
					c2.8-0.4,4.6-1.8,4.9-4.6c0.5-3.5,0.8-7.1,0.8-10.6c0.1-10.1,0-20.3,0-30.4c0-6.2,1.5-12,5.6-16.8c3-3.7,6.8-6.1,11.3-7.5
					c9-2.8,18.1-2.8,26.8,0.6c9.2,3.5,14.2,10.6,14.9,20.3c0.6,6.8,0.3,13.7,0.4,20.5c0.1,7,0.1,13.9,0.3,20.9
					c0,0.8,0.1,1.5,0.3,2.3c0.8,3.4,2.3,4.9,5.7,5.3c0.6,0.1,1.1,0.1,1.8,0.1c0.9,0,1.4,0.3,1.3,1.4c-0.1,1,0,2,0,3.2
					c-10.1,0-20.1,0-30.1,0c0-1.4,0-2.9,0-4.3c1.3-0.3,2.7-0.4,4.1-0.6c2.4-0.5,4.1-1.9,4.3-4.3c0.5-3.8,0.5-7.6,0.8-11.4
					c0-0.3-0.5-0.6-0.8-0.9c-4.8-2.3-9.5-4.4-14.3-6.6c-6.6-3-13.2-6.1-19.7-9.1C442,78.3,441.8,78.3,441.6,78.2z M477,79.3
					c0-0.5,0-0.9,0-1.3c0-5.1,0-10.1,0-15.2c0-1.3,0-2.7-0.3-3.9c-1-6.5-4.6-11-10.9-13c-3.3-1-6.6-1-9.9-0.6
					c-2.5,0.3-5.1,0.9-7.2,2.3c-5.1,3.2-7,8.1-7.3,13.8c-0.1,1.3,0.3,1.8,1.4,2.3c9.1,4.2,18.1,8.4,27.1,12.5
					C472.3,77.2,474.6,78.2,477,79.3z M441.5,67.4c0,1.3,0.1,2.5,0,3.7c-0.3,1.8,0.5,2.5,2,3.3c9.1,4.1,18.1,8.4,27.1,12.5
					c2,1,4.2,1.9,6.5,2.9c0-1.4-0.1-2.7,0-3.8c0.3-1.8-0.5-2.5-2-3.2c-8.4-3.8-16.7-7.6-25.1-11.4C447.3,70.1,444.4,68.8,441.5,67.4
					z"/>
				<path class="st8" d="M369.3,111.3c0,1.5,0,2.9,0,4.4c-10,0-20,0-30.1,0c0-1.3,0-2.5,0-3.8c0-0.3,0.4-0.5,0.8-0.6
					c0.8-0.1,1.6-0.1,2.4-0.3c3-0.3,5.1-1.8,5.4-4.8c0.5-3.2,0.6-6.5,0.8-9.6c0.1-10.4,0-20.8,0-31.1c0-5.2,1-10.3,3.8-14.7
					c3.5-5.7,8.7-9,15.2-10.5c8-1.9,15.9-2,23.7,0.8c9.7,3.5,15.2,10.6,15.9,20.8c0.5,6.7,0.3,13.5,0.3,20.4
					c0.1,7,0.1,13.9,0.3,20.9c0,0.8,0.1,1.5,0.3,2.3c0.8,3.7,2.7,5.3,6.6,5.6c0.8,0,1.5,0,2.4,0c0,0.9,0,1.6,0,2.4s0,1.5,0,2.3
					c-9.9,0-19.7,0-29.6,0c0-1.5,0-2.9,0-4.4c1.1-0.1,2.3-0.3,3.4-0.5c2.5-0.5,4.3-2,4.7-4.6c0.5-3,0.6-6.2,0.8-9.2
					c0.1-11.6,0-23.2,0-34.8c0-5.1-1.3-9.6-5.2-13.2c-2.9-2.8-6.6-3.8-10.4-4.1c-3.5-0.3-7.1-0.1-10.5,1.3
					c-5.7,2.4-8.6,6.7-9.5,12.7c-0.3,2-0.3,4.2-0.3,6.2c0,11.6,0,23.3,0,34.9c0,1.8,0.1,3.4,0.4,5.2c0.6,3.8,2.7,5.6,6.5,5.8
					C367.9,111.2,368.6,111.2,369.3,111.3z"/>
				<path class="st8" d="M300.5,111.1c0,1.5,0,2.9,0,4.4c-7.6,0-15.2,0-22.8,0c0-1.4,0-2.8,0-4.3c0.5,0,1,0,1.4,0
					c0.9-0.1,1.8-0.3,2.7-0.5c1.5-0.5,2.2-1.5,2.2-3.3c0-19.9,0-39.7,0-59.6c0-2.9-1-4.1-4.1-4.3c-0.8,0-1.4,0-2.2,0
					c0-1.5,0-2.9,0-4.3c0.3,0,0.4-0.1,0.6-0.1c9.9,0,19.7-0.1,29.6,0c6.5,0.1,12.5,1.5,17.8,5.4c5.3,3.8,8,9.1,8.4,15.6
					c0.3,4.4-0.4,8.7-2.9,12.7c-2.4,3.8-6.1,6.2-10.3,7.7c-1.9,0.6-3.8,1.1-5.7,1.6c-0.3,0.1-0.5,0.1-0.9,0.3
					c1.8,3.2,3.4,6.3,5.2,9.5c2.5,4.6,4.9,9.1,7.5,13.7c0.3,0.4,0.5,0.8,0.8,1.3c1.5,3,4.1,4.4,7.2,4.6c0.3,0,0.6,0,1,0.1
					c0,1.4,0,2.7,0,4.1c-7.5,0-14.9,0-22.4,0c0-1.4,0-2.8,0-4.2c0.9,0,1.6-0.1,2.5-0.1c0.9-0.1,1.3-0.6,1-1.5
					c-0.4-0.9-0.8-1.8-1.3-2.5c-4.2-7.7-8.5-15.3-12.7-23c-0.5-0.8-1-1-1.9-1c-2.3,0-4.4,0-6.8,0c0,0.5,0,1,0,1.5
					c0,7.6,0,15.1,0,22.7c0,2.4,1.3,3.8,3.8,3.9C299,111.2,299.7,111.1,300.5,111.1z M294.7,78.7c0.1,0,0.3,0.1,0.4,0.1
					c4.1,0,8,0.1,12-0.1c5.8-0.4,10.9-2.7,14.2-7.6c2.7-4.1,2.9-8.6,2.3-13.3c-1.1-7.2-6.7-13.2-14-14.2c-3.9-0.5-7.8-0.3-11.8-0.1
					c-0.6,0-1.6,0.8-1.9,1.4c-0.6,1.4-1.1,2.8-1.1,4.3c-0.1,9.7-0.1,19.4-0.1,29.1C294.5,78.4,294.5,78.5,294.7,78.7z"/>
				<path class="st8" d="M159.6,115.4c0-1.3,0-2.4,0-3.8c0.4,0,0.9,0.1,1.3,0c1.3-0.4,2.5-0.6,3.8-1.1c0.9-0.4,1.3-1.3,1.3-2.3
					c0-20.5,0-41,0-61.5c0-1.4-0.6-2.3-1.8-2.7c-1.4-0.5-2.9-0.8-4.6-1.1c0-1,0-2.2,0-3.7c1.5,0,3,0,4.6,0c9.6,0,19.2,0,28.7,0
					c4.8,0,9.5,0.8,14,2.8c4.8,2,8.7,5.2,10.9,10c2.8,6.3,1.1,13.8-4.2,18.5c-2.9,2.7-6.3,4.6-10.3,5.9c1.3,0.4,2.2,0.8,3.2,1.1
					c4.6,1.8,8.6,4.2,11.8,8.1c6.6,8,4.3,20-4.7,25.2c-4.9,2.8-10.4,4.3-15.9,4.4c-12.5,0.3-25.1,0.3-37.6,0.3
					C159.9,115.5,159.7,115.5,159.6,115.4z M175.9,78.5c0,0.8,0,1,0,1.4c0,9.5,0,19,0,28.4c0,2,0.6,2.9,2.7,2.9
					c5.6,0.1,11,0.1,16.6-0.3c3.8-0.3,7.3-1.6,10.5-3.8c6.6-4.4,8.2-13.8,3.8-20.3c-3.4-4.8-8.4-7.2-13.9-7.8
					C189.1,78.8,182.6,78.8,175.9,78.5z M175.9,74.9c0.4,0,0.5,0.1,0.8,0.1c4.6,0,9,0,13.5,0c2.9,0,5.8-0.5,8.5-1.5
					c9.1-3.4,11.9-12,9.1-19.7c-2.3-6.2-7.2-9.5-13.5-10.1c-4.8-0.5-9.7-0.3-14.7-0.4c-1.5,0-2.5,1-2.8,2.4
					c-0.4,1.8-0.8,3.5-0.8,5.3c-0.1,6.1,0,12.2,0,18.1C175.9,71,175.9,72.9,175.9,74.9z"/>
				<path class="st8" d="M45.8,46.5c-4.7,0-9.4,0-13.9,0c-6.1,0-12.2,0-18.1,0c-1.1,0-2.2,0.1-3.3,0.3c-1.5,0.1-2.4,1-2.5,2.5
					c-0.1,1.3-0.1,2.7-0.3,4.1c0,0.9-0.1,1.8-0.1,2.5c-1.3,0-2.4,0-3.5,0c0-5.6,0-11.1,0-16.8c26.7,0,53.3,0,80,0
					c0,5.6,0,11.1,0,16.8c-1.4,0-2.9,0-4.4,0c-0.1-1.6-0.1-3.3-0.3-4.8c-0.1-3-0.8-3.8-3.8-3.9c-2.8-0.1-5.7,0-8.5-0.1
					c-3,0-6.1,0-9.2,0c0,0.4-0.1,0.6-0.1,0.9c0,17.3,0,34.7,0,52.1c0,1.6,0.1,3.4,0.4,5.1c0.6,3.9,2.7,5.8,6.6,6.1
					c0.8,0,1.5,0.1,2.3,0.1c0,1.5,0,3,0,4.6c-10.1,0-20.3,0-30.5,0c0-1.5,0-3,0-4.6c1.1-0.1,2.4-0.1,3.5-0.3c2.8-0.4,4.6-2,5.1-4.7
					c0.5-3,0.8-6.2,0.8-9.2c0.1-16.6,0-33,0-49.6C45.8,47.2,45.8,46.9,45.8,46.5z"/>
				<path class="st8" d="M239.9,47.9v23.2c0,0.6,0.5,1,1,1H261c0.6,0,1,0.5,1,1v2.4c0,0.6-0.5,1-1,1h-20c-0.6,0-1,0.5-1,1v28.7
					c0,0.6,0.5,1,1,1l0,0c7.8,0,15.7,0,23.4,0c0.9,0,1.9-0.1,2.8-0.1c1.1-0.1,1.9-0.8,2-1.9c0.3-2,0.3-4.1,0.4-5.9l0,0
					c0-0.5,0.5-1,1-1h1.5c0.6,0,1,0.5,1,1v14.4c0,0.6-0.5,1-1,1h-48.2c-0.6,0-1-0.5-1-1v-5.3c0-0.6,0.5-1,1-1h5.2c0.6,0,1-0.5,1-1
					c0-0.1,0-0.3,0-0.3c0-15.8,0-31.6,0-47.3c0-3-0.1-6.1-0.4-9.1c-0.4-3.9-2.3-5.6-6.2-5.7c-0.3,0-0.5,0-0.9-0.1c0-0.8,0-1.5,0-2.3
					v-1.1c0-0.6,0.5-1,1-1h48.2c0.6,0,1,0.5,1,1v14.3c0,0.6-0.5,1-1,1h-1.6c-0.6,0-1-0.5-1-1c0-1,0-2.2,0-3.2
					c-0.1-4.2-0.6-4.8-4.8-4.8c-7.8,0-15.8,0-23.7,0c-0.1,0-0.1,0-0.3,0C240.2,46.9,239.9,47.4,239.9,47.9z"/>
				<path class="st8" d="M355.9,111.7h-3.3c-1.1,0-2.2-1-2.2-2.2V51.8c0-1.1,1-2.2,2.2-2.2h3.3c1.1,0,2.2,1,2.2,2.2v57.7
					C357.9,110.7,357.1,111.7,355.9,111.7z"/>
				<path class="st8" d="M355.3,106h-4.2c-1.5,0-2.7-1.1-2.7-2.7V42.2c0-1.5,1.1-2.7,2.7-2.7h4.2c1.5,0,2.7,1.1,2.7,2.7v61
					C357.9,104.7,356.8,106,355.3,106z"/>
				<path class="st8" d="M318.1,237.9"/>
			</g>
			<g>
				<path class="st8" d="M21.3,93.2c0.5,0,1,0,1.3-0.1c0.3,0,0.5-0.3,0.6-0.4c0.1-0.3,0.3-0.6,0.3-1.1s0-1.3,0.1-2.2h1.5v6.8h-21V93
					h3V73.7c0-1.3,0-2.3,0-3.2c0-0.9-0.1-1.5-0.4-2s-0.5-0.9-0.9-1.1S4.8,67,4.1,67v-1.9h10.1V67h-0.4c-0.6,0-1.3,0.1-1.5,0.4
					c-0.4,0.3-0.6,0.6-0.8,1.1c-0.1,0.5-0.3,1.1-0.4,2c0,0.9,0,1.9,0,3.2v19.5C11.2,93.2,21.3,93.2,21.3,93.2z"/>
			</g>
			<g>
				<path class="st8" d="M26.8,63.5l6.7,15.8c0.6,1.5,1.1,2.8,1.8,3.8c0.5,1,1,1.9,1.5,2.7c0.5,0.6,1.1,1.1,1.6,1.5
					c0.6,0.4,1.3,0.5,2,0.6v1.4H27.7v-1.4h1.1c0.9,0,1.5-0.1,1.9-0.4s0.6-0.6,0.6-1.3c0-0.6-0.1-1.4-0.5-2.4c-0.3-1-0.8-2.2-1.4-3.7
					h-9.1c-0.6,1.5-1.1,2.8-1.4,3.7c-0.3,1-0.5,1.8-0.5,2.3s0.3,1,0.6,1.3s1,0.4,1.9,0.4h1.3v1.4H11.5v-1.4c0.8-0.1,1.4-0.3,1.9-0.5
					c0.5-0.3,1.1-0.6,1.6-1.4c0.5-0.6,1-1.5,1.6-2.5c0.5-1.1,1.1-2.5,1.9-4.2l6.6-15.8L26.8,63.5L26.8,63.5L26.8,63.5z M28,76.1
					h-5.8l-1,2.4H29L28,76.1z M22.8,74.6h4.6l-2.3-5.4L22.8,74.6z"/>
			</g>
		</g>
	</g>
</g>
<g id="Layer_2_2_" class="st0">
	<g id="Layer_3_1_" class="st1">
		<g>
			<path class="st9" d="M115.2,17.9l-11.9,7.5c-0.5,0.7-1.4,1.2-2.4,1.3c-0.6,0-1.1-0.3-1.5-0.8c-1.3-1.3-0.6-2.7,0.7-3.9l8.3-11.3
				c0.5-0.5,1.1-0.6,1.7-0.6c1.6,0.1,3,0.8,3.9,2C115.6,13.6,116.6,16.7,115.2,17.9z"/>
		</g>
		<text transform="matrix(1 0 0 1 39.056 129.4154)" class="st9 st6 st10 st11">ATICO</text>
		<text transform="matrix(1 0 0 1 39.056 129.4154)" class="st12 st6 st10 st11">ATICO</text>
		<text transform="matrix(1 0 0 1 39.056 129.4154)" class="st13 st6 st10 st11">ATICO</text>
	</g>
</g>
<g id="Layer_3_2_" class="st0">
	<g id="Layer_4" class="st1">
		<text transform="matrix(1 0 0 1 23.9463 150.8851)" class="st3 st4 st14">L</text>
		<text transform="matrix(1 0 0 1 84.3096 107.7484)" class="st3 st4 st15">ourdes</text>
	</g>
</g>
<g id="Layer_4_1_" class="st0">
	<g id="Layer_3_3_" class="st1">
		<g class="st16">
			<path class="st9" d="M30.7,32.9c3.9,0,7.5,0.5,10.9,1.5c3.4,1,6.3,2.6,8.7,4.7c2.4,2.2,4.4,5,5.8,8.6c1.4,3.5,2.1,7.9,2.1,13.1
				c0,5.1-0.7,9.4-2.2,12.9s-3.4,6.2-6,8.4c-2.5,2.1-5.5,3.7-8.8,4.6c-3.4,0.9-7,1.4-10.8,1.4H15v32.1H3.5V32.9H30.7z M25.1,75.4
				c2.8,0,5.4-0.1,7.9-0.3c2.5-0.2,4.7-0.7,6.7-1.6c1.9-0.9,3.5-2.3,4.6-4.3c1.2-2,1.8-4.8,1.8-8.4c0-3.8-0.6-6.8-1.8-8.8
				s-2.7-3.5-4.6-4.5c-1.9-0.9-4.1-1.5-6.7-1.7c-2.5-0.2-5.2-0.3-7.9-0.3H15v29.8h10.1V75.4z"/>
			<path class="st9" d="M129.9,120.2h-12l-8.3-24.4h-7.3c-3.5,0-6.9,0.4-10.4,1.3c-3.4,0.9-6.4,2.3-8.8,4.2
				c-2.1,1.7-4.3,3.9-6.4,6.7c-2.1,2.7-3.9,6-5.3,9.8l-0.9,2.4h-12l30-87.2h11.4L129.9,120.2z M105.4,83.5L94.1,50.2L80.5,90.6
				c1.4-1,2.8-2,4.2-2.9c1.4-0.9,2.9-1.7,4.6-2.3c1.7-0.6,3.5-1.1,5.6-1.5c2.1-0.3,4.5-0.5,7.2-0.5h3.3V83.5z"/>
			<path class="st9" d="M186.9,107.6v12.5H141V32.9h11.5v74.7H186.9z"/>
			<path class="st9" d="M264.7,59.2c-0.1-0.4-0.3-0.9-0.4-1.3c-1.2-3.7-2.8-7.1-4.8-10.1c-0.8,0.4-1.5,0.8-2.3,1.4
				c-1.1,0.8-2,1.6-3,2.5c-1.4,1.2-2.7,2.5-4.1,3.7c1.6,2.5,2.8,5.4,3.6,8.6c1,3.9,1.5,8.1,1.5,12.7c0,0.5,0,1,0,1.6
				c-0.1,4-0.6,7.8-1.5,11.2c-1,3.9-2.6,7.3-4.7,10.2c-2.1,2.9-4.7,5.2-7.8,6.8c-3.1,1.6-6.7,2.4-10.8,2.4s-7.7-0.8-10.9-2.4
				c-0.8-0.4-1.6-0.9-2.4-1.4c-2.1-1.4-3.9-3.2-5.4-5.3c-0.7-1-1.4-2.1-2-3.2c-1.1-2.1-2-4.5-2.7-7.1c-1-3.9-1.5-8.2-1.5-12.8
				c0-1.1,0-2.2,0.1-3.2c0.2-3.4,0.7-6.5,1.5-9.5c1-3.9,2.6-7.3,4.7-10.2c1.1-1.6,2.4-3,3.9-4.2c-3-1.7-6-3.4-8.8-5.3
				c-0.6-0.4-1.2-0.8-1.8-1.2c-0.6,0.6-1.1,1.2-1.6,1.9c-3.2,4.1-5.6,8.8-7.3,14.3c-0.7,2.4-1.3,5-1.7,7.5c-0.5,3.2-0.8,6.5-0.8,9.9
				c0,6.1,0.8,11.9,2.5,17.4c0.9,2.8,1.9,5.4,3.2,7.9c1.2,2.3,2.6,4.4,4.1,6.4s3.2,3.7,5.1,5.3c2,1.7,4.2,3.1,6.5,4.3
				c4.5,2.3,9.7,3.5,15.4,3.5s10.9-1.2,15.4-3.5s8.4-5.5,11.6-9.6c3.2-4,5.6-8.8,7.2-14.3c1.7-5.5,2.5-11.3,2.5-17.4
				C267.2,70.4,266.3,64.6,264.7,59.2z"/>
			<path class="st9" d="M259.4,47.7c-0.8,0.4-1.5,0.8-2.3,1.4c-1.1,0.8-2,1.6-3,2.5c-1.4,1.2-2.7,2.5-4.1,3.7
				c-0.3-0.6-0.7-1.1-1.1-1.6c-2.1-2.9-4.7-5.2-7.8-6.8s-6.7-2.4-10.8-2.4s-7.7,0.8-10.9,2.4c-1.4,0.7-2.7,1.6-3.9,2.6
				c-3-1.7-6-3.4-8.8-5.3c-0.6-0.4-1.2-0.8-1.8-1.2c2.8-3.2,6.2-5.7,10-7.7c4.5-2.3,9.7-3.5,15.4-3.5s10.9,1.2,15.4,3.5
				s8.4,5.5,11.6,9.6C258.1,45.8,258.8,46.7,259.4,47.7z"/>
			<g>
				<g>
					<path class="st17" d="M273.9,55.7c-1.1-0.2-1.9-0.5-2.7-0.6c-2.4-0.5-4.6,0.2-6.2,1.9c-0.3,0.3-0.5,0.5-0.7,0.8
						c-1.9,2.2-3,4.8-4,7.5c-1.3,3.5-2.6,6.9-3.9,10.4c-0.3,0.8-0.7,1.7-1.1,2.4c-2.1,3.9-5.4,6.9-9.3,9.2
						c-4.7,2.7-9.6,5.2-14.3,7.7c-5.3,2.8-10.2,6-14.4,10c-2.2,2-4.2,4.3-6,6.8c-0.7,1-1.7,1.5-2.7,1.7s-2.1,0.1-3.2-0.3
						c-5.5-1.9-9.6-5.8-13.6-9.7c2.8-0.4,5.3-0.9,7.6-1.7c4.2-1.3,7.6-3.2,10.5-5.4c7-5.4,10.4-12.8,11.9-19.4
						c-2.2-0.4-4.4-0.7-6.6-1.1c-3.3-0.6-6.5-1.5-9.5-2.6c-4.1-1.6-7.9-3.7-11.2-6.6c-1.4-1.2-2.7-2.6-3.9-4.1
						c-4.3-5.1-6.5-11.1-7.6-17.6c-1.5-8.7-0.5-17.3,1.6-25.8c0.1-0.4,0.2-0.7,0.4-1.2c1.1,2,1.9,3.9,3,5.8
						c4.2,7.7,10,14.1,17.1,19.1c0.6,0.4,1.2,0.8,1.8,1.2c2.9,1.9,5.9,3.6,8.8,5.3c3.9,2.2,7.8,4.4,11.7,6.6c1.7,1,3.5,1.9,5,3.2
						c4.5,3.6,8.8,3.2,13,0c1.6-1.2,3.2-2.6,4.8-4c1.4-1.2,2.7-2.5,4.1-3.7c1-0.9,1.9-1.7,3-2.5c0.8-0.6,1.5-1,2.3-1.4
						c4.3-2,8.4-0.9,11.7,3.2c0.7,0.9,1.2,1.7,1.8,2.7C273.2,54.2,273.4,54.8,273.9,55.7z"/>
				</g>
			</g>
			<path class="st9" d="M353.5,32.9v87.2h-11.4V61.8l-21.2,44.6h-7.5l-21.1-44.3V120h-11.5V32.9h10.3l26,56.3l26-56.3
				C343.1,32.9,353.5,32.9,353.5,32.9z"/>
			<path class="st9" d="M435.9,120.2h-12l-7.3-21.7H384l-7.5,21.7h-12l30-87.2H406L435.9,120.2z M412.3,85.8l-12-35.6l-12,35.6
				H412.3z"/>
			<path class="st9" d="M470.4,70.3c5,2,9.1,3.9,12.4,5.8s5.9,3.8,7.8,5.9c2,2,3.3,4.2,4.2,6.6c0.8,2.3,1.2,5,1.2,7.9
				c0,4.6-0.9,8.5-2.6,11.6c-1.7,3.2-3.9,5.7-6.6,7.7s-5.7,3.4-9.1,4.3c-3.3,0.9-6.6,1.3-9.9,1.3c-4.7,0-9.1-0.7-13.3-2.2
				c-4.2-1.5-7.5-3.2-9.9-5.2V99.6c2,1.7,4.2,3.2,6.7,4.5c2.1,1.2,4.5,2.3,7.3,3.2c2.8,0.9,5.9,1.4,9.2,1.4c0.6,0,1.8-0.1,3.6-0.2
				c1.7-0.1,3.5-0.6,5.4-1.3c1.9-0.7,3.5-1.8,5-3.3c1.4-1.4,2.1-3.5,2.1-6c0-2-0.3-3.8-1-5.2c-0.7-1.4-1.7-2.7-3-3.8
				c-1.3-1.1-3.1-2.2-5.2-3.1c-2.1-1-4.6-2-7.5-3.1c-4.7-1.8-8.6-3.7-11.7-5.6c-3.1-2-5.5-4-7.3-6.1s-3.1-4.4-3.8-6.8
				c-0.7-2.4-1.1-5.1-1.1-7.9c0-0.8,0.1-1.9,0.3-3.4c0.2-1.5,0.6-3.1,1.2-4.9c0.6-1.8,1.5-3.6,2.7-5.5s2.7-3.6,4.7-5.2
				c2-1.6,4.5-2.9,7.4-3.8c2.9-1,6.5-1.5,10.6-1.5c2.1,0,4.2,0.2,6.3,0.5c2.2,0.3,4.3,0.8,6.3,1.3c2,0.6,3.9,1.2,5.6,2
				s3.1,1.6,4.2,2.4V52c-0.1-0.3-0.8-0.8-2-1.7s-2.8-1.7-4.8-2.6c-2-0.9-4.3-1.6-7-2.3s-5.5-1-8.5-1c-3.2,0-5.8,0.4-7.7,1.2
				c-2,0.8-3.5,1.7-4.6,2.9s-1.8,2.5-2.2,3.8c-0.4,1.3-0.5,2.6-0.5,3.8c0,0.9,0.1,2,0.4,3.1c0.2,1.1,0.9,2.3,1.9,3.5
				s2.6,2.4,4.6,3.7C464.2,67.6,467,68.9,470.4,70.3z"/>
		</g>
	</g>
</g>
<g id="Layer_5" class="st0">
	<g id="Layer_5_1_" class="st1">
		<g>
			<g>
				<g class="st16">
					<path class="st3" d="M30.6,40h12v12h-12c-2.5,0-4.6,0.9-6.4,2.6c-1.8,1.8-2.6,3.9-2.6,6.4s0.9,4.6,2.6,6.4
						c1.8,1.8,3.9,2.6,6.4,2.6c5.8,0,10.8,2.1,14.9,6.2s6.2,9.1,6.2,14.9s-2.1,10.8-6.2,14.9s-9.1,6.2-14.9,6.2H9.5v-12h21.1
						c2.5,0,4.6-0.9,6.4-2.6s2.6-3.9,2.6-6.4s-0.9-4.6-2.6-6.4s-3.9-2.6-6.4-2.6c-5.8,0-10.8-2.1-14.9-6.2s-6.2-9.2-6.2-15
						s2.1-10.8,6.2-14.9S24.8,40,30.6,40z"/>
					<path class="st3" d="M93.8,112.2c-10,0-18.5-3.5-25.5-10.6C61.2,94.5,57.6,86,57.6,76.1c0-10,3.5-18.5,10.6-25.5
						C75.3,43.5,83.8,40,93.8,40s18.5,3.5,25.5,10.6c7.1,7.1,10.6,15.6,10.6,25.5c0,10-3.5,18.5-10.6,25.5
						C112.2,108.6,103.7,112.2,93.8,112.2z M93.8,100.1c6.7,0,12.3-2.3,17-7s7-10.4,7-17c0-6.7-2.3-12.3-7-17s-10.4-7-17-7
						c-6.7,0-12.3,2.3-17,7s-7,10.4-7,17c0,6.7,2.3,12.3,7,17C81.4,97.8,87.1,100.1,93.8,100.1z"/>
					<path class="st3" d="M163,40c5.8,0,10.8,2.1,14.9,6.2c4.1,4.1,6.2,9.1,6.2,14.9v6c0,5.8-2.1,10.8-6.2,14.9
						c-3.6,3.6-7.9,5.7-12.9,6.1l19.1,24.2h-15.3l-19-24.1H148v24.1h-12V40H163z M172,61c0-2.5-0.9-4.6-2.6-6.4
						c-1.8-1.8-3.9-2.6-6.4-2.6h-15v24.1h15c2.5,0,4.6-0.9,6.4-2.6c1.8-1.8,2.6-3.9,2.6-6.4V61z"/>
					<path class="st3" d="M217.1,40c5.8,0,10.8,2.1,14.9,6.2c4.1,4.1,6.2,9.1,6.2,14.9v6c0,5.8-2.1,10.8-6.2,14.9
						c-4.1,4.1-9.1,6.2-14.9,6.2h-15v24.1h-12V40H217.1z M226.1,61c0-2.5-0.9-4.6-2.6-6.4c-1.8-1.8-3.9-2.6-6.4-2.6h-15v24.1h15
						c2.5,0,4.6-0.9,6.4-2.6c1.8-1.8,2.6-3.9,2.6-6.4V61z"/>
					<path class="st3" d="M271.3,40c5.8,0,10.8,2.1,14.9,6.2s6.2,9.1,6.2,14.9v6c0,5.8-2.1,10.8-6.2,14.9c-3.6,3.6-7.9,5.7-12.9,6.1
						l19.1,24.2H277l-19-24.1h-1.8v24.1h-12V40H271.3z M280.3,61c0-2.5-0.9-4.6-2.6-6.4c-1.8-1.8-3.9-2.6-6.4-2.6h-15v24.1h15
						c2.5,0,4.6-0.9,6.4-2.6c1.8-1.8,2.6-3.9,2.6-6.4V61z"/>
					<path class="st3" d="M370.6,40v12h-60.2v18h48.1v12h-48.1v18.1h60.2v12h-72.2V40H370.6z"/>
					<path class="st3" d="M397.6,40h12v12h-12c-2.5,0-4.6,0.9-6.4,2.6s-2.6,3.9-2.6,6.4s0.9,4.6,2.6,6.4c1.8,1.8,3.9,2.6,6.4,2.6
						c5.8,0,10.8,2.1,14.9,6.2s6.2,9.1,6.2,14.9s-2.1,10.8-6.2,14.9s-9.1,6.2-14.9,6.2h-21.1v-12h21.1c2.5,0,4.6-0.9,6.4-2.6
						s2.6-3.9,2.6-6.4s-0.9-4.6-2.6-6.4s-3.9-2.6-6.4-2.6c-5.8,0-10.8-2.1-14.9-6.2s-6.2-9.1-6.2-14.9s2.1-10.8,6.2-14.9
						C386.9,42,391.8,40,397.6,40z"/>
					<path class="st3" d="M424.7,76.1c0-10,3.5-18.5,10.6-25.5c7.1-7.1,15.6-10.6,25.5-10.6c10,0,18.5,3.5,25.5,10.6
						c7.1,7.1,10.6,15.6,10.6,25.5v36.1h-12v-12h-48.1v12h-12V76.1H424.7z M484.9,88.1v-12c0-6.7-2.3-12.3-7-17s-10.4-7-17-7
						c-6.7,0-12.3,2.3-17,7s-7,10.4-7,17v12H484.9z"/>
				</g>
			</g>
		</g>
	</g>
</g>
</svg>
