<?xml version="1.0" encoding="utf-8"?>
<!-- Generator: Adobe Illustrator 22.0.0, SVG Export Plug-In . SVG Version: 6.00 Build 0)  -->
<svg version="1.1" id="Layer_1" xmlns="http://www.w3.org/2000/svg" xmlns:xlink="http://www.w3.org/1999/xlink" x="0px" y="0px"
	 viewBox="0 0 400 76.3" style="enable-background:new 0 0 400 76.3;" xml:space="preserve">
<style type="text/css">
	.st0{fill:#0756A0;}
</style>
<g>
	<g>
		<g>
			<path class="st0" d="M125.9,69.4c-8,0-15.9,0-23.8,0c0-1.2,0-2.3,0-3.4c1.1-0.2,2.1-0.3,3.1-0.5c1.9-0.4,3.2-1.6,3.5-3.4
				c0.4-2.5,0.4-5.1,0.6-7.7c0.1-1.2-0.3-1.8-1.5-2.3c-8.8-4-17.6-8.1-26.3-12.1c-0.1,0-0.2-0.1-0.2-0.1c0,0.1-0.1,0.1-0.1,0.2
				c0,6.3,0,12.5,0.1,18.8c0,1,0.2,2,0.4,3c0.6,2.4,1.9,3.5,4.3,3.8c0.8,0.1,1.5,0.2,2.3,0.2c0,1.2,0,2.3,0,3.5
				c-7.9,0-15.8,0-23.8,0c0-1.2,0-2.3,0-3.5c0.9-0.1,1.8-0.1,2.7-0.2c2.3-0.3,3.7-1.4,4-3.6c0.4-2.7,0.6-5.5,0.6-8.3
				c0.1-8,0-16,0-24c0-4.8,1.2-9.3,4.3-13.2c3-3.7,7-5.8,11.5-6.8c6.6-1.4,13.1-1.2,19.4,1.4c6.9,2.9,10.5,8.5,11.3,15.8
				c0.3,3.1,0.2,6.3,0.2,9.4c0,7,0,13.9,0.1,20.9c0,1.3,0.1,2.5,0.3,3.8c0.5,3.3,1.9,4.5,5.2,4.8c1.8,0.1,1.8,0.1,1.8,1.9
				C125.9,68.2,125.9,68.7,125.9,69.4z M109.2,40.7c0-5.1,0.2-10.1,0-15c-0.2-4-1.9-7.4-5.3-9.7c-3.4-2.2-7.2-2.5-11.1-2.1
				c-2.1,0.2-4.1,0.7-5.9,1.9c-4.1,2.6-5.5,6.6-5.8,11.2c0,0.7,0.2,1,0.8,1.3c6.7,3.1,13.4,6.2,20.2,9.3
				C104.4,38.5,106.7,39.5,109.2,40.7z M109.2,49c0-1.2-0.1-2.3,0-3.3c0.1-1.1-0.3-1.6-1.3-2c-7.7-3.5-15.4-7.1-23.1-10.6
				c-1.2-0.6-2.5-1.1-3.8-1.7c0,1.1,0.1,2.1,0,3.1c-0.2,1.2,0.4,1.8,1.5,2.3c6.5,2.9,12.9,5.9,19.4,8.9
				C104.3,46.7,106.7,47.8,109.2,49z"/>
			<path class="st0" d="M351.3,39.8c0,0.1-0.1,0.2-0.1,0.3c0,6.2,0,12.5,0.1,18.7c0,1,0.2,2,0.4,2.9c0.6,2.4,1.9,3.6,4.4,3.9
				c0.7,0.1,1.5,0.1,2.3,0.2c0,1.1,0,2.3,0,3.5c-7.9,0-15.8,0-23.7,0c0-1.1,0-2.3,0-3.5c0.9-0.1,1.8-0.1,2.7-0.2
				c2.2-0.3,3.6-1.4,3.9-3.6c0.4-2.8,0.6-5.6,0.6-8.4c0.1-8,0-16,0-24c0-4.9,1.2-9.5,4.4-13.3c2.4-2.9,5.4-4.8,8.9-5.9
				c7.1-2.2,14.3-2.2,21.2,0.5c7.3,2.8,11.2,8.4,11.8,16c0.5,5.4,0.2,10.8,0.3,16.2c0.1,5.5,0.1,11,0.2,16.5c0,0.6,0.1,1.2,0.2,1.8
				c0.6,2.7,1.8,3.9,4.5,4.2c0.5,0.1,0.9,0.1,1.4,0.1c0.7,0,1.1,0.2,1,1.1c-0.1,0.8,0,1.6,0,2.5c-8,0-15.9,0-23.8,0
				c0-1.1,0-2.3,0-3.4c1-0.2,2.1-0.3,3.2-0.5c1.9-0.4,3.2-1.5,3.4-3.4c0.4-3,0.4-6,0.6-9c0-0.2-0.4-0.5-0.6-0.7
				c-3.8-1.8-7.5-3.5-11.3-5.2c-5.2-2.4-10.4-4.8-15.6-7.2C351.6,39.9,351.5,39.9,351.3,39.8z M379.3,40.7c0-0.4,0-0.7,0-1
				c0-4,0-8,0-12c0-1,0-2.1-0.2-3.1c-0.8-5.1-3.6-8.7-8.6-10.3c-2.6-0.8-5.2-0.8-7.8-0.5c-2,0.2-4,0.7-5.7,1.8
				c-4,2.5-5.5,6.4-5.8,10.9c-0.1,1,0.2,1.4,1.1,1.8c7.2,3.3,14.3,6.6,21.4,9.9C375.6,39,377.4,39.8,379.3,40.7z M351.2,31.3
				c0,1,0.1,2,0,2.9c-0.2,1.4,0.4,2,1.6,2.6c7.2,3.2,14.3,6.6,21.4,9.9c1.6,0.8,3.3,1.5,5.1,2.3c0-1.1-0.1-2.1,0-3
				c0.2-1.4-0.4-2-1.6-2.5c-6.6-3-13.2-6-19.8-9C355.8,33.4,353.5,32.4,351.2,31.3z"/>
			<path class="st0" d="M294.2,66c0,1.2,0,2.3,0,3.5c-7.9,0-15.8,0-23.8,0c0-1,0-2,0-3c0-0.2,0.3-0.4,0.6-0.5
				c0.6-0.1,1.3-0.1,1.9-0.2c2.4-0.2,4-1.4,4.3-3.8c0.4-2.5,0.5-5.1,0.6-7.6c0.1-8.2,0-16.4,0-24.6c0-4.1,0.8-8.1,3-11.6
				c2.8-4.5,6.9-7.1,12-8.3c6.3-1.5,12.6-1.6,18.7,0.6c7.7,2.8,12,8.4,12.6,16.4c0.4,5.3,0.2,10.7,0.2,16.1c0.1,5.5,0.1,11,0.2,16.5
				c0,0.6,0.1,1.2,0.2,1.8c0.6,2.9,2.1,4.2,5.2,4.4c0.6,0,1.2,0,1.9,0c0,0.7,0,1.3,0,1.9c0,0.6,0,1.2,0,1.8c-7.8,0-15.6,0-23.4,0
				c0-1.2,0-2.3,0-3.5c0.9-0.1,1.8-0.2,2.7-0.4c2-0.4,3.4-1.6,3.7-3.6c0.4-2.4,0.5-4.9,0.6-7.3c0.1-9.2,0-18.3,0-27.5
				c0-4-1-7.6-4.1-10.4c-2.3-2.2-5.2-3-8.2-3.2c-2.8-0.2-5.6-0.1-8.3,1c-4.5,1.9-6.8,5.3-7.5,10c-0.2,1.6-0.2,3.3-0.2,4.9
				c0,9.2,0,18.4,0,27.6c0,1.4,0.1,2.7,0.3,4.1c0.5,3,2.1,4.4,5.1,4.6C293.1,65.9,293.6,65.9,294.2,66z"/>
			<path class="st0" d="M239.8,65.8c0,1.2,0,2.3,0,3.5c-6,0-12,0-18,0c0-1.1,0-2.2,0-3.4c0.4,0,0.8,0,1.1,0c0.7-0.1,1.4-0.2,2.1-0.4
				c1.2-0.4,1.7-1.2,1.7-2.6c0-15.7,0-31.4,0-47.1c0-2.3-0.8-3.2-3.2-3.4c-0.6,0-1.1,0-1.7,0c0-1.2,0-2.3,0-3.4
				c0.2,0,0.3-0.1,0.5-0.1c7.8,0,15.6-0.1,23.4,0c5.1,0.1,9.9,1.2,14.1,4.3c4.2,3,6.3,7.2,6.6,12.3c0.2,3.5-0.3,6.9-2.3,10
				c-1.9,3-4.8,4.9-8.1,6.1c-1.5,0.5-3,0.9-4.5,1.3c-0.2,0.1-0.4,0.1-0.7,0.2c1.4,2.5,2.7,5,4.1,7.5c2,3.6,3.9,7.2,5.9,10.8
				c0.2,0.3,0.4,0.6,0.6,1c1.2,2.4,3.2,3.5,5.7,3.6c0.2,0,0.5,0,0.8,0.1c0,1.1,0,2.1,0,3.2c-5.9,0-11.8,0-17.7,0c0-1.1,0-2.2,0-3.3
				c0.7,0,1.3-0.1,2-0.1c0.7-0.1,1-0.5,0.8-1.2c-0.3-0.7-0.6-1.4-1-2c-3.3-6.1-6.7-12.1-10-18.2c-0.4-0.6-0.8-0.8-1.5-0.8
				c-1.8,0-3.5,0-5.4,0c0,0.4,0,0.8,0,1.2c0,6,0,11.9,0,17.9c0,1.9,1,3,3,3.1C238.6,65.9,239.2,65.8,239.8,65.8z M235.2,40.2
				c0.1,0,0.2,0.1,0.3,0.1c3.2,0,6.3,0.1,9.5-0.1c4.6-0.3,8.6-2.1,11.2-6c2.1-3.2,2.3-6.8,1.8-10.5c-0.9-5.7-5.3-10.4-11.1-11.2
				c-3.1-0.4-6.2-0.2-9.3-0.1c-0.5,0-1.3,0.6-1.5,1.1c-0.5,1.1-0.9,2.2-0.9,3.4c-0.1,7.7-0.1,15.3-0.1,23
				C235.1,40,235.1,40.1,235.2,40.2z"/>
			<path class="st0" d="M128.5,69.2c0-1,0-1.9,0-3c0.3,0,0.7,0.1,1,0c1-0.3,2-0.5,3-0.9c0.7-0.3,1-1,1-1.8c0-16.2,0-32.4,0-48.6
				c0-1.1-0.5-1.8-1.4-2.1c-1.1-0.4-2.3-0.6-3.6-0.9c0-0.8,0-1.7,0-2.9c1.2,0,2.4,0,3.6,0c7.6,0,15.2,0,22.7,0
				c3.8,0,7.5,0.6,11.1,2.2c3.8,1.6,6.9,4.1,8.6,7.9c2.2,5,0.9,10.9-3.3,14.6c-2.3,2.1-5,3.6-8.1,4.7c1,0.3,1.7,0.6,2.5,0.9
				c3.6,1.4,6.8,3.3,9.3,6.4c5.2,6.3,3.4,15.8-3.7,19.9c-3.9,2.2-8.2,3.4-12.6,3.5c-9.9,0.2-19.8,0.2-29.7,0.2
				C128.7,69.3,128.6,69.3,128.5,69.2z M141.4,40.1c0,0.6,0,0.8,0,1.1c0,7.5,0,15,0,22.4c0,1.6,0.5,2.3,2.1,2.3
				c4.4,0.1,8.7,0.1,13.1-0.2c3-0.2,5.8-1.3,8.3-3c5.2-3.5,6.5-10.9,3-16c-2.7-3.8-6.6-5.7-11-6.2C151.8,40.3,146.7,40.3,141.4,40.1
				z M141.4,37.2c0.3,0,0.4,0.1,0.6,0.1c3.6,0,7.1,0,10.7,0c2.3,0,4.6-0.4,6.7-1.2c7.2-2.7,9.4-9.5,7.2-15.6
				c-1.8-4.9-5.7-7.5-10.7-8c-3.8-0.4-7.7-0.2-11.6-0.3c-1.2,0-2,0.8-2.2,1.9c-0.3,1.4-0.6,2.8-0.6,4.2c-0.1,4.8,0,9.6,0,14.3
				C141.4,34.1,141.4,35.6,141.4,37.2z"/>
			<path class="st0" d="M38.6,14.8c-3.7,0-7.4,0-11,0c-4.8,0-9.6,0-14.3,0c-0.9,0-1.7,0.1-2.6,0.2c-1.2,0.1-1.9,0.8-2,2
				c-0.1,1-0.1,2.1-0.2,3.2c0,0.7-0.1,1.4-0.1,2c-1,0-1.9,0-2.8,0c0-4.4,0-8.8,0-13.3c21.1,0,42.1,0,63.2,0c0,4.4,0,8.8,0,13.3
				c-1.1,0-2.3,0-3.5,0c-0.1-1.3-0.1-2.6-0.2-3.8c-0.1-2.4-0.6-3-3-3.1c-2.2-0.1-4.5,0-6.7-0.1c-2.4,0-4.8,0-7.3,0
				c0,0.3-0.1,0.5-0.1,0.7c0,13.7,0,27.4,0,41.2c0,1.3,0.1,2.7,0.3,4c0.5,3.1,2.1,4.6,5.2,4.8c0.6,0,1.2,0.1,1.8,0.1
				c0,1.2,0,2.4,0,3.6c-8,0-16,0-24.1,0c0-1.2,0-2.4,0-3.6c0.9-0.1,1.9-0.1,2.8-0.2c2.2-0.3,3.6-1.6,4-3.7c0.4-2.4,0.6-4.9,0.6-7.3
				c0.1-13.1,0-26.1,0-39.2C38.6,15.3,38.6,15.1,38.6,14.8z"/>
			<path class="st0" d="M191.9,15.9v18.3c0,0.5,0.4,0.8,0.8,0.8h15.9c0.5,0,0.8,0.4,0.8,0.8v1.9c0,0.5-0.4,0.8-0.8,0.8h-15.8
				c-0.5,0-0.8,0.4-0.8,0.8v22.7c0,0.5,0.4,0.8,0.8,0.8h0c6.2,0,12.4,0,18.5,0c0.7,0,1.5-0.1,2.2-0.1c0.9-0.1,1.5-0.6,1.6-1.5
				c0.2-1.6,0.2-3.2,0.3-4.7c0,0,0,0,0,0c0-0.4,0.4-0.8,0.8-0.8h1.2c0.5,0,0.8,0.4,0.8,0.8v11.4c0,0.5-0.4,0.8-0.8,0.8h-38.1
				c-0.5,0-0.8-0.4-0.8-0.8v-4.2c0-0.5,0.4-0.8,0.8-0.8h4.1c0.5,0,0.8-0.4,0.8-0.8c0-0.1,0-0.2,0-0.2c0-12.5,0-25,0-37.4
				c0-2.4-0.1-4.8-0.3-7.2c-0.3-3.1-1.8-4.4-4.9-4.5c-0.2,0-0.4,0-0.7-0.1c0-0.6,0-1.2,0-1.8V10c0-0.5,0.4-0.8,0.8-0.8h38.1
				c0.5,0,0.8,0.4,0.8,0.8v11.3c0,0.5-0.4,0.8-0.8,0.8h-1.3c-0.5,0-0.8-0.4-0.8-0.8c0-0.8,0-1.7,0-2.5c-0.1-3.3-0.5-3.8-3.8-3.8
				c-6.2,0-12.5,0-18.7,0c-0.1,0-0.1,0-0.2,0C192.2,15.1,191.9,15.5,191.9,15.9z"/>
			<path class="st0" d="M283.6,66.3h-2.6c-0.9,0-1.7-0.8-1.7-1.7V19c0-0.9,0.8-1.7,1.7-1.7h2.6c0.9,0,1.7,0.8,1.7,1.7v45.6
				C285.2,65.5,284.5,66.3,283.6,66.3z"/>
			<path class="st0" d="M283.1,61.8h-3.3c-1.2,0-2.1-0.9-2.1-2.1V11.4c0-1.2,0.9-2.1,2.1-2.1h3.3c1.2,0,2.1,0.9,2.1,2.1v48.2
				C285.2,60.8,284.3,61.8,283.1,61.8z"/>
			<path class="st0" d="M253.7,166"/>
		</g>
		<g>
			<path class="st0" d="M19.2,51.7c0.4,0,0.8,0,1-0.1c0.2,0,0.4-0.2,0.5-0.3c0.1-0.2,0.2-0.5,0.2-0.9c0-0.4,0-1,0.1-1.7h1.2v5.4H5.6
				v-2.5H8V36.3c0-1,0-1.8,0-2.5c0-0.7-0.1-1.2-0.3-1.6c-0.2-0.4-0.4-0.7-0.7-0.9s-0.8-0.3-1.4-0.3v-1.5h8v1.5h-0.3
				c-0.5,0-1,0.1-1.2,0.3c-0.3,0.2-0.5,0.5-0.6,0.9c-0.1,0.4-0.2,0.9-0.3,1.6c0,0.7,0,1.5,0,2.5v15.4H19.2z"/>
		</g>
		<g>
			<path class="st0" d="M23.6,28.2l5.3,12.5c0.5,1.2,0.9,2.2,1.4,3c0.4,0.8,0.8,1.5,1.2,2.1c0.4,0.5,0.9,0.9,1.3,1.2
				c0.5,0.3,1,0.4,1.6,0.5v1.1H24.3v-1.1h0.9c0.7,0,1.2-0.1,1.5-0.3c0.3-0.2,0.5-0.5,0.5-1c0-0.5-0.1-1.1-0.4-1.9
				c-0.2-0.8-0.6-1.7-1.1-2.9h-7.2c-0.5,1.2-0.9,2.2-1.1,2.9c-0.2,0.8-0.4,1.4-0.4,1.8s0.2,0.8,0.5,1c0.3,0.2,0.8,0.3,1.5,0.3H20
				v1.1h-8.5v-1.1c0.6-0.1,1.1-0.2,1.5-0.4c0.4-0.2,0.9-0.5,1.3-1.1c0.4-0.5,0.8-1.2,1.3-2c0.4-0.9,0.9-2,1.5-3.3l5.2-12.5H23.6z
				 M24.5,38.2h-4.6l-0.8,1.9h6.2L24.5,38.2z M20.4,37H24l-1.8-4.3L20.4,37z"/>
		</g>
	</g>
</g>
</svg>
