<?xml version="1.0" encoding="utf-8"?>
<!-- Generator: Adobe Illustrator 22.0.0, SVG Export Plug-In . SVG Version: 6.00 Build 0)  -->
<svg version="1.1" id="Layer_1" xmlns="http://www.w3.org/2000/svg" xmlns:xlink="http://www.w3.org/1999/xlink" x="0px" y="0px"
	 viewBox="0 0 500 500" style="enable-background:new 0 0 500 500;" xml:space="preserve">
<style type="text/css">
	.st0{display:none;}
	.st1{display:inline;}
	.st2{fill:#333435;}
	.st3{fill:#DA9629;}
	.st4{clip-path:url(#SVGID_2_);}
</style>
<g id="Layer_1_1_" class="st0">
	<g class="st1">
		<g>
			<g>
				<g>
					<g>
						<path class="st2" d="M477,165.4c0,28.1,0,55.7,0,83.6c-4.5,0-9,0-13.8,0c-0.2-3.5-0.5-7-0.7-10.5c-0.4-6.3-0.6-12.7-1.2-19
							c-1.3-12.3-7.5-18.5-19.9-19.5c-9.9-0.8-19.8-1.1-29.7-1.1c-26.1-0.1-52.2,0-78.2-0.1c-3.1,0-4.3,0.9-4.4,3.9
							c-0.1,4.3-0.6,8.5-0.6,12.8c0,54.7,0,109.5,0,164.2c0,8.9,0.1,17.8,3.2,26.4c5.6,15.5,16.8,23.7,32.9,25.6
							c3.1,0.4,6.3,0.6,9.4,1c0.7,0.1,1.9,1,1.9,1.6c0.2,3.8,0.1,7.7,0.1,11.7c-50,0-99.7,0-149.6,0c0-4.5,0-8.9,0-13.5
							c4.7-0.5,9.4-0.9,14.1-1.4c17.2-1.8,28.2-12.9,31-30.1c2.2-13.3,1.5-26.7,1.6-40c0.1-50.9,0-101.7,0-152.6
							c0-3.4-0.2-6.7-0.5-10.1c-0.1-0.7-1.2-1.3-1.9-1.8c-0.3-0.2-1,0-1.5,0c-61.8,0-123.6,0-185.3,0.1c-6,0-12.1,0.5-18.1,1.3
							c-11,1.4-17.6,9.3-18.3,21.1c-0.5,10-1.2,20-1.8,30.2c-3.1,0-6,0-9.1,0c0-27.9,0-55.6,0-83.5
							C183.4,165.4,330.1,165.4,477,165.4z"/>
						<path class="st2" d="M191.3,456.3c0,9.4,0,18.8,0,28.4c-54.1,0-108.1,0-162.4,0c0-9.4,0-18.9,0-28.5c4.8-0.3,9.5-0.4,14.2-0.9
							c16.9-1.7,26.3-9.7,30.9-26.2c3.5-12.5,4.2-25.4,4.2-38.3c0.2-59.7,0.4-119.4,0.5-179c0-1.3,0-2.5,0-4.2c21,0,41.8,0,62.9,0
							c0,17.1,0,34.3,0,51.9c40.2,0,80,0,120,0c0.1,1.4,0.2,2.5,0.2,3.5c0,7.3-0.1,14.7,0.1,22c0.1,2.9-0.8,3.7-3.7,3.7
							c-24.1-0.1-48.2-0.1-72.3-0.1c-13.5,0-27,0.1-40.5-0.1c-2.9,0-4,0.6-3.9,3.8c0.1,25.2-0.1,50.4,0.1,75.6
							c0.1,14.5,0.6,28.9,1.7,43.3c0.5,7.1,2.3,14.3,4.5,21.1c4.4,13.5,14.6,20.2,28.2,22.3C181,455.5,186,455.8,191.3,456.3z"/>
						<path class="st2" d="M141.4,154c-21,0-41.6,0-62.6,0c-0.1-1.1-0.1-2.2-0.2-3.2c-0.2-17.6-0.3-35.3-0.7-52.9
							c-0.3-11.7-1.4-23.3-5.2-34.5C68.3,50,59.1,42.6,45.2,41c-4.3-0.5-8.7-0.5-13-0.7c-1.1-0.1-2.1,0-3.6,0c0-3,0-5.7,0-8.3
							c0-6,0.1-12.1,0-18.1c0-1.9,0.6-2.8,2.6-2.6c0.6,0.1,1.2,0,1.8,0c51.4,0,102.7,0,154.1,0c4.4,0,4.4,0,4.4,4.3
							c0,7.1-0.1,14.3,0.1,21.4c0.1,2.6-0.7,3.3-3.3,3.5c-5.6,0.4-11.3,0.9-16.8,2.1c-13.1,2.8-20.8,11.5-24.6,24
							c-4.2,13.6-4.4,27.7-4.7,41.8c-0.3,14.3-0.3,28.5-0.5,42.8C141.6,152,141.5,152.8,141.4,154z"/>
						<path class="st2" d="M271.4,153.2c-1-7.6-1.7-15-3.1-22.2c-0.8-4.3-2.4-8.6-4.3-12.6c-4.4-9-12-13.7-21.8-14.9
							c-4.4-0.5-8.9-0.6-13.3-0.7c-1.6,0-2.6-0.3-2.6-2.3c0-7.7,0-15.4,0-23.5c48.9,0,97.6,0,146.6,0c0.1,0.9,0.2,1.9,0.2,2.8
							c0,6.1,0.1,12.3,0.1,18.4c0,4.4-0.1,4-4.2,4.5c-6.3,0.8-12.9,1.5-18.8,3.6c-10.7,3.8-15.7,12.9-18,23.4
							c-1.3,5.6-1.7,11.3-2.5,17c-0.3,2-0.4,4.1-0.7,6.3C309.6,153.2,290.5,153.2,271.4,153.2z"/>
					</g>
				</g>
			</g>
			<g>
				<g>
					<g>
						<path class="st2" d="M28.6,165.4c0,28.1,0,55.7,0,83.6c4.5,0,9,0,13.8,0c0.2-3.5,0.5-7,0.7-10.5c0.4-6.3,0.6-12.7,1.2-19
							c1.3-12.3,7.5-18.5,19.9-19.5c9.9-0.8,19.8-1.1,29.7-1.1c26.1-0.1,52.2,0,78.2-0.1c3.1,0,4.3,0.9,4.4,3.9
							c0.1,4.3,0.6,8.5,0.6,12.8c0,54.7,0,109.5,0,164.2c0,8.9-0.1,17.8-3.2,26.4c-5.6,15.5-16.8,23.7-32.9,25.6
							c-3.1,0.4-6.3,0.6-9.4,1c-0.7,0.1-1.9,1-1.9,1.6c-0.2,3.8-0.1,7.7-0.1,11.7c50,0,99.7,0,149.6,0c0-4.5,0-8.9,0-13.5
							c-4.7-0.5-9.4-0.9-14.1-1.4c-17.2-1.8-28.2-12.9-31-30.1c-2.2-13.3-1.5-26.7-1.6-40c-0.1-50.9,0-101.7,0-152.6
							c0-3.4,0.2-6.7,0.5-10.1c0.1-0.7,1.2-1.3,1.9-1.8c0.3-0.2,1,0,1.5,0c61.8,0,123.6,0,185.3,0.1c6,0,12.1,0.5,18.1,1.3
							c11,1.4,17.6,9.3,18.3,21.1c0.5,10,1.2,20,1.8,30.2c3.1,0,6,0,9.1,0c0-27.9,0-55.6,0-83.5C322.2,165.4,175.5,165.4,28.6,165.4
							z"/>
						<path class="st2" d="M314.3,456.3c0,9.4,0,18.8,0,28.4c54.1,0,108.1,0,162.4,0c0-9.4,0-18.9,0-28.5c-4.8-0.3-9.5-0.4-14.2-0.9
							c-16.9-1.7-26.3-9.7-30.9-26.2c-3.5-12.5-4.2-25.4-4.2-38.3c-0.2-59.7-0.4-119.4-0.5-179c0-1.3,0-2.5,0-4.2
							c-21,0-41.8,0-62.9,0c0,17.1,0,34.3,0,51.9c-40.2,0-80,0-120,0c-0.1,1.4-0.2,2.5-0.2,3.5c0,7.3,0.1,14.7-0.1,22
							c-0.1,2.9,0.8,3.7,3.7,3.7c24.1-0.1,48.2-0.1,72.3-0.1c13.5,0,27,0.1,40.5-0.1c2.9,0,4,0.6,3.9,3.8
							c-0.1,25.2,0.1,50.4-0.1,75.6c-0.1,14.5-0.6,28.9-1.7,43.3c-0.5,7.1-2.3,14.3-4.5,21.1c-4.4,13.5-14.6,20.2-28.2,22.3
							C324.6,455.5,319.7,455.8,314.3,456.3z"/>
						<path class="st2" d="M364.2,154c21,0,41.6,0,62.6,0c0.1-1.1,0.1-2.2,0.2-3.2c0.2-17.6,0.3-35.3,0.7-52.9
							c0.3-11.7,1.4-23.3,5.2-34.5c4.5-13.3,13.7-20.8,27.5-22.3c4.3-0.5,8.7-0.5,13-0.7c1.1-0.1,2.1,0,3.6,0c0-3,0-5.7,0-8.3
							c0-6-0.1-12.1,0-18.1c0-1.9-0.6-2.8-2.6-2.6c-0.6,0.1-1.2,0-1.8,0c-51.4,0-102.7,0-154.1,0c-4.4,0-4.4,0-4.4,4.3
							c0,7.1,0.1,14.3-0.1,21.4c-0.1,2.6,0.7,3.3,3.3,3.5c5.6,0.4,11.3,0.9,16.8,2.1c13.1,2.8,20.8,11.5,24.6,24
							c4.2,13.6,4.4,27.7,4.7,41.8c0.3,14.3,0.3,28.5,0.5,42.8C364,152,364.1,152.8,364.2,154z"/>
						<path class="st2" d="M234.2,153.2c1-7.6,1.7-15,3.1-22.2c0.8-4.3,2.4-8.6,4.3-12.6c4.4-9,12-13.7,21.8-14.9
							c4.4-0.5,8.9-0.6,13.3-0.7c1.6,0,2.6-0.3,2.6-2.3c0-7.7,0-15.4,0-23.5c-48.9,0-97.6,0-146.6,0c-0.1,0.9-0.2,1.9-0.2,2.8
							c0,6.1-0.1,12.3-0.1,18.4c0,4.4,0.1,4,4.2,4.5c6.3,0.8,12.9,1.5,18.8,3.6c10.7,3.8,15.7,12.9,18,23.4c1.3,5.6,1.7,11.3,2.5,17
							c0.3,2,0.4,4.1,0.7,6.3C196,153.2,215.1,153.2,234.2,153.2z"/>
					</g>
				</g>
			</g>
		</g>
	</g>
</g>
<g id="Layer_3">
	<g>
		<path class="st3" d="M212.6,421.8c0-16.2,0-31.5,0-48c-3.2,0-6.1,0-9,0c-40.7,0-81.5,0-122.2,0c-19.5,0-28.4-8.9-28.4-28.4
			c0-66.5,0-133,0-199.5C53,127,62,118,81.1,118c19.7,0,39.5,0,59.2,0c1.2,0,2.5,0,3.7,0c5.2,0,9.1,2.1,9.2,7.6
			c0.2,5.9-3.8,8.2-9.4,8.2c-20.5,0-41,0-61.5,0c-11.6,0-13.3,1.7-13.3,13.6c0,65.7,0,131.5,0,197.2c0,11.6,1.8,13.3,13.5,13.3
			c108.2,0,216.5,0,324.7,0c11.7,0,13.5-1.7,13.5-13.4c0-66,0-132,0-198c0-10.8-1.9-12.8-12.6-12.8c-19.2,0-38.5,0-57.7,0
			c-2,0-4,0.1-6-0.1c-5-0.4-8.7-3.4-7.6-8.1c0.7-2.9,4.8-7.2,7.5-7.2c24-0.5,48-0.7,72,0.1c12,0.4,20.5,11.4,20.5,24.5
			c0.1,24.7,0,49.5,0,74.2c0,43.2,0,86.5,0,129.7c0,17.4-9.4,26.8-26.9,26.9c-41,0.1-82,0-123,0c-3,0-5.9,0-9.6,0
			c0,16.1,0,31.6,0,48c10.5,0,20.6,0,30.8,0c2.5,0,5-0.1,7.5,0.1c5.1,0.3,8.9,2.5,8.8,8.1c-0.1,5.5-3.6,7.9-8.9,8
			c-10.2,0-20.5,0-30.7,0c-35.2,0-70.5,0-105.7,0c-1.7,0-3.5,0-5.2,0c-5.3-0.1-8.8-2.5-8.8-8c-0.1-5.6,3.7-7.9,8.9-8
			c10-0.2,20-0.1,30-0.1C206.8,421.8,209.5,421.8,212.6,421.8z M260.7,374.5c-10.9,0-21.2,0-31.2,0c0,16.1,0,31.4,0,46.6
			c10.7,0,20.8,0,31.2,0C260.7,405.5,260.7,390.3,260.7,374.5z"/>
		<path class="st3" d="M293.8,255.2c4.7-15.7,9.4-31.3,14.2-47c0.7-2.4,1.1-5.4,2.8-6.8c2.2-1.8,6-3.5,8.3-2.8
			c2.4,0.7,4.1,4.3,5.6,6.9c0.6,1-0.1,2.9-0.5,4.4c-7.7,25.6-15.2,51.2-23.3,76.6c-1,3-5.4,6.8-8.1,6.8c-2.8-0.1-6.9-4.1-7.8-7.1
			c-8-25.2-15.5-50.6-23-75.9c-1.6-5.5-0.9-10.4,5.3-12c5.8-1.5,8.6,2.4,10.1,7.5c4.9,16.5,9.9,32.9,14.8,49.4
			C292.7,255.2,293.2,255.2,293.8,255.2z"/>
		<path class="st3" d="M241.6,53.7c31.2,0.7,53.5,12.4,71.7,32.9c3.7,4.2,5.8,8.7,0.9,13.1c-4.8,4.4-9.1,2-12.8-2.3
			C290.6,85,277.7,75.7,261.5,72c-26.6-6.2-49.3,1.8-68.5,20.6c-2,1.9-3.7,4.1-5.6,6c-3.4,3.5-7.3,4.6-11.3,1.3
			c-4.2-3.5-4-7.8-0.6-11.9c12.7-15,28.2-26.1,47.5-31.1C230.2,55.1,237.7,54.3,241.6,53.7z"/>
		<path class="st3" d="M187.8,213.9c-4.4,0-9.1,0.2-13.8,0c-5.1-0.2-8.8-2.5-8.7-8.1c0.1-5.5,3.8-7.8,8.9-7.9
			c15.2,0,30.4-0.1,45.6,0c5.2,0,8.8,2.4,8.9,7.9c0.1,5.6-3.7,7.9-8.8,8.1c-4.7,0.2-9.4,0-15,0c0,4.4,0,8.1,0,11.8
			c0,19.2-0.1,38.4,0,57.6c0,5.7-1.6,10.4-8,10.3c-6.4,0-7.9-4.8-7.9-10.4c0-22.4-0.1-44.9-0.2-67.3
			C188.9,215.7,188.6,215.5,187.8,213.9z"/>
		<path class="st3" d="M285,116.8c0,7.1-6.6,10.9-11.8,7.9c-1.7-1-3-2.6-4.4-3.9c-14.3-13.9-33.1-13.9-47.4-0.1
			c-0.5,0.5-1,1.1-1.5,1.6c-3.8,4-8.1,5.3-12.4,1.1c-4.3-4.2-2.5-8.5,1-12.5C221.7,95.7,244.4,90,263,98.2
			c6.9,3.1,12.7,8.4,18.7,13.2C283.5,112.8,284.3,115.5,285,116.8z"/>
		<path class="st3" d="M244.8,157.7c-6.5-0.1-11.8-5.4-11.8-11.9c0-6.4,5.4-11.9,11.8-12c6.6-0.1,12.4,5.7,12.1,12.4
			C256.8,152.7,251.3,157.8,244.8,157.7z"/>
	</g>
</g>
<g id="Layer_2_1_" class="st0">
	<g class="st1">
		<g>
			<defs>
				<rect id="SVGID_1_" x="-771" y="-223.6" width="595" height="841.2"/>
			</defs>
			<clipPath id="SVGID_2_">
				<use xlink:href="#SVGID_1_"  style="overflow:visible;"/>
			</clipPath>
			<g class="st4">
			</g>
		</g>
	</g>
</g>
</svg>
