<?xml version="1.0" encoding="utf-8"?>
<!-- Generator: Adobe Illustrator 22.0.0, SVG Export Plug-In . SVG Version: 6.00 Build 0)  -->
<svg version="1.1" id="Layer_1" xmlns="http://www.w3.org/2000/svg" xmlns:xlink="http://www.w3.org/1999/xlink" x="0px" y="0px"
	 viewBox="0 0 500 500" style="enable-background:new 0 0 500 500;" xml:space="preserve">
<style type="text/css">
	.st0{display:none;}
	.st1{display:inline;}
	.st2{fill:#333435;}
	.st3{fill:#DA9629;}
	.st4{clip-path:url(#SVGID_2_);}
</style>
<g id="Layer_1_1_" class="st0">
	<g class="st1">
		<g>
			<g>
				<g>
					<g>
						<path class="st2" d="M477,165.4c0,28.1,0,55.7,0,83.6c-4.5,0-9,0-13.8,0c-0.2-3.5-0.5-7-0.7-10.5c-0.4-6.3-0.6-12.7-1.2-19
							c-1.3-12.3-7.5-18.5-19.9-19.5c-9.9-0.8-19.8-1.1-29.7-1.1c-26.1-0.1-52.2,0-78.2-0.1c-3.1,0-4.3,0.9-4.4,3.9
							c-0.1,4.3-0.6,8.5-0.6,12.8c0,54.7,0,109.5,0,164.2c0,8.9,0.1,17.8,3.2,26.4c5.6,15.5,16.8,23.7,32.9,25.6
							c3.1,0.4,6.3,0.6,9.4,1c0.7,0.1,1.9,1,1.9,1.6c0.2,3.8,0.1,7.7,0.1,11.7c-50,0-99.7,0-149.6,0c0-4.5,0-8.9,0-13.5
							c4.7-0.5,9.4-0.9,14.1-1.4c17.2-1.8,28.2-12.9,31-30.1c2.2-13.3,1.5-26.7,1.6-40c0.1-50.9,0-101.7,0-152.6
							c0-3.4-0.2-6.7-0.5-10.1c-0.1-0.7-1.2-1.3-1.9-1.8c-0.3-0.2-1,0-1.5,0c-61.8,0-123.6,0-185.3,0.1c-6,0-12.1,0.5-18.1,1.3
							c-11,1.4-17.6,9.3-18.3,21.1c-0.5,10-1.2,20-1.8,30.2c-3.1,0-6,0-9.1,0c0-27.9,0-55.6,0-83.5
							C183.4,165.4,330.1,165.4,477,165.4z"/>
						<path class="st2" d="M191.3,456.3c0,9.4,0,18.8,0,28.4c-54.1,0-108.1,0-162.4,0c0-9.4,0-18.9,0-28.5c4.8-0.3,9.5-0.4,14.2-0.9
							c16.9-1.7,26.3-9.7,30.9-26.2c3.5-12.5,4.2-25.4,4.2-38.3c0.2-59.7,0.4-119.4,0.5-179c0-1.3,0-2.5,0-4.2c21,0,41.8,0,62.9,0
							c0,17.1,0,34.3,0,51.9c40.2,0,80,0,120,0c0.1,1.4,0.2,2.5,0.2,3.5c0,7.3-0.1,14.7,0.1,22c0.1,2.9-0.8,3.7-3.7,3.7
							c-24.1-0.1-48.2-0.1-72.3-0.1c-13.5,0-27,0.1-40.5-0.1c-2.9,0-4,0.6-3.9,3.8c0.1,25.2-0.1,50.4,0.1,75.6
							c0.1,14.5,0.6,28.9,1.7,43.3c0.5,7.1,2.3,14.3,4.5,21.1c4.4,13.5,14.6,20.2,28.2,22.3C181,455.5,186,455.8,191.3,456.3z"/>
						<path class="st2" d="M141.4,154c-21,0-41.6,0-62.6,0c-0.1-1.1-0.1-2.2-0.2-3.2c-0.2-17.6-0.3-35.3-0.7-52.9
							c-0.3-11.7-1.4-23.3-5.2-34.5C68.3,50,59.1,42.6,45.2,41c-4.3-0.5-8.7-0.5-13-0.7c-1.1-0.1-2.1,0-3.6,0c0-3,0-5.7,0-8.3
							c0-6,0.1-12.1,0-18.1c0-1.9,0.6-2.8,2.6-2.6c0.6,0.1,1.2,0,1.8,0c51.4,0,102.7,0,154.1,0c4.4,0,4.4,0,4.4,4.3
							c0,7.1-0.1,14.3,0.1,21.4c0.1,2.6-0.7,3.3-3.3,3.5c-5.6,0.4-11.3,0.9-16.8,2.1c-13.1,2.8-20.8,11.5-24.6,24
							c-4.2,13.6-4.4,27.7-4.7,41.8c-0.3,14.3-0.3,28.5-0.5,42.8C141.6,152,141.5,152.8,141.4,154z"/>
						<path class="st2" d="M271.4,153.2c-1-7.6-1.7-15-3.1-22.2c-0.8-4.3-2.4-8.6-4.3-12.6c-4.4-9-12-13.7-21.8-14.9
							c-4.4-0.5-8.9-0.6-13.3-0.7c-1.6,0-2.6-0.3-2.6-2.3c0-7.7,0-15.4,0-23.5c48.9,0,97.6,0,146.6,0c0.1,0.9,0.2,1.9,0.2,2.8
							c0,6.1,0.1,12.3,0.1,18.4c0,4.4-0.1,4-4.2,4.5c-6.3,0.8-12.9,1.5-18.8,3.6c-10.7,3.8-15.7,12.9-18,23.4
							c-1.3,5.6-1.7,11.3-2.5,17c-0.3,2-0.4,4.1-0.7,6.3C309.6,153.2,290.5,153.2,271.4,153.2z"/>
					</g>
				</g>
			</g>
			<g>
				<g>
					<g>
						<path class="st2" d="M28.6,165.4c0,28.1,0,55.7,0,83.6c4.5,0,9,0,13.8,0c0.2-3.5,0.5-7,0.7-10.5c0.4-6.3,0.6-12.7,1.2-19
							c1.3-12.3,7.5-18.5,19.9-19.5c9.9-0.8,19.8-1.1,29.7-1.1c26.1-0.1,52.2,0,78.2-0.1c3.1,0,4.3,0.9,4.4,3.9
							c0.1,4.3,0.6,8.5,0.6,12.8c0,54.7,0,109.5,0,164.2c0,8.9-0.1,17.8-3.2,26.4c-5.6,15.5-16.8,23.7-32.9,25.6
							c-3.1,0.4-6.3,0.6-9.4,1c-0.7,0.1-1.9,1-1.9,1.6c-0.2,3.8-0.1,7.7-0.1,11.7c50,0,99.7,0,149.6,0c0-4.5,0-8.9,0-13.5
							c-4.7-0.5-9.4-0.9-14.1-1.4c-17.2-1.8-28.2-12.9-31-30.1c-2.2-13.3-1.5-26.7-1.6-40c-0.1-50.9,0-101.7,0-152.6
							c0-3.4,0.2-6.7,0.5-10.1c0.1-0.7,1.2-1.3,1.9-1.8c0.3-0.2,1,0,1.5,0c61.8,0,123.6,0,185.3,0.1c6,0,12.1,0.5,18.1,1.3
							c11,1.4,17.6,9.3,18.3,21.1c0.5,10,1.2,20,1.8,30.2c3.1,0,6,0,9.1,0c0-27.9,0-55.6,0-83.5C322.2,165.4,175.5,165.4,28.6,165.4
							z"/>
						<path class="st2" d="M314.3,456.3c0,9.4,0,18.8,0,28.4c54.1,0,108.1,0,162.4,0c0-9.4,0-18.9,0-28.5c-4.8-0.3-9.5-0.4-14.2-0.9
							c-16.9-1.7-26.3-9.7-30.9-26.2c-3.5-12.5-4.2-25.4-4.2-38.3c-0.2-59.7-0.4-119.4-0.5-179c0-1.3,0-2.5,0-4.2
							c-21,0-41.8,0-62.9,0c0,17.1,0,34.3,0,51.9c-40.2,0-80,0-120,0c-0.1,1.4-0.2,2.5-0.2,3.5c0,7.3,0.1,14.7-0.1,22
							c-0.1,2.9,0.8,3.7,3.7,3.7c24.1-0.1,48.2-0.1,72.3-0.1c13.5,0,27,0.1,40.5-0.1c2.9,0,4,0.6,3.9,3.8
							c-0.1,25.2,0.1,50.4-0.1,75.6c-0.1,14.5-0.6,28.9-1.7,43.3c-0.5,7.1-2.3,14.3-4.5,21.1c-4.4,13.5-14.6,20.2-28.2,22.3
							C324.6,455.5,319.7,455.8,314.3,456.3z"/>
						<path class="st2" d="M364.2,154c21,0,41.6,0,62.6,0c0.1-1.1,0.1-2.2,0.2-3.2c0.2-17.6,0.3-35.3,0.7-52.9
							c0.3-11.7,1.4-23.3,5.2-34.5c4.5-13.3,13.7-20.8,27.5-22.3c4.3-0.5,8.7-0.5,13-0.7c1.1-0.1,2.1,0,3.6,0c0-3,0-5.7,0-8.3
							c0-6-0.1-12.1,0-18.1c0-1.9-0.6-2.8-2.6-2.6c-0.6,0.1-1.2,0-1.8,0c-51.4,0-102.7,0-154.1,0c-4.4,0-4.4,0-4.4,4.3
							c0,7.1,0.1,14.3-0.1,21.4c-0.1,2.6,0.7,3.3,3.3,3.5c5.6,0.4,11.3,0.9,16.8,2.1c13.1,2.8,20.8,11.5,24.6,24
							c4.2,13.6,4.4,27.7,4.7,41.8c0.3,14.3,0.3,28.5,0.5,42.8C364,152,364.1,152.8,364.2,154z"/>
						<path class="st2" d="M234.2,153.2c1-7.6,1.7-15,3.1-22.2c0.8-4.3,2.4-8.6,4.3-12.6c4.4-9,12-13.7,21.8-14.9
							c4.4-0.5,8.9-0.6,13.3-0.7c1.6,0,2.6-0.3,2.6-2.3c0-7.7,0-15.4,0-23.5c-48.9,0-97.6,0-146.6,0c-0.1,0.9-0.2,1.9-0.2,2.8
							c0,6.1-0.1,12.3-0.1,18.4c0,4.4,0.1,4,4.2,4.5c6.3,0.8,12.9,1.5,18.8,3.6c10.7,3.8,15.7,12.9,18,23.4c1.3,5.6,1.7,11.3,2.5,17
							c0.3,2,0.4,4.1,0.7,6.3C196,153.2,215.1,153.2,234.2,153.2z"/>
					</g>
				</g>
			</g>
		</g>
	</g>
</g>
<g id="Layer_3">
	<g>
		<path class="st3" d="M19.2,247.5c0-59.5,0-118.9,0-178.4c0-33.2,19.8-53,52.8-53c119.5,0,239.1,0,358.6,0
			c32.4,0,52.4,20.1,52.4,52.6c0,119.5,0,239.1,0,358.6c0,32.5-20,52.6-52.4,52.6c-119.8,0-239.7,0-359.5,0
			c-31.8,0-51.9-20.2-51.9-52.2C19.1,367.6,19.2,307.6,19.2,247.5z M251.5,35.5c-58.9,0-117.7,0-176.6,0c-26.4,0-36.3,9.8-36.3,35.8
			c0,117.7,0,235.5,0,353.2c0,25.7,10,35.8,35.4,35.8c118,0,236.1,0,354.1,0c25.1,0,35.4-10.1,35.4-34.9c0-118.3,0-236.7,0-355
			c0-24.8-10.3-34.9-35.4-34.9C369.3,35.5,310.4,35.5,251.5,35.5z"/>
		<path class="st3" d="M135.2,337.3c-6.8,13.6-12.7,25.3-18.6,37.1c-2.5,5.1-5.6,9.7-12.3,8.4c-7.2-1.5-7.8-7.2-7.8-13.3
			c0.1-29.6,0.1-59.1,0-88.7c0-7,1.2-13.3,9.8-13.1c8.7,0.2,9.4,6.7,9.4,13.6c-0.1,15.8,0,31.6,1.6,47.8c2.8-5.5,5.5-11.1,8.5-16.4
			c4.8-8.4,13.6-8.5,18.4-0.2c3.1,5.4,5.7,11,10.3,16.2c0-14.2,0-28.5,0-42.7c0-3-1-6.6,0.3-8.9c2.1-3.6,5.4-8.2,8.9-9.1
			c5.8-1.4,9.6,3,9.7,9c0.3,11.5,0.1,22.9,0.2,34.4c0,19.6-0.1,39.2,0,58.8c0,5.9-1,11.1-7.6,12.6c-6.7,1.5-9.8-3-12.3-8.2
			C147.9,362.8,142,351,135.2,337.3z"/>
		<path class="st3" d="M289.6,325.4c16,0,30.4,0.1,44.9,0c6.6,0,12.6,1.2,12.8,9.2c0.2,8.6-6,10-13,9.9c-14.4-0.1-28.9,0-44.7,0
			c0,9.4-0.1,18.1,0,26.7c0.1,6.7-2.4,11.7-9.5,11.8c-7.1,0.1-9.7-4.8-9.7-11.5c0.1-25.3-0.2-50.7,0.2-76
			c0.3-15.8,11.9-27.3,27.6-27.9c12.7-0.4,25.3-0.1,38-0.1c6.2,0,10.9,2.3,11.1,9.2c0.2,7.3-4.5,9.9-11.2,9.9
			c-11.2,0-22.3-0.1-33.5,0.1c-9.8,0.1-12.8,3.3-13,13.2C289.5,307.9,289.6,316,289.6,325.4z"/>
		<path class="st3" d="M338.9,141.8c-1.8,2.7-3.1,6.4-5.5,7.6c-2.8,1.3-7,1.2-10.1,0.1c-2.6-0.9-4.4-4-6.4-6.2
			c-38.1-40.8-93.5-40.9-131.6-0.1c-1,1.1-2,2.2-3,3.4c-4.4,5-9.6,6.8-14.9,1.9c-5-4.5-3.7-9.4,0.1-14.4
			c32.4-42,92.8-53.4,137.5-25.1c11,7,20.2,17,30,25.9C336.7,136.3,337.3,138.9,338.9,141.8z"/>
		<path class="st3" d="M231.7,324.9c0,15.1-0.1,30.1,0,45.2c0.1,6.8-1.6,12.7-9.3,12.9c-8.3,0.2-10-5.9-9.9-13.1
			c0.1-29.8,0.1-59.6,0-89.4c0-6.6,1.2-12.6,9.3-12.8c8.6-0.2,10,6,9.9,13C231.6,295.4,231.7,310.2,231.7,324.9z"/>
		<path class="st3" d="M405.6,325.7c0,15.1-0.1,30.1,0,45.2c0.1,7-2.3,12.3-10,12.1c-7.1-0.2-9.2-5.4-9.2-12
			c0.1-30.4,0.1-60.8,0-91.3c0-6.9,2-12.3,10-12.1c7.4,0.2,9.2,5.5,9.2,11.9C405.5,294.9,405.6,310.3,405.6,325.7z"/>
		<path class="st3" d="M251,142.5c17.3,0.2,31.7,6.7,43.5,19c4.6,4.8,7.5,10.1,1.9,15.7c-5.5,5.5-10.7,2.9-15.6-1.9
			c-19.1-18.6-40.4-18.6-59.6,0.1c-5,4.8-10.1,7.2-15.6,1.7c-5.1-5.2-2.9-10.4,1.5-15.1C219.1,149.4,233.6,142.6,251,142.5z"/>
		<path class="st3" d="M265.5,204.9c-0.2,7.7-6.9,14.2-14.6,14.1c-8.1-0.1-14.7-7.2-14.3-15.3c0.5-7.8,7.3-13.9,15-13.6
			C259.4,190.4,265.7,197.2,265.5,204.9z"/>
	</g>
</g>
<g id="Layer_2_1_" class="st0">
	<g class="st1">
		<g>
			<defs>
				<rect id="SVGID_1_" x="-771" y="-223.6" width="595" height="841.2"/>
			</defs>
			<clipPath id="SVGID_2_">
				<use xlink:href="#SVGID_1_"  style="overflow:visible;"/>
			</clipPath>
			<g class="st4">
			</g>
		</g>
	</g>
</g>
</svg>
